<!DOCTYPE svg PUBLIC "-//W3C//DTD SVG 1.1//EN" "http://www.w3.org/Graphics/SVG/1.1/DTD/svg11.dtd">
<!-- Uploaded to: SVG Repo, www.svgrepo.com, Transformed by: SVG Repo Mixer Tools -->
<svg fill="#3795bd" version="1.1" id="Capa_1" xmlns="http://www.w3.org/2000/svg" xmlns:xlink="http://www.w3.org/1999/xlink" width="800px" height="800px" viewBox="0 0 337.5 337.499" xml:space="preserve">
<g id="SVGRepo_bgCarrier" stroke-width="0"/>
<g id="SVGRepo_tracerCarrier" stroke-linecap="round" stroke-linejoin="round"/>
<g id="SVGRepo_iconCarrier"> <g> <g> <path d="M0,182.925h10.125v6.75h133.65v125.55h-18.9v20.25h87.75v-20.25h-18.899v-125.55h133.649v-6.75H337.5V2.024H0V182.925z M292.95,166.725v-4.894c5.273-2.136,9.002-7.288,9.002-13.331c0-7.955-6.449-14.402-14.401-14.402 c-7.953,0-14.402,6.447-14.402,14.402c0,6.043,3.729,11.195,9.002,13.331v4.894h-88.425H174.15v-4.894 c5.273-2.136,9.002-7.288,9.002-13.331c0-0.077-0.021-0.146-0.021-0.227c-0.121-7.847-6.507-14.175-14.381-14.175 c-7.873,0-14.256,6.328-14.375,14.175c0,0.077-0.021,0.145-0.021,0.227c0,6.043,3.726,11.195,9.001,13.331v4.894H143.78H51.3 v-5.12c5.276-2.136,9.002-7.288,9.002-13.332c0-7.955-6.447-14.402-14.402-14.402s-14.402,6.447-14.402,14.402 c0,6.043,3.726,11.196,9.002,13.332v5.12H10.8v-153.9h315.9v153.9H292.95z"/> <path d="M62.229,31.633l-32.21,90.239h19.725l6.12-18.549h33.231l5.957,18.549h20.45L83.565,31.633H62.229z M60.987,87.771 L72.7,52.26l11.401,35.511H60.987z"/> <path d="M168.605,63.59c-1.962-3.144-4.509-5.598-7.652-7.375c-3.143-1.777-6.734-2.663-10.774-2.663 c-8.774,0-15.783,3.267-21.027,9.795c-5.245,6.529-7.868,15.488-7.868,26.876c0,9.877,2.663,17.972,7.992,24.274 c5.329,6.302,11.886,9.46,19.683,9.46c4.736,0,8.693-0.896,11.881-2.694c3.185-1.799,6.02-4.673,8.508-8.636v9.245h16.962V31.751 h-17.694V63.59H168.605z M165.241,103.749c-2.571,3.673-6.328,5.509-11.265,5.509c-4.941,0-8.625-1.846-11.05-5.54 c-2.423-3.694-3.644-8.625-3.644-14.787c0-5.711,1.194-10.496,3.581-14.356c2.386-3.855,6.133-5.782,11.237-5.782 c3.349,0,6.286,1.062,8.817,3.185c4.121,3.51,6.184,9.348,6.184,17.514C169.095,95.325,167.811,100.079,165.241,103.749z"/> </g> </g> </g>
</svg>