<?xml version="1.0" encoding="UTF-8" standalone="no"?><!DOCTYPE svg PUBLIC "-//W3C//DTD SVG 1.1//EN" "http://www.w3.org/Graphics/SVG/1.1/DTD/svg11.dtd"><svg width="100%" height="100%" viewBox="0 0 1443 869" version="1.1" xmlns="http://www.w3.org/2000/svg" xmlns:xlink="http://www.w3.org/1999/xlink" xml:space="preserve" xmlns:serif="http://www.serif.com/" style="fill-rule:evenodd;clip-rule:evenodd;stroke-linejoin:round;stroke-miterlimit:2;"><rect id="butiga.agency-logo-for-web-light-and-dark" serif:id="butiga.agency logo for web light and dark" x="0" y="0" width="1442.26" height="868.821" style="fill:none;"/><g><path d="M79.753,357.626l-0,-256.954l69.256,0l0,97.863l1.004,0c2.51,-6.524 6.19,-12.525 11.041,-18.004c4.851,-5.479 10.874,-9.87 18.067,-13.174c7.194,-3.304 15.558,-4.956 25.093,-4.956c12.714,0 24.822,3.388 36.323,10.163c11.501,6.775 20.869,17.44 28.104,31.994c7.235,14.554 10.853,33.457 10.853,56.71c-0,22.249 -3.451,40.693 -10.351,55.33c-6.901,14.638 -16.102,25.554 -27.603,32.747c-11.501,7.193 -24.11,10.79 -37.828,10.79c-9.033,-0 -17.084,-1.485 -24.152,-4.454c-7.068,-2.969 -13.09,-7.026 -18.067,-12.17c-4.977,-5.144 -8.803,-10.978 -11.48,-17.503l-1.505,0l-0,31.618l-68.755,-0Zm67.751,-96.358c-0,9.368 1.234,17.461 3.701,24.278c2.468,6.817 5.981,12.086 10.539,15.808c4.559,3.722 10.017,5.584 16.373,5.584c6.357,-0 11.773,-1.82 16.248,-5.458c4.475,-3.639 7.905,-8.866 10.288,-15.683c2.384,-6.817 3.576,-14.994 3.576,-24.529c0,-9.535 -1.192,-17.711 -3.576,-24.528c-2.383,-6.817 -5.813,-12.045 -10.288,-15.684c-4.475,-3.638 -9.891,-5.457 -16.248,-5.457c-6.356,-0 -11.814,1.819 -16.373,5.457c-4.558,3.639 -8.071,8.867 -10.539,15.684c-2.467,6.817 -3.701,14.993 -3.701,24.528Z" style="fill:#0096c0;fill-rule:nonzero;"/><path d="M433.565,273.313l0,-108.402l69.257,-0l0,192.715l-65.744,-0l0,-36.636l-2.007,-0c-4.182,12.295 -11.501,21.893 -21.957,28.794c-10.455,6.901 -22.876,10.351 -37.263,10.351c-13.467,-0 -25.239,-3.095 -35.318,-9.285c-10.08,-6.189 -17.9,-14.721 -23.462,-25.594c-5.563,-10.874 -8.386,-23.337 -8.469,-37.389l-0,-122.956l69.257,-0l-0,108.402c0.083,9.535 2.53,17.021 7.339,22.458c4.81,5.437 11.564,8.155 20.263,8.155c5.771,0 10.769,-1.233 14.993,-3.701c4.224,-2.467 7.486,-5.98 9.786,-10.539c2.301,-4.559 3.409,-10.016 3.325,-16.373Z" style="fill:#0096c0;fill-rule:nonzero;"/><path d="M652.879,164.911l-0,50.186l-126.971,-0l-0,-50.186l126.971,-0Zm-102.38,-46.172l69.257,0l0,176.907c0,2.676 0.46,4.914 1.38,6.712c0.92,1.798 2.342,3.137 4.266,4.015c1.924,0.878 4.391,1.317 7.402,1.317c2.092,0 4.538,-0.251 7.34,-0.752c2.802,-0.502 4.872,-0.921 6.211,-1.255l10.037,48.68c-3.095,0.921 -7.507,2.05 -13.237,3.388c-5.729,1.338 -12.525,2.217 -20.388,2.635c-15.892,0.836 -29.233,-0.816 -40.023,-4.956c-10.79,-4.14 -18.904,-10.686 -24.341,-19.635c-5.436,-8.95 -8.071,-20.159 -7.904,-33.625l0,-183.431Z" style="fill:#0096c0;fill-rule:nonzero;"/><path d="M680.983,357.626l0,-192.715l69.257,-0l0,192.715l-69.257,-0Zm34.754,-212.79c-9.452,0 -17.523,-3.095 -24.215,-9.284c-6.691,-6.19 -10.037,-13.634 -10.037,-22.333c0,-8.699 3.346,-16.143 10.037,-22.333c6.692,-6.19 14.722,-9.284 24.09,-9.284c9.451,-0 17.502,3.094 24.152,9.284c6.649,6.19 9.974,13.634 9.974,22.333c0,8.699 -3.325,16.143 -9.974,22.333c-6.65,6.189 -14.659,9.284 -24.027,9.284Z" style="fill:#0096c0;fill-rule:nonzero;"/><path d="M878.215,433.909c-19.322,-0 -35.862,-2.74 -49.622,-8.218c-13.759,-5.479 -24.424,-13.007 -31.993,-22.584c-7.57,-9.577 -11.815,-20.556 -12.735,-32.935l66.748,0c0.669,4.099 2.342,7.403 5.018,9.912c2.677,2.509 6.127,4.328 10.351,5.458c4.224,1.129 8.971,1.693 14.24,1.693c8.95,0 16.374,-2.174 22.271,-6.524c5.896,-4.349 8.845,-12.212 8.845,-23.587l-0,-32.621l-2.008,-0c-2.509,6.524 -6.357,12.065 -11.542,16.624c-5.186,4.558 -11.418,8.03 -18.695,10.414c-7.277,2.383 -15.265,3.575 -23.964,3.575c-13.717,0 -26.327,-3.178 -37.828,-9.535c-11.501,-6.357 -20.701,-16.436 -27.602,-30.237c-6.901,-13.801 -10.351,-31.827 -10.351,-54.076c0,-23.253 3.618,-42.156 10.853,-56.71c7.235,-14.554 16.603,-25.219 28.104,-31.994c11.501,-6.775 23.609,-10.163 36.322,-10.163c9.536,0 17.9,1.652 25.094,4.956c7.193,3.304 13.215,7.695 18.067,13.174c4.851,5.479 8.531,11.48 11.041,18.004l1.505,0l0,-33.624l69.257,-0l0,192.213c0,16.31 -4.203,30.174 -12.609,41.592c-8.406,11.417 -20.221,20.137 -35.444,26.159c-15.223,6.022 -32.998,9.034 -53.323,9.034Zm2.509,-127.975c6.357,-0 11.815,-1.778 16.374,-5.332c4.558,-3.555 8.071,-8.658 10.539,-15.307c2.467,-6.65 3.701,-14.659 3.701,-24.027c-0,-9.535 -1.234,-17.711 -3.701,-24.528c-2.468,-6.817 -5.981,-12.045 -10.539,-15.684c-4.559,-3.638 -10.017,-5.457 -16.374,-5.457c-6.357,-0 -11.773,1.819 -16.248,5.457c-4.474,3.639 -7.904,8.867 -10.288,15.684c-2.384,6.817 -3.575,14.993 -3.575,24.528c-0,9.535 1.191,17.628 3.575,24.278c2.384,6.649 5.814,11.71 10.288,15.181c4.475,3.471 9.891,5.207 16.248,5.207Z" style="fill:#0096c0;fill-rule:nonzero;"/><path d="M1068.42,360.637c-12.296,-0 -23.149,-2.029 -32.559,-6.085c-9.41,-4.057 -16.791,-10.226 -22.144,-18.506c-5.354,-8.281 -8.03,-18.82 -8.03,-31.618c-0,-10.539 1.798,-19.551 5.395,-27.038c3.597,-7.486 8.615,-13.613 15.056,-18.38c6.44,-4.768 13.947,-8.406 22.521,-10.916c8.573,-2.509 17.837,-4.14 27.79,-4.893c10.79,-0.836 19.469,-1.861 26.035,-3.074c6.566,-1.213 11.312,-2.927 14.24,-5.144c2.927,-2.216 4.391,-5.165 4.391,-8.845l0,-0.502c0,-5.019 -1.924,-8.866 -5.771,-11.543c-3.848,-2.677 -8.783,-4.015 -14.805,-4.015c-6.608,0 -11.982,1.443 -16.123,4.329c-4.14,2.885 -6.628,7.298 -7.465,13.236l-63.736,0c0.836,-11.71 4.579,-22.521 11.229,-32.432c6.65,-9.912 16.373,-17.858 29.171,-23.839c12.797,-5.98 28.773,-8.971 47.928,-8.971c13.801,0 26.18,1.61 37.137,4.831c10.958,3.22 20.284,7.695 27.979,13.425c7.695,5.729 13.571,12.421 17.628,20.074c4.057,7.653 6.085,15.955 6.085,24.905l0,131.99l-64.74,-0l-0,-27.101l-1.506,0c-3.847,7.193 -8.51,13.007 -13.989,17.44c-5.479,4.433 -11.71,7.653 -18.694,9.661c-6.985,2.007 -14.659,3.011 -23.023,3.011Zm22.583,-43.662c5.27,-0 10.226,-1.088 14.868,-3.262c4.642,-2.175 8.427,-5.312 11.355,-9.41c2.927,-4.099 4.391,-9.076 4.391,-14.931l0,-16.059c-1.84,0.753 -3.785,1.464 -5.834,2.133c-2.049,0.669 -4.224,1.296 -6.524,1.882c-2.301,0.585 -4.726,1.129 -7.277,1.631c-2.551,0.502 -5.207,0.962 -7.967,1.38c-5.354,0.836 -9.724,2.195 -13.112,4.077c-3.387,1.882 -5.896,4.183 -7.527,6.901c-1.632,2.719 -2.447,5.751 -2.447,9.096c-0,5.354 1.882,9.452 5.646,12.296c3.764,2.844 8.573,4.266 14.428,4.266Z" style="fill:#0096c0;fill-rule:nonzero;"/><path d="M1261.14,361.64c-9.703,0 -18.005,-3.408 -24.905,-10.225c-6.901,-6.817 -10.309,-15.119 -10.226,-24.905c-0.083,-9.535 3.325,-17.69 10.226,-24.466c6.9,-6.775 15.202,-10.162 24.905,-10.162c9.2,-0 17.335,3.387 24.403,10.162c7.068,6.776 10.643,14.931 10.727,24.466c-0.084,6.524 -1.777,12.442 -5.081,17.754c-3.304,5.311 -7.591,9.535 -12.861,12.672c-5.269,3.136 -10.999,4.704 -17.188,4.704Z" style="fill:#0096c0;fill-rule:nonzero;"/><path d="M134.455,713.948c-12.295,-0 -23.148,-2.029 -32.558,-6.085c-9.41,-4.057 -16.791,-10.226 -22.144,-18.507c-5.354,-8.28 -8.03,-18.819 -8.03,-31.617c-0,-10.539 1.798,-19.552 5.395,-27.038c3.596,-7.486 8.615,-13.613 15.056,-18.38c6.44,-4.768 13.947,-8.407 22.521,-10.916c8.573,-2.509 17.837,-4.14 27.79,-4.893c10.79,-0.837 19.468,-1.861 26.034,-3.074c6.566,-1.213 11.313,-2.928 14.241,-5.144c2.927,-2.217 4.391,-5.165 4.391,-8.845l-0,-0.502c-0,-5.019 -1.924,-8.866 -5.771,-11.543c-3.848,-2.677 -8.783,-4.015 -14.805,-4.015c-6.608,0 -11.982,1.443 -16.123,4.329c-4.14,2.885 -6.628,7.297 -7.465,13.236l-63.736,0c0.836,-11.71 4.579,-22.521 11.229,-32.433c6.649,-9.911 16.373,-17.858 29.171,-23.838c12.797,-5.981 28.773,-8.971 47.927,-8.971c13.802,0 26.181,1.61 37.138,4.831c10.957,3.22 20.284,7.695 27.979,13.424c7.695,5.73 13.571,12.421 17.628,20.075c4.057,7.653 6.085,15.955 6.085,24.905l-0,131.989l-64.74,0l-0,-27.1l-1.506,-0c-3.847,7.193 -8.511,13.006 -13.989,17.44c-5.479,4.433 -11.71,7.653 -18.695,9.66c-6.984,2.008 -14.658,3.012 -23.023,3.012Zm22.584,-43.662c5.27,-0 10.226,-1.088 14.868,-3.262c4.642,-2.175 8.427,-5.312 11.355,-9.41c2.927,-4.099 4.391,-9.076 4.391,-14.931l-0,-16.059c-1.84,0.752 -3.785,1.463 -5.834,2.133c-2.05,0.669 -4.224,1.296 -6.525,1.882c-2.3,0.585 -4.725,1.129 -7.277,1.631c-2.551,0.501 -5.206,0.961 -7.967,1.38c-5.353,0.836 -9.723,2.195 -13.111,4.077c-3.387,1.882 -5.897,4.183 -7.528,6.901c-1.631,2.718 -2.446,5.75 -2.446,9.096c-0,5.353 1.882,9.452 5.646,12.296c3.764,2.844 8.573,4.266 14.428,4.266Z" style="fill:#0096c0;fill-rule:nonzero;"/><path d="M382.375,787.219c-19.321,0 -35.862,-2.739 -49.621,-8.218c-13.76,-5.478 -24.424,-13.006 -31.994,-22.583c-7.57,-9.578 -11.815,-20.556 -12.735,-32.935l66.748,-0c0.669,4.099 2.342,7.402 5.019,9.912c2.676,2.509 6.126,4.328 10.35,5.458c4.224,1.129 8.971,1.693 14.241,1.693c8.95,0 16.373,-2.174 22.27,-6.524c5.897,-4.349 8.845,-12.212 8.845,-23.587l0,-32.621l-2.007,-0c-2.51,6.524 -6.357,12.065 -11.543,16.624c-5.186,4.558 -11.417,8.03 -18.694,10.413c-7.277,2.384 -15.265,3.576 -23.964,3.576c-13.718,0 -26.327,-3.178 -37.828,-9.535c-11.501,-6.357 -20.702,-16.436 -27.603,-30.237c-6.9,-13.802 -10.351,-31.827 -10.351,-54.076c0,-23.253 3.618,-42.156 10.853,-56.71c7.235,-14.554 16.604,-25.219 28.105,-31.994c11.501,-6.775 23.608,-10.163 36.322,-10.163c9.535,0 17.9,1.652 25.093,4.956c7.193,3.304 13.216,7.695 18.067,13.174c4.851,5.479 8.532,11.48 11.041,18.004l1.505,0l0,-33.625l69.257,0l0,192.214c0,16.31 -4.203,30.174 -12.609,41.591c-8.406,11.418 -20.221,20.138 -35.444,26.16c-15.223,6.022 -32.997,9.033 -53.323,9.033Zm2.51,-127.974c6.357,-0 11.814,-1.778 16.373,-5.333c4.558,-3.554 8.071,-8.657 10.539,-15.306c2.467,-6.65 3.701,-14.659 3.701,-24.027c0,-9.535 -1.234,-17.712 -3.701,-24.529c-2.468,-6.817 -5.981,-12.044 -10.539,-15.683c-4.559,-3.638 -10.016,-5.458 -16.373,-5.458c-6.357,0 -11.773,1.82 -16.248,5.458c-4.475,3.639 -7.904,8.866 -10.288,15.683c-2.384,6.817 -3.576,14.994 -3.576,24.529c-0,9.535 1.192,17.628 3.576,24.278c2.384,6.649 5.813,11.71 10.288,15.181c4.475,3.471 9.891,5.207 16.248,5.207Z" style="fill:#0096c0;fill-rule:nonzero;"/><path d="M611.224,714.449c-20.576,0 -38.288,-3.952 -53.134,-11.856c-14.847,-7.904 -26.264,-19.28 -34.252,-34.127c-7.988,-14.846 -11.982,-32.642 -11.982,-53.385c-0,-19.907 4.015,-37.305 12.044,-52.194c8.03,-14.888 19.364,-26.473 34.002,-34.754c14.637,-8.281 31.91,-12.421 51.817,-12.421c14.554,0 27.728,2.259 39.521,6.775c11.794,4.517 21.873,11.062 30.238,19.636c8.364,8.573 14.805,18.966 19.321,31.178c4.517,12.212 6.775,25.971 6.775,41.278l0,16.06l-172.138,-0l-0,-38.142l108.402,0c-0.084,-5.52 -1.485,-10.393 -4.203,-14.617c-2.719,-4.224 -6.357,-7.528 -10.916,-9.911c-4.558,-2.384 -9.723,-3.576 -15.495,-3.576c-5.604,-0 -10.748,1.192 -15.432,3.576c-4.684,2.383 -8.427,5.666 -11.229,9.849c-2.802,4.182 -4.287,9.075 -4.454,14.679l-0,41.153c-0,6.189 1.296,11.71 3.889,16.561c2.593,4.851 6.315,8.657 11.167,11.418c4.851,2.76 10.706,4.14 17.565,4.14c4.768,-0 9.138,-0.669 13.111,-2.008c3.973,-1.338 7.382,-3.283 10.226,-5.834c2.843,-2.551 4.935,-5.625 6.273,-9.221l63.234,-0c-2.174,13.383 -7.318,24.988 -15.432,34.816c-8.113,9.828 -18.841,17.44 -32.182,22.835c-13.341,5.395 -28.92,8.092 -46.736,8.092Z" style="fill:#0096c0;fill-rule:nonzero;"/><path d="M802.936,602.534l-0,108.402l-69.257,0l-0,-192.715l65.744,0l-0,36.636l2.007,0c4.182,-12.212 11.564,-21.789 22.145,-28.731c10.581,-6.943 22.939,-10.414 37.075,-10.414c13.634,0 25.49,3.116 35.569,9.347c10.079,6.232 17.9,14.784 23.462,25.658c5.563,10.874 8.302,23.295 8.218,37.263l0,122.956l-69.257,0l0,-108.402c0.084,-9.535 -2.321,-17.021 -7.214,-22.458c-4.893,-5.437 -11.689,-8.155 -20.388,-8.155c-5.688,-0 -10.644,1.233 -14.868,3.701c-4.224,2.467 -7.465,5.98 -9.723,10.539c-2.259,4.559 -3.43,10.016 -3.513,16.373Z" style="fill:#0096c0;fill-rule:nonzero;"/><path d="M1054.87,714.449c-20.911,0 -38.81,-4.161 -53.699,-12.483c-14.888,-8.323 -26.306,-19.949 -34.252,-34.88c-7.946,-14.93 -11.919,-32.265 -11.919,-52.005c-0,-19.74 3.973,-37.075 11.919,-52.006c7.946,-14.93 19.364,-26.557 34.252,-34.879c14.889,-8.323 32.788,-12.484 53.699,-12.484c18.904,0 35.277,3.409 49.12,10.226c13.843,6.817 24.57,16.436 32.182,28.857c7.612,12.421 11.459,26.996 11.543,43.724l-64.238,0c-0.921,-10.121 -3.827,-17.837 -8.72,-23.148c-4.894,-5.311 -11.188,-7.967 -18.883,-7.967c-6.022,-0 -11.292,1.736 -15.809,5.207c-4.516,3.471 -8.029,8.699 -10.539,15.683c-2.509,6.984 -3.764,15.746 -3.764,26.285c0,10.539 1.255,19.301 3.764,26.285c2.51,6.984 6.023,12.212 10.539,15.683c4.517,3.471 9.787,5.207 15.809,5.207c5.102,-0 9.619,-1.192 13.55,-3.576c3.932,-2.384 7.131,-5.897 9.598,-10.539c2.468,-4.642 3.953,-10.309 4.455,-17l64.238,-0c-0.251,16.979 -4.141,31.763 -11.668,44.352c-7.528,12.588 -18.172,22.312 -31.931,29.17c-13.76,6.859 -30.175,10.288 -49.246,10.288Z" style="fill:#0096c0;fill-rule:nonzero;"/><path d="M1218.48,783.205c-7.946,-0 -15.516,-0.607 -22.709,-1.82c-7.193,-1.213 -13.508,-2.864 -18.945,-4.956l15.056,-49.182c5.687,2.007 10.894,3.304 15.62,3.889c4.726,0.586 8.783,0.251 12.17,-1.003c3.388,-1.255 5.834,-3.639 7.34,-7.152l1.506,-3.513l-67.752,-201.247l72.268,0l31.116,133.496l2.007,-0l31.618,-133.496l72.77,0l-70.261,208.775c-3.513,10.623 -8.595,20.179 -15.244,28.669c-6.65,8.49 -15.37,15.202 -26.16,20.137c-10.79,4.935 -24.256,7.403 -40.4,7.403Z" style="fill:#0096c0;fill-rule:nonzero;"/></g></svg>