<?xml version="1.0" encoding="UTF-8" standalone="no"?><!DOCTYPE svg PUBLIC "-//W3C//DTD SVG 1.1//EN" "http://www.w3.org/Graphics/SVG/1.1/DTD/svg11.dtd"><svg width="100%" height="100%" viewBox="0 0 2623 1644" version="1.1" xmlns="http://www.w3.org/2000/svg" xmlns:xlink="http://www.w3.org/1999/xlink" xml:space="preserve" xmlns:serif="http://www.serif.com/" style="fill-rule:evenodd;clip-rule:evenodd;stroke-linejoin:round;stroke-miterlimit:2;"><rect id="logo-butiga-agency-LIGHT-grey" serif:id="logo butiga agency LIGHT grey" x="0" y="0" width="2622.3" height="1643.47" style="fill:none;"/><g><path d="M372.136,704.214c-24.949,0 -45.723,-5.973 -62.32,-17.918c-16.598,-11.946 -28.596,-26.905 -35.996,-44.877l-3.172,0l0,58.355l-126.225,0l-0,-472.551l127.494,0l-0,180.141l1.903,-0c6.765,-18.184 18.5,-33.83 35.203,-46.938c16.703,-13.109 38.164,-19.664 64.381,-19.664c23.469,0 45.722,6.238 66.76,18.712c21.037,12.475 38.216,32.085 51.536,58.831c13.321,26.746 19.981,61.58 19.981,104.501c-0,40.806 -6.343,74.635 -19.029,101.487c-12.686,26.852 -29.601,46.885 -50.744,60.1c-21.143,13.214 -44.401,19.821 -69.772,19.821Zm-46.938,-97.681c17.548,-0 31.133,-7.4 40.753,-22.201c9.62,-14.8 14.43,-35.309 14.43,-61.526c0,-26.43 -4.81,-47.097 -14.43,-62.003c-9.62,-14.906 -23.205,-22.359 -40.753,-22.359c-17.338,0 -31.081,7.453 -41.23,22.359c-10.148,14.906 -15.223,35.573 -15.223,62.003c0,25.583 5.075,45.933 15.223,61.051c10.149,15.117 23.892,22.676 41.23,22.676Z" style="fill:#0055f0;fill-rule:nonzero;"/><path d="M687.381,704.214c-24.949,0 -46.726,-5.708 -65.333,-17.126c-18.606,-11.417 -32.983,-27.169 -43.132,-47.255c-10.148,-20.086 -15.223,-43.026 -15.223,-68.821l0,-225.81l127.494,0l-0,199.17c-0,17.548 4.44,31.344 13.32,41.387c8.88,10.044 21.355,15.065 37.424,15.065c15.646,0 28.12,-5.021 37.423,-15.065c9.303,-10.043 13.955,-23.839 13.955,-41.387l-0,-199.17l127.493,0l0,354.572l-119.565,0l-2.22,-79.921c-8.668,24.103 -21.883,44.189 -39.643,60.258c-17.761,16.069 -41.758,24.103 -71.993,24.103Z" style="fill:#0055f0;fill-rule:nonzero;"/><path d="M1192.92,345.202l-0,92.608l-60.893,-0l0,148.108c0,14.8 8.035,22.2 24.103,22.2c3.806,0 9.356,-0.475 16.651,-1.427c7.294,-0.951 12.104,-1.85 14.43,-2.695l15.223,91.021c-14.589,4.017 -28.332,6.713 -41.229,8.087c-12.898,1.375 -25.055,2.062 -36.472,2.062c-80.133,-0 -120.2,-35.838 -120.2,-107.513l0,-159.843l-45.035,-0l0,-92.608l45.035,0l0,-84.361l127.494,-0l0,84.361l60.893,0Z" style="fill:#0055f0;fill-rule:nonzero;"/><path d="M1244.93,699.774l-0,-354.572l127.494,0l-0,354.572l-127.494,0Zm63.43,-390.726c-17.338,-0 -32.138,-5.709 -44.401,-17.127c-12.263,-11.417 -18.395,-25.16 -18.395,-41.229c0,-16.28 6.132,-30.076 18.395,-41.388c12.263,-11.311 27.063,-16.967 44.401,-16.967c17.337,-0 32.137,5.656 44.4,16.967c12.263,11.312 18.395,25.108 18.395,41.388c-0,16.069 -6.132,29.812 -18.395,41.229c-12.263,11.418 -27.063,17.127 -44.4,17.127Z" style="fill:#0055f0;fill-rule:nonzero;"/><path d="M1606.48,839.954c-48.418,-0 -87.691,-8.986 -117.821,-26.958c-30.129,-17.971 -47.73,-42.18 -52.805,-72.627l111.954,-16.491c1.903,9.514 7.981,16.967 18.236,22.359c10.254,5.391 23.522,8.087 39.802,8.087c41.018,-0 61.527,-18.395 61.527,-55.184l-0,-60.258l-9.198,-0c-6.766,17.972 -18.183,31.873 -34.252,41.705c-16.069,9.831 -36.049,14.747 -59.941,14.747c-25.16,0 -48.312,-5.867 -69.455,-17.601c-21.144,-11.735 -38.111,-30.288 -50.903,-55.66c-12.791,-25.372 -19.187,-58.461 -19.187,-99.267c-0,-42.921 6.713,-77.755 20.139,-104.501c13.426,-26.746 30.71,-46.356 51.854,-58.831c21.143,-12.474 43.449,-18.712 66.918,-18.712c26.218,0 47.836,6.555 64.857,19.664c17.02,13.108 29.019,28.754 35.996,46.938l2.537,-0l0,-62.162l126.225,0l0,341.252c0,33.195 -7.77,61.21 -23.31,84.044c-15.54,22.835 -37.265,40.12 -65.174,51.854c-27.909,11.735 -60.575,17.602 -97.999,17.602Zm4.44,-235.324c17.549,-0 31.345,-7.242 41.388,-21.725c10.043,-14.483 15.065,-34.516 15.065,-60.099c-0,-26.43 -5.022,-47.097 -15.065,-62.003c-10.043,-14.906 -23.839,-22.359 -41.388,-22.359c-17.337,0 -30.869,7.453 -40.595,22.359c-9.726,14.906 -14.589,35.573 -14.589,62.003c0,26.217 4.863,46.409 14.589,60.575c9.726,14.166 23.258,21.249 40.595,21.249Z" style="fill:#0055f0;fill-rule:nonzero;"/><path d="M1956.61,705.483c-34.041,0 -61.791,-8.457 -83.252,-25.372c-21.46,-16.914 -32.19,-42.921 -32.19,-78.018c-0,-26.007 5.761,-46.938 17.284,-62.796c11.524,-15.857 27.117,-27.75 46.78,-35.679c19.663,-7.929 41.652,-12.739 65.967,-14.43c29.6,-2.115 50.638,-5.233 63.112,-9.356c12.475,-4.123 18.712,-11.365 18.712,-21.725l0,-1.268c0,-9.092 -3.594,-16.122 -10.783,-21.091c-7.189,-4.968 -16.915,-7.453 -29.178,-7.453c-12.051,0 -22.359,2.59 -30.922,7.77c-8.563,5.181 -13.901,13.162 -16.016,23.945l-114.807,-11.417c3.383,-19.875 11.628,-37.952 24.737,-54.233c13.109,-16.28 31.239,-29.283 54.391,-39.009c23.152,-9.726 51.325,-14.589 84.52,-14.589c33.618,0 62.848,5.128 87.692,15.382c24.843,10.255 44.031,24.156 57.562,41.705c13.532,17.549 20.298,37.212 20.298,58.99l-0,242.935l-119.248,0l-0,-50.109l-2.537,-0c-10.783,19.875 -24.738,34.146 -41.864,42.815c-17.126,8.669 -37.212,13.003 -60.258,13.003Zm41.229,-80.556c14.378,0 27.381,-4.44 39.009,-13.32c11.629,-8.88 17.444,-21.355 17.444,-37.423l-0,-29.178c-13.109,5.074 -30.024,9.303 -50.744,12.686c-14.8,2.326 -25.583,6.766 -32.349,13.32c-6.766,6.554 -10.149,14.377 -10.149,23.469c0,9.937 3.436,17.496 10.307,22.676c6.872,5.18 15.699,7.77 26.482,7.77Z" style="fill:#0055f0;fill-rule:nonzero;"/><path d="M2334.02,707.386c-18.607,-0 -34.147,-6.132 -46.621,-18.395c-12.475,-12.263 -18.712,-27.592 -18.712,-45.986c-0,-18.395 6.237,-33.724 18.712,-45.987c12.474,-12.263 28.014,-18.394 46.621,-18.394c18.606,-0 34.146,6.131 46.62,18.394c12.475,12.263 18.712,27.592 18.712,45.987c0,18.394 -6.237,33.723 -18.712,45.986c-12.474,12.263 -28.014,18.395 -46.62,18.395Z" style="fill:#0055f0;fill-rule:nonzero;"/><path d="M243.373,1355c-34.04,-0 -61.791,-8.457 -83.251,-25.372c-21.461,-16.915 -32.191,-42.921 -32.191,-78.018c0,-26.007 5.762,-46.938 17.285,-62.796c11.523,-15.857 27.116,-27.75 46.779,-35.679c19.663,-7.929 41.652,-12.739 65.967,-14.43c29.601,-2.115 50.638,-5.233 63.113,-9.356c12.474,-4.123 18.711,-11.365 18.711,-21.725l0,-1.268c0,-9.092 -3.594,-16.122 -10.783,-21.091c-7.188,-4.968 -16.914,-7.453 -29.177,-7.453c-12.052,0 -22.359,2.59 -30.922,7.77c-8.563,5.18 -13.902,13.162 -16.016,23.945l-114.808,-11.417c3.383,-19.875 11.629,-37.952 24.738,-54.233c13.108,-16.28 31.239,-29.283 54.391,-39.009c23.151,-9.726 51.325,-14.589 84.52,-14.589c33.617,0 62.848,5.127 87.691,15.382c24.843,10.254 44.031,24.156 57.563,41.705c13.531,17.549 20.297,37.212 20.297,58.99l0,242.935l-119.248,0l0,-50.109l-2.537,-0c-10.783,19.874 -24.738,34.146 -41.864,42.815c-17.126,8.669 -37.212,13.003 -60.258,13.003Zm41.23,-80.556c14.377,0 27.38,-4.44 39.009,-13.32c11.629,-8.88 17.443,-21.355 17.443,-37.424l-0,-29.177c-13.109,5.074 -30.023,9.303 -50.744,12.686c-14.8,2.326 -25.583,6.766 -32.349,13.32c-6.766,6.554 -10.149,14.377 -10.149,23.469c0,9.937 3.436,17.496 10.308,22.676c6.871,5.18 15.699,7.77 26.482,7.77Z" style="fill:#0055f0;fill-rule:nonzero;"/><path d="M701.336,1489.47c-48.418,-0 -87.692,-8.986 -117.821,-26.958c-30.129,-17.972 -47.731,-42.181 -52.805,-72.627l111.953,-16.491c1.903,9.514 7.982,16.967 18.236,22.358c10.255,5.392 23.522,8.088 39.802,8.088c41.018,-0 61.527,-18.395 61.527,-55.184l0,-60.258l-9.197,-0c-6.766,17.971 -18.183,31.873 -34.252,41.705c-16.069,9.831 -36.049,14.747 -59.941,14.747c-25.161,0 -48.313,-5.867 -69.456,-17.602c-21.143,-11.734 -38.11,-30.287 -50.902,-55.659c-12.792,-25.372 -19.188,-58.461 -19.188,-99.268c0,-42.92 6.713,-77.754 20.139,-104.5c13.426,-26.746 30.711,-46.356 51.854,-58.831c21.143,-12.474 43.449,-18.712 66.918,-18.712c26.218,0 47.837,6.555 64.857,19.663c17.021,13.109 29.019,28.755 35.997,46.938l2.537,0l-0,-62.161l126.225,0l-0,341.252c-0,33.195 -7.77,61.21 -23.311,84.044c-15.54,22.835 -37.265,40.12 -65.174,51.854c-27.909,11.735 -60.575,17.602 -97.998,17.602Zm4.44,-235.324c17.549,-0 31.344,-7.242 41.388,-21.725c10.043,-14.483 15.064,-34.516 15.064,-60.1c0,-26.429 -5.021,-47.096 -15.064,-62.002c-10.044,-14.906 -23.839,-22.359 -41.388,-22.359c-17.338,-0 -30.869,7.453 -40.595,22.359c-9.726,14.906 -14.589,35.573 -14.589,62.002c-0,26.218 4.863,46.41 14.589,60.576c9.726,14.166 23.257,21.249 40.595,21.249Z" style="fill:#0055f0;fill-rule:nonzero;"/><path d="M1122.51,1355.64c-56.876,0 -101.541,-16.121 -133.996,-48.365c-32.454,-32.243 -48.682,-77.014 -48.682,-134.312c0,-36.578 7.347,-68.557 22.042,-95.938c14.695,-27.38 35.468,-48.682 62.32,-63.905c26.852,-15.223 58.566,-22.835 95.144,-22.835c35.732,0 66.813,7.348 93.242,22.042c26.429,14.695 46.885,35.626 61.368,62.795c14.483,27.17 21.725,59.571 21.725,97.206l-0,29.178l-230.884,0c0.845,21.989 6.713,38.269 17.601,48.841c10.889,10.572 25.108,15.857 42.657,15.857c13.109,0 24.315,-2.695 33.618,-8.087c9.303,-5.391 15.857,-12.95 19.663,-22.676l112.27,16.492c-9.091,31.926 -28.067,57.192 -56.928,75.798c-28.86,18.606 -65.914,27.909 -111.16,27.909Zm-56.77,-223.907l109.733,0c-4.017,-34.674 -22.306,-52.012 -54.866,-52.012c-32.561,0 -50.85,17.338 -54.867,52.012Z" style="fill:#0055f0;fill-rule:nonzero;"/><path d="M1473.91,1150.12l0,199.169l-127.494,0l0,-354.572l119.565,0l2.22,79.922c8.669,-24.104 21.884,-44.19 39.644,-60.258c17.76,-16.069 41.758,-24.104 71.993,-24.104c25.16,0 46.99,5.709 65.491,17.126c18.5,11.418 32.825,27.169 42.973,47.255c10.149,20.086 15.224,43.027 15.224,68.822l-0,225.809l-127.494,0l-0,-199.169c-0,-17.549 -4.44,-31.345 -13.32,-41.388c-8.881,-10.043 -21.355,-15.064 -37.424,-15.064c-15.646,-0 -28.12,5.021 -37.423,15.064c-9.303,10.043 -13.955,23.839 -13.955,41.388Z" style="fill:#0055f0;fill-rule:nonzero;"/><path d="M1938.85,1355.64c-38.481,0 -71.412,-7.664 -98.792,-22.993c-27.381,-15.329 -48.312,-36.684 -62.795,-64.064c-14.484,-27.38 -21.725,-59.254 -21.725,-95.62c-0,-36.367 7.241,-68.24 21.725,-95.621c14.483,-27.38 35.414,-48.735 62.795,-64.063c27.38,-15.329 60.311,-22.994 98.792,-22.994c48.84,0 88.325,12.21 118.455,36.631c30.129,24.42 47.202,57.139 51.219,98.157l-117.028,17.443c-6.131,-38.057 -23.046,-57.086 -50.743,-57.086c-16.704,-0 -30.077,7.188 -40.12,21.566c-10.043,14.377 -15.064,36.155 -15.064,65.332c-0,28.967 5.021,50.903 15.064,65.809c10.043,14.906 23.416,22.359 40.12,22.359c28.331,-0 45.246,-19.664 50.743,-58.99l117.028,17.126c-4.229,42.075 -21.249,75.429 -51.061,100.06c-29.812,24.632 -69.35,36.948 -118.613,36.948Z" style="fill:#0055f0;fill-rule:nonzero;"/><path d="M2149.43,1472.35l27.909,-90.705l16.492,4.44c20.72,5.498 37.106,5.233 49.158,-0.792c12.052,-6.026 16.174,-14.536 12.369,-25.531l-3.489,-10.149l-131.299,-354.889l133.836,0l45.987,161.746c4.228,15.012 7.77,30.076 10.624,45.194c2.855,15.117 5.55,30.71 8.088,46.779c3.594,-16.28 7.347,-31.979 11.258,-47.096c3.912,-15.118 8.193,-30.077 12.845,-44.877l50.744,-161.746l131.933,0l-146.205,386.921c-7.189,19.241 -16.915,36.631 -29.178,52.171c-12.263,15.541 -28.173,27.856 -47.731,36.948c-19.557,9.092 -44.242,13.637 -74.054,13.637c-14.589,0 -28.966,-1.057 -43.132,-3.171c-14.166,-2.114 -26.218,-5.074 -36.155,-8.88Z" style="fill:#0055f0;fill-rule:nonzero;"/></g></svg>