<?xml version="1.0" encoding="UTF-8" standalone="no"?><!DOCTYPE svg PUBLIC "-//W3C//DTD SVG 1.1//EN" "http://www.w3.org/Graphics/SVG/1.1/DTD/svg11.dtd"><svg width="100%" height="100%" viewBox="0 0 1250 338" version="1.1" xmlns="http://www.w3.org/2000/svg" xmlns:xlink="http://www.w3.org/1999/xlink" xml:space="preserve" xmlns:serif="http://www.serif.com/" style="fill-rule:evenodd;clip-rule:evenodd;stroke-linejoin:round;stroke-miterlimit:2;"><rect id="Artboard1" x="0" y="0" width="1250" height="337.058" style="fill:none;"/><g id="Clutch--widget-" serif:id="Clutch-&quot;widget&quot;"><g id="Group"><g id="_-----" serif:id=""><path id="Path" d="M680.423,72.888c0,0 28.067,4.141 28.067,4.141c2.324,0.332 4.277,1.972 5.019,4.219c0.742,2.265 0.137,4.726 -1.543,6.406l-20.351,19.961l4.804,28.633c0.391,2.343 -0.566,4.726 -2.519,6.113c-1.934,1.387 -4.492,1.562 -6.582,0.449l-25.078,-13.379l-25.059,13.379c-2.109,1.113 -4.668,0.938 -6.601,-0.449c-1.934,-1.387 -2.911,-3.77 -2.5,-6.113l4.804,-28.633l-20.355,-19.961c-1.682,-1.68 -2.28,-4.141 -1.541,-6.406c0.736,-2.247 2.683,-3.887 5.025,-4.219l28.043,-4.141l12.578,-25.846c1.035,-2.151 3.223,-3.517 5.606,-3.517c2.402,0 4.59,1.366 5.625,3.517l12.558,25.846Z" style="fill:#ef4335;fill-rule:nonzero;"/><path id="Path1" serif:id="Path" d="M799.173,72.888c0,0 28.067,4.141 28.067,4.141c2.324,0.332 4.277,1.972 5.019,4.219c0.742,2.265 0.137,4.726 -1.543,6.406l-20.351,19.961l4.804,28.633c0.391,2.343 -0.566,4.726 -2.519,6.113c-1.934,1.387 -4.492,1.562 -6.582,0.449l-25.078,-13.379l-25.059,13.379c-2.109,1.113 -4.668,0.938 -6.601,-0.449c-1.934,-1.387 -2.911,-3.77 -2.5,-6.113l4.804,-28.633l-20.355,-19.961c-1.682,-1.68 -2.28,-4.141 -1.541,-6.406c0.736,-2.247 2.683,-3.887 5.025,-4.219l28.043,-4.141l12.578,-25.846c1.035,-2.151 3.223,-3.517 5.606,-3.517c2.402,0 4.59,1.366 5.625,3.517l12.558,25.846Z" style="fill:#ef4335;fill-rule:nonzero;"/><path id="Path2" serif:id="Path" d="M917.923,72.888c0,0 28.067,4.141 28.067,4.141c2.324,0.332 4.277,1.972 5.019,4.219c0.742,2.265 0.137,4.726 -1.543,6.406l-20.351,19.961l4.804,28.633c0.391,2.343 -0.566,4.726 -2.519,6.113c-1.934,1.387 -4.492,1.562 -6.582,0.449l-25.078,-13.379l-25.059,13.379c-2.109,1.113 -4.668,0.938 -6.601,-0.449c-1.934,-1.387 -2.911,-3.77 -2.5,-6.113l4.804,-28.633l-20.355,-19.961c-1.682,-1.68 -2.28,-4.141 -1.541,-6.406c0.736,-2.247 2.683,-3.887 5.025,-4.219l28.043,-4.141l12.578,-25.846c1.035,-2.151 3.223,-3.517 5.606,-3.517c2.402,0 4.59,1.366 5.625,3.517l12.558,25.846Z" style="fill:#ef4335;fill-rule:nonzero;"/><path id="Path3" serif:id="Path" d="M1036.67,72.888l28.067,4.141c2.324,0.332 4.277,1.972 5.019,4.219c0.742,2.265 0.137,4.726 -1.543,6.406l-20.351,19.961l4.804,28.633c0.391,2.343 -0.566,4.726 -2.519,6.113c-1.934,1.387 -4.492,1.562 -6.582,0.449l-25.078,-13.379l-25.059,13.379c-2.109,1.113 -4.668,0.938 -6.601,-0.449c-1.934,-1.387 -2.911,-3.77 -2.5,-6.113l4.804,-28.633l-20.355,-19.961c-1.682,-1.68 -2.28,-4.141 -1.541,-6.406c0.736,-2.247 2.683,-3.887 5.025,-4.219l28.043,-4.141l12.578,-25.846c1.035,-2.151 3.223,-3.517 5.606,-3.517c2.402,0 4.59,1.366 5.625,3.517l12.558,25.846Z" style="fill:#ef4335;fill-rule:nonzero;"/><path id="Path4" serif:id="Path" d="M1155.42,72.888l28.067,4.141c2.324,0.332 4.277,1.972 5.019,4.219c0.742,2.265 0.137,4.726 -1.543,6.406l-20.351,19.961l4.804,28.633c0.391,2.343 -0.566,4.726 -2.519,6.113c-1.934,1.387 -4.492,1.562 -6.582,0.449l-25.078,-13.379l-25.059,13.379c-2.109,1.113 -4.668,0.938 -6.601,-0.449c-1.934,-1.387 -2.911,-3.77 -2.5,-6.113l4.804,-28.633l-20.355,-19.961c-1.682,-1.68 -2.28,-4.141 -1.541,-6.406c0.736,-2.247 2.683,-3.887 5.025,-4.219l28.043,-4.141l12.578,-25.846c1.035,-2.151 3.223,-3.517 5.606,-3.517c2.402,0 4.59,1.366 5.625,3.517l12.558,25.846Z" style="fill:#ef4335;fill-rule:nonzero;"/></g><g id="See-Reviews"><path id="Path5" serif:id="Path" d="M664.439,269.366c-6.945,-0 -12.528,-0.889 -16.75,-2.667l-0,-8c2.389,0.889 4.958,1.611 7.708,2.167c2.75,0.555 5.486,0.833 8.208,0.833c4.278,0 7.486,-0.5 9.625,-1.5c2.139,-1 3.209,-3 3.209,-6c-0,-1.833 -0.445,-3.305 -1.334,-4.416c-0.889,-1.112 -2.361,-2.07 -4.416,-2.875c-2.056,-0.806 -4.889,-1.653 -8.5,-2.542c-5.778,-1.5 -9.834,-3.403 -12.167,-5.708c-2.333,-2.306 -3.5,-5.487 -3.5,-9.542c0,-4.722 1.722,-8.417 5.167,-11.083c3.444,-2.667 8.583,-4 15.416,-4c3.111,-0 6.042,0.222 8.792,0.666c2.75,0.445 4.903,0.945 6.458,1.5l0,8c-4.222,-1.611 -8.889,-2.416 -14,-2.416c-4,-0 -7.111,0.527 -9.333,1.583c-2.222,1.055 -3.333,2.972 -3.333,5.75c-0,1.611 0.389,2.917 1.166,3.917c0.778,1 2.125,1.861 4.042,2.583c1.917,0.722 4.569,1.528 7.958,2.417c4.389,1.111 7.792,2.43 10.209,3.958c2.416,1.528 4.111,3.305 5.083,5.333c0.972,2.028 1.458,4.32 1.458,6.875c0,4.722 -1.75,8.431 -5.25,11.125c-3.5,2.695 -8.805,4.042 -15.916,4.042Z" style="fill:#859295;fill-rule:nonzero;"/><path id="Path6" serif:id="Path" d="M697.043,268.533l-0,-53.667l37.417,-0l-0,7.083l-28.334,0l0,16.25l25.25,0l0,7l-25.25,0l0,16.334l28.334,-0l-0,7l-37.417,-0Z" style="fill:#859295;fill-rule:nonzero;"/><path id="Path7" serif:id="Path" d="M745.48,268.533l0,-53.667l37.417,-0l0,7.083l-28.333,0l-0,16.25l25.25,0l-0,7l-25.25,0l-0,16.334l28.333,-0l0,7l-37.417,-0Z" style="fill:#859295;fill-rule:nonzero;"/><path id="Shape" d="M815.689,268.533l-0,-53.667l24.666,-0c6,-0 10.375,1.542 13.125,4.625c2.75,3.083 4.125,7.264 4.125,12.542c0,3.777 -0.944,7 -2.833,9.666c-1.889,2.667 -4.611,4.528 -8.167,5.584c1,0.722 1.778,1.5 2.334,2.333c0.555,0.833 1.111,1.944 1.666,3.333l6.75,15.584l-9.333,-0l-6.583,-15c-0.611,-1.445 -1.348,-2.473 -2.209,-3.084c-0.861,-0.611 -2.319,-0.916 -4.375,-0.916l-10.083,-0l0,19l-9.083,-0Zm9.083,-26.334l13.167,0c3.277,0 5.861,-0.805 7.75,-2.416c1.889,-1.612 2.833,-4.195 2.833,-7.75c0,-6.723 -3.25,-10.084 -9.75,-10.084l-14,0l0,20.25Z" style="fill:#859295;fill-rule:nonzero;"/><path id="Path8" serif:id="Path" d="M869.126,268.533l0,-53.667l37.417,-0l-0,7.083l-28.333,0l-0,16.25l25.25,0l-0,7l-25.25,0l-0,16.334l28.333,-0l-0,7l-37.417,-0Z" style="fill:#859295;fill-rule:nonzero;"/><path id="Path9" serif:id="Path" d="M935.23,268.533l-20.5,-53.667l9.417,-0l16.083,43.917l16.084,-43.917l9.416,-0l-20.333,53.667l-10.167,-0Z" style="fill:#859295;fill-rule:nonzero;"/><path id="Path10" serif:id="Path" d="M976.001,268.533l0,-53.667l9.084,-0l-0,53.667l-9.084,-0Z" style="fill:#859295;fill-rule:nonzero;"/><path id="Path11" serif:id="Path" d="M998.189,268.533l-0,-53.667l37.416,-0l0,7.083l-28.333,0l0,16.25l25.25,0l0,7l-25.25,0l0,16.334l28.333,-0l0,7l-37.416,-0Z" style="fill:#859295;fill-rule:nonzero;"/><path id="Path12" serif:id="Path" d="M1057.54,268.533l-12.5,-53.667l8.917,-0l9.083,40.25l10.167,-33.75l-0,-6.5l7.416,-0l11.417,40.25l9.25,-40.25l8.833,-0l-12.416,53.667l-8.917,-0l-10.75,-37.584l-11.417,37.584l-9.083,-0Z" style="fill:#859295;fill-rule:nonzero;"/><path id="Path13" serif:id="Path" d="M1135.4,269.366c-6.944,-0 -12.528,-0.889 -16.75,-2.667l0,-8c2.389,0.889 4.958,1.611 7.708,2.167c2.75,0.555 5.486,0.833 8.209,0.833c4.277,0 7.486,-0.5 9.625,-1.5c2.139,-1 3.208,-3 3.208,-6c0,-1.833 -0.444,-3.305 -1.333,-4.416c-0.889,-1.112 -2.361,-2.07 -4.417,-2.875c-2.056,-0.806 -4.889,-1.653 -8.5,-2.542c-5.778,-1.5 -9.833,-3.403 -12.167,-5.708c-2.333,-2.306 -3.5,-5.487 -3.5,-9.542c0,-4.722 1.723,-8.417 5.167,-11.083c3.444,-2.667 8.583,-4 15.417,-4c3.111,-0 6.041,0.222 8.791,0.666c2.75,0.445 4.903,0.945 6.459,1.5l-0,8c-4.223,-1.611 -8.889,-2.416 -14,-2.416c-4,-0 -7.111,0.527 -9.334,1.583c-2.222,1.055 -3.333,2.972 -3.333,5.75c0,1.611 0.389,2.917 1.167,3.917c0.777,1 2.125,1.861 4.041,2.583c1.917,0.722 4.57,1.528 7.959,2.417c4.389,1.111 7.791,2.43 10.208,3.958c2.417,1.528 4.111,3.305 5.083,5.333c0.973,2.028 1.459,4.32 1.459,6.875c-0,4.722 -1.75,8.431 -5.25,11.125c-3.5,2.695 -8.806,4.042 -15.917,4.042Z" style="fill:#859295;fill-rule:nonzero;"/></g></g><g id="Group-2"><g id="Reviewed-on"><path id="Shape1" serif:id="Shape" d="M66.608,106.033l-0,-45.617l20.967,-0c5.1,-0 8.818,1.31 11.156,3.931c2.337,2.621 3.506,6.174 3.506,10.661c0,3.211 -0.803,5.95 -2.408,8.216c-1.606,2.267 -3.92,3.849 -6.942,4.746c0.85,0.614 1.511,1.275 1.983,1.983c0.473,0.709 0.945,1.653 1.417,2.834l5.738,13.246l-7.934,-0l-5.596,-12.75c-0.519,-1.228 -1.145,-2.102 -1.877,-2.621c-0.732,-0.52 -1.971,-0.779 -3.718,-0.779l-8.571,-0l-0,16.15l-7.721,-0Zm7.721,-22.384l11.191,0c2.786,0 4.982,-0.684 6.588,-2.054c1.605,-1.369 2.408,-3.565 2.408,-6.587c0,-5.714 -2.762,-8.571 -8.287,-8.571l-11.9,-0l-0,17.212Z" style="fill:#99a4a6;fill-rule:nonzero;"/><path id="Path14" serif:id="Path" d="M112.03,106.033l-0,-45.617l31.804,-0l-0,6.021l-24.083,-0l-0,13.812l21.462,0l0,5.95l-21.462,0l-0,13.884l24.083,-0l-0,5.95l-31.804,-0Z" style="fill:#99a4a6;fill-rule:nonzero;"/><path id="Path15" serif:id="Path" d="M168.218,106.033l-17.425,-45.617l8.004,-0l13.671,37.329l13.671,-37.329l8.004,-0l-17.283,45.617l-8.642,-0Z" style="fill:#99a4a6;fill-rule:nonzero;"/><path id="Path16" serif:id="Path" d="M202.873,106.033l0,-45.617l7.721,-0l0,45.617l-7.721,-0Z" style="fill:#99a4a6;fill-rule:nonzero;"/><path id="Path17" serif:id="Path" d="M221.733,106.033l-0,-45.617l31.804,-0l0,6.021l-24.083,-0l-0,13.812l21.462,0l0,5.95l-21.462,0l-0,13.884l24.083,-0l0,5.95l-31.804,-0Z" style="fill:#99a4a6;fill-rule:nonzero;"/><path id="Path18" serif:id="Path" d="M272.184,106.033l-10.625,-45.617l7.579,-0l7.721,34.212l8.642,-28.687l-0,-5.525l6.304,-0l9.704,34.212l7.862,-34.212l7.509,-0l-10.554,45.617l-7.58,-0l-9.137,-31.946l-9.704,31.946l-7.721,-0Z" style="fill:#99a4a6;fill-rule:nonzero;"/><path id="Path19" serif:id="Path" d="M326.672,106.033l0,-45.617l31.805,-0l-0,6.021l-24.084,-0l0,13.812l21.463,0l-0,5.95l-21.463,0l0,13.884l24.084,-0l-0,5.95l-31.805,-0Z" style="fill:#99a4a6;fill-rule:nonzero;"/><path id="Shape2" serif:id="Shape" d="M367.844,106.033l0,-45.617l18.488,-0c6.753,-0 11.758,1.783 15.016,5.348c3.259,3.565 4.888,9.48 4.888,17.744c-0,7.791 -1.606,13.493 -4.817,17.106c-3.211,3.612 -8.24,5.419 -15.087,5.419l-18.488,-0Zm7.721,-5.95l9.563,-0c2.975,-0 5.454,-0.437 7.437,-1.311c1.983,-0.873 3.471,-2.514 4.463,-4.923c0.991,-2.408 1.487,-5.855 1.487,-10.341c0,-4.487 -0.448,-7.957 -1.346,-10.413c-0.897,-2.455 -2.325,-4.179 -4.285,-5.171c-1.96,-0.991 -4.545,-1.487 -7.756,-1.487l-9.563,-0l0,33.646Z" style="fill:#99a4a6;fill-rule:nonzero;"/><path id="Shape3" serif:id="Shape" d="M454.721,106.741c-7.225,-0 -12.632,-1.901 -16.22,-5.702c-3.589,-3.802 -5.384,-9.693 -5.384,-17.673c0,-8.311 1.795,-14.332 5.384,-18.063c3.588,-3.73 8.995,-5.595 16.22,-5.595c7.273,-0 12.691,1.865 16.257,5.595c3.565,3.731 5.348,9.752 5.348,18.063c-0,7.98 -1.783,13.871 -5.348,17.673c-3.566,3.801 -8.984,5.702 -16.257,5.702Zm0,-6.517c4.77,0 8.276,-1.31 10.519,-3.931c2.243,-2.621 3.365,-6.93 3.365,-12.927c-0,-6.328 -1.122,-10.755 -3.365,-13.281c-2.243,-2.527 -5.749,-3.79 -10.519,-3.79c-4.722,0 -8.204,1.263 -10.448,3.79c-2.243,2.526 -3.364,6.953 -3.364,13.281c-0,5.997 1.121,10.306 3.364,12.927c2.244,2.621 5.726,3.931 10.448,3.931Z" style="fill:#99a4a6;fill-rule:nonzero;"/><path id="Path20" serif:id="Path" d="M486.047,106.033l0,-45.617l6.8,-0l23.8,33.575l0,-33.575l7.65,-0l0,45.617l-6.8,-0l-23.729,-33.505l0,33.505l-7.721,-0Z" style="fill:#99a4a6;fill-rule:nonzero;"/></g><g id="clutch-co-vector-logo"><path id="Path21" serif:id="Path" d="M182.012,156.033l20.833,-0l-0,133.333l-20.833,-0l-0,-133.333Z" style="fill:#17313b;fill-rule:nonzero;"/><path id="Path22" serif:id="Path" d="M277.506,248.35c-0,20.052 -16.57,21.875 -22.093,21.875c-12.888,0 -14.729,-11.849 -14.729,-18.229l0,-50.13l-21.172,-0l-0,49.219c-0,11.849 3.682,22.786 11.046,29.166c6.444,6.381 14.729,9.115 24.855,9.115c7.364,-0 16.57,-1.823 22.093,-7.292l-0,7.292l21.172,-0l0,-87.5l-21.172,-0l-0,46.484Z" style="fill:#17313b;fill-rule:nonzero;"/><path id="Path23" serif:id="Path" d="M340.857,168.533l-21.857,-0l-0,33.397l-16.155,-0l-0,20.992l16.155,-0l-0,70.611l21.857,-0l-0,-70.611l16.155,-0l-0,-20.992l-16.155,-0l-0,-33.397Z" style="fill:#17313b;fill-rule:nonzero;"/><path id="Path24" serif:id="Path" d="M423.056,266.407c-4.55,3.741 -10.92,6.547 -17.29,6.547c-14.559,0 -24.569,-11.224 -24.569,-26.19c0,-14.966 10.01,-25.255 24.569,-25.255c6.37,-0 12.74,1.871 17.29,6.547l2.73,2.807l14.559,-14.031l-3.64,-2.806c-8.19,-7.483 -19.109,-12.16 -30.939,-12.16c-25.479,-0 -44.588,19.643 -44.588,45.833c0,26.191 19.109,45.834 44.588,45.834c11.83,-0 22.749,-4.677 30.939,-12.16l3.64,-2.806l-14.559,-14.966l-2.73,2.806Z" style="fill:#17313b;fill-rule:nonzero;"/><path id="Path25" serif:id="Path" d="M522.637,206.737c-6.563,-6.573 -13.125,-9.39 -23.438,-9.39c-7.5,0 -15,1.878 -20.625,7.512l0,-48.826l-21.562,-0l-0,133.333l21.562,-0l0,-49.765c0,-20.658 14.063,-22.536 19.688,-22.536c13.125,0 12.187,12.207 12.187,18.78l0,52.582l21.563,-0l-0,-51.643c-0,-12.207 -2.813,-23.474 -9.375,-30.047Z" style="fill:#17313b;fill-rule:nonzero;"/><circle id="Oval" cx="409.095" cy="245.616" r="14.583" style="fill:#ef4335;"/><path id="Path26" serif:id="Path" d="M155.409,256.373c-7.692,7.541 -19.231,12.254 -31.731,12.254c-24.038,0 -41.346,-18.853 -41.346,-44.304c0,-25.452 17.308,-44.305 42.308,-44.305c11.538,-0 23.077,4.713 31.731,13.197l2.884,2.828l14.423,-14.14l-2.884,-2.828c-12.5,-12.254 -28.846,-18.853 -46.154,-18.853c-36.539,-0.943 -63.462,27.337 -63.462,64.101c0,36.763 26.923,65.043 62.5,65.043c17.308,-0 34.616,-6.599 46.154,-18.853l2.885,-2.828l-14.423,-14.14l-2.885,2.828Z" style="fill:#17313b;fill-rule:nonzero;"/></g></g></g></svg>