<!DOCTYPE svg PUBLIC "-//W3C//DTD SVG 1.1//EN" "http://www.w3.org/Graphics/SVG/1.1/DTD/svg11.dtd">
<!-- Uploaded to: SVG Repo, www.svgrepo.com, Transformed by: SVG Repo Mixer Tools -->
<svg fill="#3795bd" height="800px" width="800px" version="1.1" id="Layer_1" xmlns="http://www.w3.org/2000/svg" xmlns:xlink="http://www.w3.org/1999/xlink" viewBox="0 0 489.9 489.9" xml:space="preserve">
<g id="SVGRepo_bgCarrier" stroke-width="0"/>
<g id="SVGRepo_tracerCarrier" stroke-linecap="round" stroke-linejoin="round"/>
<g id="SVGRepo_iconCarrier"> <g> <g> <path d="M469.2,448.9H41.6V21.3c0-11.4-9.4-20.8-20.8-20.8S0,9.9,0,21.3v447.3c0,11.4,9.4,20.8,20.8,20.8h447.3 c11.4,0,21.8-8.3,21.8-19.8S480.6,448.9,469.2,448.9z"/> <path d="M158.1,405.2c37.5,0,68.7-31.2,68.7-68.7c0-24.6-13.5-46.5-33.4-58.7l36.8-101.6c14.5-0.7,28-6.2,38.9-14.8l52,58 c-7,10.7-11.1,23.5-11.1,37c0,37.5,31.2,68.7,68.7,68.7c38.5,0,68.7-31.2,68.7-68.7s-31.2-68.7-68.7-68.7 c-9.1,0-17.9,1.9-25.9,5.2l-60-66.8c1.7-5.9,2.6-12.1,2.6-18.5c0-37.5-31.2-68.7-68.7-68.7S158,70.1,158,107.6 c0,24.3,13.1,45.9,32.5,58.1l-37,102.3c-35.4,2.4-64.1,32.6-64.1,68.5C89.5,374,120.7,405.2,158.1,405.2z M406.8,256.4 c0,15.6-12.5,28.1-28.1,28.1s-28.1-12.5-28.1-28.1s12.5-28.1,28.1-28.1C394.3,228.4,406.8,240.8,406.8,256.4z M226.8,79.6 c15.6,0,28.1,12.5,28.1,28.1s-12.5,28.1-28.1,28.1s-28.1-12.5-28.1-28.1S211.2,79.6,226.8,79.6z M158.1,308.5 c15.6,0,28.1,12.5,28.1,28.1s-12.5,28.1-28.1,28.1S130,352.2,130,336.6S142.5,308.5,158.1,308.5z"/> </g> </g> </g>
</svg>