<?xml version="1.0" encoding="UTF-8" standalone="no"?><!DOCTYPE svg PUBLIC "-//W3C//DTD SVG 1.1//EN" "http://www.w3.org/Graphics/SVG/1.1/DTD/svg11.dtd"><svg width="100%" height="100%" viewBox="0 0 750 188" version="1.1" xmlns="http://www.w3.org/2000/svg" xmlns:xlink="http://www.w3.org/1999/xlink" xml:space="preserve" xmlns:serif="http://www.serif.com/" style="fill-rule:evenodd;clip-rule:evenodd;stroke-linecap:round;stroke-linejoin:round;stroke-miterlimit:1.5;"><rect id="Logo-light" serif:id="Logo light" x="0" y="0" width="750" height="187.5" style="fill:none;"/><g id="Dental-Fiume-logo" serif:id="Dental Fiume logo"><path d="M88.297,159.588l-54.259,0l-0,-5.171l3.722,-0c5.631,-0 9.353,-1.18 11.167,-3.541c1.813,-2.36 2.721,-6.75 2.721,-13.168l-0,-64.21c-0,-4.456 -0.383,-7.864 -1.146,-10.224c-0.764,-2.36 -2.112,-4.031 -4.045,-5.013c-1.932,-0.981 -4.831,-1.472 -8.697,-1.472l-3.722,-0l-0,-5.092l54.259,-0l0,5.092l-3.006,-0c-3.676,-0 -6.479,0.478 -8.411,1.433c-1.933,0.954 -3.306,2.639 -4.116,5.052c-0.812,2.414 -1.217,5.822 -1.217,10.224l-0,64.21c-0,4.403 0.405,7.811 1.217,10.224c0.81,2.414 2.183,4.098 4.116,5.052c1.932,0.955 4.735,1.433 8.411,1.433l3.006,-0l0,5.171Z" style="fill:#c5dff8;fill-rule:nonzero;"/><g><clipPath id="_clip1"><path d="M91.234,51.697c-0,0 -0.138,5.092 -0,5.092c8.35,0 42.804,10.108 41.714,49.252c-1.089,39.143 -29.865,47.596 -41.714,48.376l-0,5.171l4.993,0c13.266,0 24.362,-2.665 33.285,-7.995c8.923,-5.332 15.485,-12.147 19.685,-20.45c4.199,-8.3 6.3,-16.828 6.3,-25.579c-0,-6.472 -1.122,-12.891 -3.364,-19.256c-2.244,-6.365 -5.633,-12.146 -10.165,-17.345c-4.535,-5.198 -10.308,-9.375 -17.323,-12.532c-7.015,-3.155 -15.152,-4.734 -24.409,-4.734l-9.002,0Z"/></clipPath><g clip-path="url(#_clip1)"><path d="M42.702,105.643l66.203,-73.588l66.353,73.754l-66.203,73.588l-66.353,-73.754Z" style="fill:#c5dff8;fill-rule:nonzero;"/></g></g><path d="M47.881,35.917c-0.114,-0.602 -0.279,-1.243 -0.495,-1.92c-0.217,-0.678 -0.482,-1.421 -0.794,-2.231c-0.445,1.732 -0.888,3.106 -1.33,4.122c-0.442,1.017 -0.899,1.789 -1.369,2.316c-0.47,0.527 -0.955,0.861 -1.455,1.002c-0.5,0.141 -1.014,0.212 -1.54,0.212c-0.62,0 -1.199,-0.127 -1.738,-0.381c-0.539,-0.254 -1.018,-0.588 -1.439,-1.002c-0.421,-0.415 -0.766,-0.871 -1.035,-1.37c-0.27,-0.498 -0.439,-0.993 -0.506,-1.483c-0.116,-0.847 0,-1.585 0.348,-2.216c0.347,-0.63 0.916,-0.946 1.707,-0.946c0.682,0 1.282,0.25 1.799,0.749c0.518,0.499 0.833,1.162 0.947,1.99c0.015,0.113 0.008,0.259 -0.022,0.438c-0.03,0.179 -0.064,0.357 -0.101,0.536c-0.037,0.179 -0.072,0.349 -0.104,0.508c-0.033,0.16 -0.044,0.278 -0.034,0.354c-0.004,-0.038 0.031,-0.057 0.109,-0.057c0.434,0 0.854,-0.212 1.261,-0.635c0.407,-0.424 0.803,-1.129 1.187,-2.118c0.383,-0.988 0.768,-2.287 1.152,-3.897c0.384,-1.61 0.779,-3.59 1.186,-5.944l1.952,0c0.029,0.208 0.093,0.509 0.194,0.904c0.1,0.395 0.221,0.829 0.364,1.299c0.141,0.471 0.292,0.946 0.451,1.426c0.158,0.48 0.311,0.917 0.458,1.313c0.388,-1.581 0.719,-2.951 0.995,-4.109c0.276,-1.157 0.513,-2.145 0.71,-2.965c0.198,-0.818 0.358,-1.491 0.48,-2.018c0.121,-0.527 0.221,-0.96 0.299,-1.299c0.077,-0.339 0.138,-0.602 0.182,-0.791c0.044,-0.188 0.087,-0.357 0.128,-0.508l1.953,0c0.087,0.64 0.327,1.629 0.719,2.965c0.392,1.337 0.942,3.003 1.649,4.998c0.711,-2.391 1.433,-4.504 2.166,-6.339c0.733,-1.836 1.411,-3.421 2.034,-4.758l1.953,0c0.1,1.073 0.215,2.08 0.344,3.021c0.188,1.375 0.398,2.655 0.63,3.841c0.232,1.185 0.466,2.362 0.704,3.529c1.405,-2.748 2.581,-4.861 3.526,-6.339c0.944,-1.478 1.594,-2.33 1.952,-2.555l1.743,-0c0.017,1.712 0.069,3.506 0.155,5.378c0.086,1.873 0.211,3.752 0.376,5.634c0.472,-0.621 1.058,-1.379 1.757,-2.274c0.699,-0.893 1.499,-1.905 2.398,-3.035l1.953,-0c-0.174,1.45 -0.261,2.908 -0.261,4.377c-0.001,1.468 0.071,2.965 0.219,4.49c0.413,-0.377 0.825,-0.711 1.234,-1.004c0.41,-0.291 0.806,-0.536 1.19,-0.733c0.383,-0.198 0.732,-0.343 1.044,-0.438c0.313,-0.094 0.57,-0.141 0.771,-0.141c0.165,0.64 0.333,1.388 0.505,2.245c0.171,0.857 0.372,1.671 0.602,2.443c0.229,0.771 0.492,1.425 0.791,1.962c0.298,0.536 0.656,0.804 1.075,0.804c0.542,0 0.793,-0.15 0.752,-0.452c-0.023,-0.169 -0.133,-0.432 -0.329,-0.79c-0.196,-0.358 -0.321,-0.735 -0.375,-1.13c-0.098,-0.714 0.019,-1.327 0.353,-1.835c0.333,-0.508 0.825,-0.762 1.476,-0.762c0.775,-0 1.438,0.287 1.99,0.861c0.55,0.574 0.901,1.407 1.05,2.499c0.083,0.603 0.037,1.177 -0.136,1.722c-0.173,0.546 -0.461,1.021 -0.862,1.426c-0.402,0.405 -0.908,0.73 -1.518,0.974c-0.609,0.245 -1.309,0.367 -2.1,0.367c-1.457,0 -2.667,-0.465 -3.632,-1.397c-0.964,-0.932 -1.687,-2.424 -2.17,-4.476c-0.56,0.546 -1.036,1.177 -1.426,1.892c-0.39,0.715 -0.692,1.487 -0.904,2.315l-1.859,0c-0.186,-0.79 -0.338,-1.533 -0.457,-2.23c-0.118,-0.697 -0.223,-1.374 -0.313,-2.033c-0.09,-0.659 -0.169,-1.318 -0.235,-1.977c-0.067,-0.658 -0.132,-1.327 -0.194,-2.004c-0.827,1.205 -1.553,2.292 -2.18,3.261c-0.627,0.969 -1.134,1.849 -1.522,2.64l-1.906,-0l-0.791,-10.701c-0.586,1.035 -1.216,2.235 -1.889,3.6c-0.674,1.365 -1.376,2.941 -2.108,4.729l-1.813,0l-2.089,-9.148c-0.153,0.357 -0.329,0.823 -0.529,1.397c-0.201,0.575 -0.405,1.21 -0.612,1.906c-0.206,0.697 -0.409,1.422 -0.608,2.175c-0.2,0.753 -0.372,1.477 -0.517,2.173c-0.145,0.697 -0.255,1.332 -0.331,1.907c-0.077,0.574 -0.108,1.03 -0.092,1.369l-1.929,-0c-0.486,-1.505 -0.872,-2.711 -1.157,-3.615c-0.287,-0.903 -0.518,-1.628 -0.693,-2.174c-0.176,-0.545 -0.32,-0.974 -0.432,-1.285c-0.112,-0.31 -0.235,-0.616 -0.37,-0.917c-0.46,2.41 -0.939,4.461 -1.435,6.155c-0.497,1.695 -0.956,3.097 -1.377,4.208l-1.86,-0Z" style="fill:#c5dff8;fill-rule:nonzero;"/><rect x="402.108" y="167.685" width="335.573" height="5.753" style="fill:#c5dff8;"/><circle cx="20.862" cy="81.435" r="8.542" style="fill:#c5dff8;stroke:#c5dff8;stroke-width:4.17px;"/><circle cx="20.862" cy="130.042" r="8.542" style="fill:#c5dff8;stroke:#c5dff8;stroke-width:4.17px;"/><g><path d="M160.036,133.256c-0,-4.392 0.674,-8.234 2.023,-11.528c1.349,-3.294 3.121,-6.038 5.317,-8.234c2.196,-2.196 4.721,-3.858 7.575,-4.987c2.855,-1.13 5.788,-1.694 8.799,-1.694c7.026,-0 12.578,2.148 16.656,6.446c4.078,4.297 6.117,10.618 6.117,18.962c-0,0.815 -0.031,1.709 -0.094,2.681c-0.063,0.973 -0.126,1.835 -0.188,2.588l-31.807,0c0.313,2.886 1.662,5.176 4.046,6.87c2.384,1.694 5.584,2.541 9.599,2.541c2.572,-0 5.097,-0.236 7.575,-0.706c2.478,-0.471 4.501,-1.051 6.07,-1.741l1.882,11.386c-0.753,0.377 -1.757,0.753 -3.012,1.13c-1.254,0.376 -2.65,0.705 -4.187,0.988c-1.537,0.282 -3.184,0.517 -4.941,0.706c-1.756,0.188 -3.513,0.282 -5.269,0.282c-4.455,-0 -8.328,-0.659 -11.622,-1.976c-3.294,-1.318 -6.023,-3.121 -8.187,-5.411c-2.164,-2.29 -3.764,-5.003 -4.799,-8.14c-1.035,-3.137 -1.553,-6.525 -1.553,-10.163Zm32.936,-5.364c-0.063,-1.192 -0.267,-2.353 -0.612,-3.482c-0.345,-1.129 -0.878,-2.133 -1.599,-3.011c-0.722,-0.879 -1.631,-1.6 -2.729,-2.165c-1.098,-0.564 -2.463,-0.847 -4.094,-0.847c-1.568,0 -2.917,0.267 -4.046,0.8c-1.13,0.534 -2.071,1.239 -2.823,2.118c-0.753,0.878 -1.333,1.897 -1.741,3.058c-0.408,1.161 -0.706,2.337 -0.894,3.529l18.538,-0Z" style="fill:#c5dff8;fill-rule:nonzero;"/><path d="M217.345,109.824c2.384,-0.69 5.458,-1.333 9.222,-1.929c3.764,-0.596 7.716,-0.894 11.857,-0.894c4.203,-0 7.701,0.549 10.492,1.647c2.792,1.098 5.003,2.65 6.635,4.658c1.631,2.007 2.791,4.391 3.481,7.152c0.691,2.76 1.036,5.834 1.036,9.222l-0,27.948l-14.022,0l0,-26.254c0,-4.517 -0.596,-7.717 -1.788,-9.599c-1.192,-1.882 -3.419,-2.823 -6.681,-2.823c-1.004,-0 -2.07,0.047 -3.2,0.141c-1.129,0.094 -2.133,0.204 -3.011,0.33l0,38.205l-14.021,0l-0,-47.804Z" style="fill:#c5dff8;fill-rule:nonzero;"/><path d="M272.301,95.803l14.021,-2.259l0,14.586l16.845,0l-0,11.669l-16.845,-0l0,17.409c0,2.949 0.518,5.301 1.553,7.058c1.035,1.756 3.121,2.635 6.258,2.635c1.506,-0 3.058,-0.142 4.658,-0.424c1.6,-0.282 3.058,-0.674 4.376,-1.176l1.976,10.916c-1.694,0.69 -3.576,1.286 -5.646,1.788c-2.071,0.502 -4.611,0.753 -7.623,0.753c-3.826,-0 -6.995,-0.518 -9.504,-1.553c-2.509,-1.035 -4.517,-2.478 -6.023,-4.329c-1.505,-1.851 -2.556,-4.093 -3.152,-6.728c-0.596,-2.635 -0.894,-5.552 -0.894,-8.752l-0,-41.593Z" style="fill:#c5dff8;fill-rule:nonzero;"/><path d="M331.586,147.842c1.38,-0 2.698,-0.032 3.952,-0.094c1.255,-0.063 2.259,-0.157 3.012,-0.283l-0,-10.633c-0.565,-0.126 -1.412,-0.251 -2.541,-0.377c-1.129,-0.125 -2.165,-0.188 -3.106,-0.188c-1.317,-0 -2.556,0.078 -3.717,0.235c-1.16,0.157 -2.18,0.455 -3.058,0.894c-0.878,0.439 -1.568,1.035 -2.07,1.788c-0.502,0.753 -0.753,1.694 -0.753,2.823c-0,2.196 0.737,3.717 2.211,4.564c1.475,0.847 3.498,1.271 6.07,1.271Zm-1.129,-41.029c4.14,-0 7.591,0.47 10.351,1.411c2.76,0.941 4.972,2.29 6.634,4.047c1.663,1.756 2.839,3.889 3.529,6.399c0.69,2.509 1.035,5.301 1.035,8.375l0,29.172c-2.007,0.439 -4.799,0.957 -8.375,1.553c-3.576,0.596 -7.905,0.894 -12.986,0.894c-3.2,-0 -6.101,-0.283 -8.705,-0.847c-2.603,-0.565 -4.846,-1.49 -6.728,-2.776c-1.882,-1.287 -3.325,-2.965 -4.329,-5.035c-1.004,-2.07 -1.505,-4.611 -1.505,-7.622c-0,-2.886 0.58,-5.333 1.74,-7.34c1.161,-2.008 2.714,-3.608 4.659,-4.8c1.944,-1.192 4.172,-2.054 6.681,-2.587c2.509,-0.534 5.113,-0.8 7.81,-0.8c1.82,-0 3.435,0.078 4.847,0.235c1.411,0.157 2.556,0.361 3.435,0.612l-0,-1.318c-0,-2.384 -0.722,-4.297 -2.165,-5.74c-1.443,-1.443 -3.952,-2.165 -7.528,-2.165c-2.384,0 -4.737,0.173 -7.058,0.518c-2.321,0.345 -4.329,0.831 -6.022,1.459l-1.788,-11.293c0.815,-0.251 1.835,-0.517 3.058,-0.8c1.223,-0.282 2.556,-0.533 3.999,-0.752c1.443,-0.22 2.965,-0.408 4.564,-0.565c1.6,-0.157 3.216,-0.235 4.847,-0.235Z" style="fill:#c5dff8;fill-rule:nonzero;"/><path d="M384.472,158.569c-4.078,-0.062 -7.387,-0.501 -9.928,-1.317c-2.541,-0.816 -4.548,-1.961 -6.023,-3.435c-1.474,-1.474 -2.478,-3.262 -3.011,-5.364c-0.533,-2.101 -0.8,-4.47 -0.8,-7.104l0,-54.486l14.022,-2.259l-0,53.921c-0,1.255 0.094,2.384 0.282,3.388c0.188,1.004 0.549,1.851 1.082,2.541c0.533,0.69 1.302,1.255 2.306,1.694c1.003,0.439 2.352,0.721 4.046,0.847l-1.976,11.574Z" style="fill:#c5dff8;fill-rule:nonzero;"/></g><g transform="matrix(94.2799,0,0,94.2799,713.907,157.626)"></g><text x="421.639px" y="157.626px" style="font-family:'Ubuntu-Bold', 'Ubuntu', sans-serif;font-weight:700;font-size:94.28px;fill:#c5dff8;">FIUME</text></g></svg>