<?xml version="1.0" encoding="UTF-8" standalone="no"?>
<!DOCTYPE svg PUBLIC "-//W3C//DTD SVG 1.1//EN" "http://www.w3.org/Graphics/SVG/1.1/DTD/svg11.dtd">
<svg width="100%" height="100%" viewBox="0 0 1575 1599" version="1.1" xmlns="http://www.w3.org/2000/svg" xmlns:xlink="http://www.w3.org/1999/xlink" xml:space="preserve" xmlns:serif="http://www.serif.com/" style="fill-rule:evenodd;clip-rule:evenodd;stroke-linejoin:round;stroke-miterlimit:2;">
    <g transform="matrix(5.55556,0,0,5.55556,0,1456.1)">
        <path d="M0,15.462L0,-0C0,-3.542 0.883,-6.136 2.657,-7.78C4.427,-9.42 6.792,-10.242 9.752,-10.242C12.775,-10.242 15.184,-9.469 16.971,-7.926C18.758,-6.38 19.655,-4.405 19.655,-1.999C19.655,-1.153 19.246,-0.731 18.436,-0.731C17.656,-0.731 17.247,-1.073 17.215,-1.755C16.661,-5.851 14.192,-7.901 9.801,-7.901C4.891,-7.901 2.438,-5.266 2.438,-0L2.438,15.462C2.438,20.728 4.891,23.364 9.801,23.364C12.176,23.364 14.004,22.705 15.289,21.389C16.574,20.07 17.215,18.095 17.215,15.462L17.215,8.926L9.996,8.926C9.703,8.926 9.469,8.814 9.289,8.584C9.111,8.358 9.021,8.097 9.021,7.804C9.021,7.512 9.111,7.251 9.289,7.024C9.469,6.797 9.703,6.683 9.996,6.683L18.631,6.683C18.924,6.683 19.168,6.797 19.363,7.024C19.558,7.251 19.655,7.512 19.655,7.804L19.655,15.462C19.655,19.007 18.753,21.598 16.947,23.242C15.143,24.882 12.761,25.704 9.801,25.704C6.809,25.704 4.427,24.882 2.657,23.242C0.883,21.598 0,19.007 0,15.462" style="fill:white;fill-rule:nonzero;"/>
    </g>
    <g transform="matrix(5.55556,0,0,5.55556,216.442,1457.18)">
        <path d="M0,14.486L12.69,14.486L6.361,-6.352L0,14.486ZM-5.456,24.143C-5.456,24.014 -5.439,23.916 -5.408,23.85L5.022,-9.855C5.212,-10.438 5.656,-10.73 6.353,-10.73C7.053,-10.73 7.499,-10.43 7.69,-9.828L18.102,24.128C18.102,24.128 18.11,24.155 18.127,24.209C18.144,24.265 18.151,24.316 18.151,24.367C18.151,24.599 18.005,24.799 17.712,24.965C17.42,25.133 17.095,25.216 16.737,25.216C16.218,25.216 15.891,24.972 15.762,24.484L13.37,16.729L-0.683,16.729L-3.048,24.475C-3.208,24.969 -3.56,25.216 -4.106,25.216C-4.459,25.216 -4.774,25.118 -5.047,24.923C-5.32,24.728 -5.456,24.467 -5.456,24.143" style="fill:white;fill-rule:nonzero;"/>
    </g>
    <g transform="matrix(5.55556,0,0,5.55556,399.118,1405.15)">
        <path d="M0,33.508L0,-0.049C0,-0.731 0.407,-1.073 1.219,-1.073C2.031,-1.073 2.438,-0.731 2.438,-0.049L2.438,32.24L16.825,32.24C17.444,32.24 17.754,32.63 17.754,33.41C17.754,34.191 17.444,34.581 16.825,34.581L1.17,34.581C0.39,34.581 0,34.222 0,33.508" style="fill:white;fill-rule:nonzero;"/>
    </g>
    <g transform="matrix(5.55556,0,0,5.55556,577.134,1405.15)">
        <path d="M0,33.508L0,-0C0,-0.714 0.39,-1.073 1.17,-1.073L18.534,-1.073C19.216,-1.073 19.558,-0.697 19.558,0.049C19.558,0.375 19.46,0.658 19.265,0.902C19.07,1.146 18.826,1.268 18.534,1.268L2.438,1.268L2.438,15.608L10.193,15.608C10.486,15.608 10.73,15.723 10.925,15.949C11.12,16.176 11.217,16.454 11.217,16.778C11.217,17.495 10.876,17.851 10.193,17.851L2.438,17.851L2.438,32.24L18.534,32.24C18.826,32.24 19.07,32.362 19.265,32.606C19.46,32.85 19.558,33.135 19.558,33.459C19.558,34.208 19.216,34.581 18.534,34.581L1.17,34.581C0.39,34.581 0,34.222 0,33.508" style="fill:white;fill-rule:nonzero;"/>
    </g>
    <g transform="matrix(5.55556,0,0,5.55556,767.625,1405.42)">
        <path d="M0,33.46L0,-0.097C0,-0.779 0.405,-1.121 1.219,-1.121C2.031,-1.121 2.438,-0.779 2.438,-0.097L2.438,18.144L17.412,-0.731C17.573,-0.989 17.851,-1.121 18.241,-1.121C18.563,-1.121 18.865,-0.989 19.143,-0.731C19.416,-0.47 19.558,-0.177 19.558,0.147C19.558,0.408 19.475,0.603 19.314,0.732L8.436,14.292L20.728,32.826C20.857,32.955 20.923,33.136 20.923,33.362C20.923,33.687 20.784,33.972 20.509,34.216C20.231,34.46 19.914,34.581 19.558,34.581C19.168,34.581 18.856,34.386 18.631,33.996L6.826,16.34L2.438,21.804L2.438,33.46C2.438,34.174 2.031,34.533 1.219,34.533C0.405,34.533 0,34.174 0,33.46" style="fill:white;fill-rule:nonzero;"/>
    </g>
    <g transform="matrix(5.55556,0,0,5.55556,968.951,1456.1)">
        <path d="M0,15.462C0,20.728 2.453,23.364 7.363,23.364C9.737,23.364 11.566,22.705 12.848,21.389C14.136,20.07 14.774,18.095 14.774,15.462L14.774,-0C14.774,-2.633 14.136,-4.608 12.848,-5.924C11.566,-7.243 9.737,-7.901 7.363,-7.901C2.453,-7.901 0,-5.266 0,-0L0,15.462ZM-2.438,15.462L-2.438,-0C-2.438,-3.542 -1.555,-6.136 0.219,-7.78C1.989,-9.42 4.369,-10.242 7.363,-10.242C10.323,-10.242 12.702,-9.42 14.506,-7.78C16.31,-6.136 17.212,-3.542 17.212,-0L17.212,15.462C17.212,19.007 16.31,21.598 14.506,23.242C12.702,24.882 10.323,25.704 7.363,25.704C4.369,25.704 1.989,24.882 0.219,23.242C-1.555,21.598 -2.438,19.007 -2.438,15.462" style="fill:white;fill-rule:nonzero;"/>
    </g>
    <g transform="matrix(5.55556,0,0,5.55556,1144.25,1592.93)">
        <path d="M0,-33.8C0,-34.124 0.141,-34.385 0.414,-34.58C0.692,-34.775 1.009,-34.873 1.365,-34.873C1.921,-34.873 2.277,-34.629 2.438,-34.141L11.854,-3.315L21.216,-34.141C21.347,-34.629 21.669,-34.873 22.191,-34.873C22.552,-34.873 22.874,-34.765 23.166,-34.553C23.459,-34.344 23.61,-34.09 23.61,-33.795C23.61,-33.732 23.6,-33.673 23.59,-33.624C23.576,-33.576 23.571,-33.534 23.571,-33.503L13.234,0.2C13.068,0.781 12.614,1.073 11.863,1.073C11.147,1.073 10.693,0.781 10.498,0.196L0.049,-33.507C0.02,-33.571 0,-33.668 0,-33.8" style="fill:white;fill-rule:nonzero;"/>
    </g>
    <g transform="matrix(5.55556,0,0,5.55556,1356.95,1405.15)">
        <path d="M0,33.508L0,-0.049C0,-0.731 0.41,-1.073 1.224,-1.073C2.033,-1.073 2.443,-0.731 2.443,-0.049L2.443,33.508C2.443,34.222 2.033,34.581 1.224,34.581C0.41,34.581 0,34.222 0,33.508" style="fill:white;fill-rule:nonzero;"/>
    </g>
    <g transform="matrix(5.55556,0,0,5.55556,1465.6,1456.1)">
        <path d="M0,15.462L0,-0C0,-3.511 0.922,-6.095 2.76,-7.755C4.593,-9.413 6.992,-10.242 9.952,-10.242C12.941,-10.242 15.311,-9.469 17.047,-7.926C18.787,-6.38 19.655,-4.517 19.655,-2.34C19.655,-1.721 19.558,-1.299 19.363,-1.073C19.168,-0.843 18.861,-0.731 18.436,-0.731C17.627,-0.731 17.217,-1.073 17.217,-1.755C17.188,-2.438 17.066,-3.079 16.852,-3.681C16.642,-4.283 16.301,-4.932 15.828,-5.632C15.36,-6.331 14.618,-6.885 13.609,-7.292C12.6,-7.697 11.381,-7.901 9.952,-7.901C4.944,-7.901 2.443,-5.266 2.443,-0L2.443,15.462C2.443,20.728 4.993,23.364 10.098,23.364C11.269,23.364 12.283,23.217 13.146,22.925C14.009,22.632 14.677,22.298 15.145,21.925C15.618,21.55 16.008,21.03 16.315,20.362C16.627,19.697 16.827,19.168 16.925,18.778C17.022,18.388 17.12,17.851 17.217,17.169C17.286,16.486 17.676,16.145 18.388,16.145C18.846,16.145 19.168,16.259 19.363,16.486C19.558,16.715 19.655,17.154 19.655,17.802C19.655,19.948 18.773,21.803 16.998,23.364C15.228,24.924 12.829,25.704 9.806,25.704C6.88,25.704 4.515,24.875 2.711,23.217C0.902,21.559 0,18.973 0,15.462" style="fill:white;fill-rule:nonzero;"/>
    </g>
    <g transform="matrix(5.55556,0,0,5.55556,1497.53,1342.54)">
        <path d="M0,2.339C-0.643,2.339 -1.167,1.815 -1.167,1.169C-1.167,0.524 -0.643,0 0,0L8.162,0C8.805,0 9.329,0.524 9.329,1.169C9.329,1.815 8.805,2.339 8.162,2.339L0,2.339Z" style="fill:white;fill-rule:nonzero;"/>
    </g>
    <g transform="matrix(5.55556,0,0,5.55556,1292.3,663.154)">
        <path d="M0,14.967C0,14.324 0.297,14.002 0.891,14.002C1.535,14.002 1.856,14.275 1.856,14.819C1.856,16.23 2.389,17.344 3.455,18.161C4.519,18.978 5.855,19.387 7.465,19.387C9.273,19.387 10.665,18.892 11.644,17.901C12.62,16.912 13.11,15.413 13.11,13.408L13.11,12.702C13.11,10.77 12.62,9.322 11.644,8.356C10.665,7.391 9.284,6.908 7.502,6.908L2.413,6.908C1.697,6.908 1.337,6.661 1.337,6.166C1.337,6.116 1.342,6.005 1.355,5.831C1.368,5.658 1.374,5.546 1.374,5.497L2.105,-5.383C2.153,-5.928 2.386,-6.202 2.801,-6.202L12.925,-6.202C13.394,-6.202 13.63,-5.905 13.63,-5.31C13.63,-4.716 13.394,-4.419 12.925,-4.419L3.826,-4.419L3.182,5.2L7.519,5.2C9.767,5.2 11.569,5.806 12.928,7.02C14.287,8.233 14.967,10.127 14.967,12.702L14.967,13.408C14.967,16.082 14.28,18.044 12.906,19.294C11.532,20.545 9.719,21.169 7.465,21.169C5.187,21.169 3.373,20.575 2.024,19.387C0.674,18.198 0,16.726 0,14.967" style="fill:white;fill-rule:nonzero;"/>
    </g>
    <g transform="matrix(5.55556,0,0,5.55556,502.014,47.5806)">
        <path d="M0,18.199C-2.84,18.199 -5.517,16.709 -6.998,14.18L-14.129,2.01C-14.47,1.429 -14.274,0.682 -13.693,0.342C-13.113,0 -12.365,0.195 -12.025,0.777L-4.894,12.948C-3.647,15.075 -1.195,16.151 1.223,15.628C6.372,14.508 11.559,13.561 16.643,12.813C17.311,12.717 17.93,13.176 18.027,13.842C18.126,14.509 17.665,15.128 16.999,15.225C11.97,15.966 6.836,16.902 1.741,18.011C1.16,18.137 0.577,18.199 0,18.199" style="fill:white;fill-rule:nonzero;"/>
    </g>
    <g transform="matrix(5.55556,0,0,5.55556,760.312,0)">
        <path d="M0,13.665C-0.674,13.665 -1.22,13.119 -1.22,12.445L-1.22,1.22C-1.22,0.546 -0.674,0 0,0C0.674,0 1.22,0.546 1.22,1.22L1.22,12.445C1.22,13.119 0.674,13.665 0,13.665" style="fill:white;fill-rule:nonzero;"/>
    </g>
    <g transform="matrix(5.55556,0,0,5.55556,1018.61,47.5694)">
        <path d="M0,18.201C-0.576,18.201 -1.16,18.139 -1.742,18.013C-6.834,16.905 -11.969,15.968 -17,15.227C-17.666,15.13 -18.127,14.511 -18.029,13.844C-17.93,13.179 -17.312,12.72 -16.644,12.815C-11.559,13.563 -6.371,14.511 -1.223,15.63C1.182,16.154 3.646,15.079 4.893,12.95L12.023,0.779C12.367,0.199 13.107,0 13.693,0.344C14.273,0.684 14.469,1.431 14.129,2.012L6.998,14.182C5.518,16.711 2.84,18.201 0,18.201" style="fill:white;fill-rule:nonzero;"/>
    </g>
    <g transform="matrix(5.55556,0,0,5.55556,933.208,115.608)">
        <path d="M0,-17.32L-4.02,-4.08C-5.06,-0.64 -8.26,1.7 -11.8,1.7C-12.06,1.7 -12.32,1.68 -12.58,1.66C-16.68,1.26 -23.34,0.6 -31.12,0.68L-31.22,0.68C-36.86,0.68 -45.38,1.24 -49.679,1.66C-49.919,1.68 -50.179,1.7 -50.439,1.7C-53.979,1.7 -57.179,-0.64 -58.219,-4.08L-62.239,-17.32C-62.439,-17.96 -62.059,-18.64 -61.419,-18.84C-60.779,-19.02 -60.099,-18.66 -59.899,-18.02L-55.9,-4.78C-55.099,-2.2 -52.599,-0.52 -49.9,-0.78C-45.539,-1.18 -36.84,-1.76 -31.12,-1.76C-23.24,-1.8 -16.5,-1.16 -12.5,-0.78C-9.62,-0.5 -7.14,-2.2 -6.36,-4.78L-2.34,-18.02C-2.14,-18.66 -1.46,-19.02 -0.82,-18.84C-0.18,-18.64 0.18,-17.96 0,-17.32" style="fill:white;fill-rule:nonzero;"/>
    </g>
    <g transform="matrix(5.55556,0,0,5.55556,1304.09,993.934)">
        <path d="M0,-118.879C-1.04,-98.999 -10.36,-29.6 -86.679,28.48C-86.899,28.66 -87.159,28.74 -87.419,28.74C-87.799,28.74 -88.159,28.56 -88.399,28.26C-88.799,27.72 -88.699,26.96 -88.159,26.54C-65.799,9.52 -49.24,-8.46 -37.02,-25.88C-37.16,-26.06 -37.42,-26.44 -37.68,-26.8C-37.96,-27.2 -38.24,-27.6 -38.38,-27.76C-39.06,-28.76 -39.66,-29.72 -40.2,-30.78C-40.52,-31.46 -40.78,-32.08 -41.02,-32.72C-41.38,-33.74 -41.64,-34.72 -41.8,-35.68C-41.86,-36.04 -41.92,-36.42 -41.96,-36.78L-50.26,-39.14C-50.76,-39.28 -51.12,-39.72 -51.16,-40.24C-51.36,-43.62 -53.14,-47.82 -54.699,-50.02C-56.739,-52.94 -60.119,-54.4 -60.979,-54.32C-61.279,-54.24 -61.419,-54.019 -61.579,-52.86C-61.679,-52.14 -61.839,-50.92 -63.039,-50.76C-65.839,-50.54 -67.559,-52.92 -69.079,-54.999C-70.159,-56.479 -71.259,-57.999 -72.339,-58.1C-72.599,-57.92 -73.019,-56.68 -73.199,-56.14C-73.519,-55.1 -73.799,-54.28 -74.579,-53.959C-78.079,-52.519 -79.699,-55.84 -80.759,-58.019C-81.599,-59.78 -82.219,-60.92 -82.959,-60.76C-83.099,-60.62 -83.219,-59.88 -83.279,-59.479C-83.339,-59.039 -83.419,-58.62 -83.519,-58.26C-84.079,-56.559 -85.359,-56.499 -85.899,-56.559C-86.119,-56.58 -86.319,-56.66 -86.479,-56.78C-90.079,-59.4 -91.639,-59.359 -92.059,-59.28C-92.239,-57.88 -91.339,-56.72 -88.579,-53.979C-87.779,-53.479 -87.559,-52.86 -87.499,-52.4C-87.379,-51.2 -88.399,-50.3 -89.279,-49.499C-89.599,-49.22 -90.079,-48.8 -90.239,-48.56C-90.019,-48.02 -88.659,-46.54 -80.439,-46C-80.119,-45.979 -79.819,-45.84 -79.619,-45.62C-77.259,-43.04 -79.219,-41.18 -80.179,-40.28C-80.999,-39.5 -81.259,-39.16 -81.139,-38.78C-81.139,-38.78 -81.019,-38.52 -80.239,-38.2C-77.339,-37.02 -70.359,-37.18 -67.839,-38.5C-67.679,-38.58 -67.499,-38.62 -67.319,-38.64C-66.219,-38.66 -65.459,-38.36 -65.039,-37.7C-64.319,-36.64 -64.919,-35.34 -65.499,-34.08C-65.699,-33.64 -66.059,-32.84 -66.099,-32.48C-63.539,-30.16 -58.28,-32.06 -54.5,-35.1C-53.979,-35.52 -53.22,-35.44 -52.799,-34.92C-52.38,-34.38 -52.46,-33.62 -52.98,-33.2C-55.959,-30.8 -59.759,-28.98 -63.079,-28.98C-64.979,-28.98 -66.719,-29.58 -68.059,-30.98C-68.119,-31.04 -68.179,-31.1 -68.219,-31.18C-68.979,-32.36 -68.299,-33.82 -67.699,-35.1C-67.579,-35.38 -67.399,-35.76 -67.279,-36.06C-70.779,-34.66 -78.019,-34.58 -81.319,-36C-82.499,-36.52 -83.219,-37.22 -83.479,-38.1C-84.019,-39.98 -82.719,-41.22 -81.859,-42.04C-80.939,-42.92 -80.759,-43.14 -81.099,-43.6C-86.339,-43.98 -92.179,-44.9 -92.699,-48.32C-92.879,-49.56 -91.839,-50.499 -90.919,-51.32C-90.679,-51.52 -90.339,-51.84 -90.119,-52.08C-90.139,-52.1 -90.179,-52.12 -90.199,-52.14C-93.319,-55.26 -95.059,-57.16 -94.399,-60.039C-94.379,-60.22 -94.259,-60.479 -94.099,-60.7C-94.059,-60.76 -94.019,-60.839 -93.959,-60.9C-93.759,-61.12 -93.499,-61.3 -93.159,-61.479C-91.359,-62.18 -88.899,-61.42 -85.779,-59.28C-85.739,-59.479 -85.719,-59.66 -85.679,-59.839C-85.519,-60.959 -85.219,-62.82 -83.419,-63.16C-80.799,-63.68 -79.539,-61.14 -78.559,-59.099C-77.319,-56.539 -76.739,-55.86 -75.759,-56.14C-75.679,-56.34 -75.579,-56.64 -75.519,-56.88C-75.039,-58.32 -74.299,-60.74 -72.119,-60.519C-69.939,-60.3 -68.499,-58.34 -67.119,-56.44C-66.059,-55.019 -65.059,-53.64 -63.979,-53.28C-63.839,-54.3 -63.519,-56.28 -61.419,-56.7C-59.639,-57.059 -55.199,-54.999 -52.699,-51.44C-51.04,-49.06 -49.26,-44.94 -48.799,-41.26L-41.98,-39.32C-41.96,-39.58 -41.92,-39.84 -41.88,-40.1C-41.78,-40.62 -41.68,-41.08 -41.54,-41.54C-41.22,-42.6 -40.94,-43.66 -40.68,-44.76L-40.28,-46.78L-40.02,-48.66L-39.96,-50.4L-40.06,-51.94C-42.54,-54.22 -43.4,-55.499 -43.48,-55.64L-44.08,-56.58L-44.84,-57.38L-45.68,-58.08L-46.66,-58.7L-47.799,-59.24L-49.14,-59.76C-49.66,-59.88 -50.319,-60.059 -50.98,-60.22C-52.02,-60.38 -53.179,-60.479 -54.699,-60.479L-55.799,-60.479C-57.099,-60.479 -58.42,-60.479 -59.759,-60.579L-59.839,-60.579C-59.879,-60.579 -59.92,-60.579 -59.959,-60.599C-59.999,-60.599 -60.02,-60.599 -60.059,-60.62C-60.859,-60.72 -61.559,-60.82 -62.279,-60.979L-62.839,-61.16C-63.159,-61.26 -63.479,-61.359 -63.779,-61.499L-64.719,-61.94C-65.399,-62.339 -65.899,-62.7 -66.439,-63.099L-67.539,-64.039L-68.519,-65.099L-69.359,-66.24L-70.059,-67.44L-70.619,-68.679L-71.039,-69.979L-71.339,-71.26L-71.499,-72.859C-72.599,-74.24 -73.819,-75.28 -75.159,-75.959C-78.039,-74.139 -81.899,-74.479 -85.899,-76.959C-85.919,-76.979 -85.959,-76.999 -85.979,-77.019C-86.159,-77.119 -86.319,-77.239 -86.499,-77.359C-93.839,-83.999 -95.079,-90.579 -92.539,-93.679C-90.279,-96.439 -84.739,-97.079 -75.899,-90.599L-75.839,-90.539C-75.779,-90.499 -75.719,-90.439 -75.659,-90.379L-75.659,-90.359C-72.959,-87.999 -71.519,-84.899 -71.739,-81.859C-71.779,-81.219 -72.319,-80.719 -72.959,-80.719L-73.039,-80.719C-73.719,-80.779 -74.219,-81.359 -74.179,-82.019C-74.019,-84.359 -75.199,-86.779 -77.419,-88.679C-77.439,-88.699 -77.459,-88.719 -77.459,-88.739C-77.479,-88.739 -77.479,-88.759 -77.499,-88.759C-84.399,-93.759 -89.059,-94.059 -90.659,-92.139C-92.439,-89.939 -90.799,-84.539 -84.979,-79.259C-84.939,-79.239 -84.819,-79.159 -84.679,-79.079C-84.659,-79.079 -84.659,-79.059 -84.639,-79.059C-81.259,-76.939 -78.119,-76.679 -76.039,-78.32C-75.679,-78.599 -75.219,-78.659 -74.819,-78.499C-73.399,-77.899 -72.099,-77.019 -70.919,-75.839C-70.139,-78.559 -68.379,-83.259 -64.819,-87.619C-67.959,-90.879 -68.759,-95.119 -69.219,-97.479C-70.039,-101.779 -68.439,-106.419 -66.959,-107.459C-65.179,-108.679 -63.539,-107.519 -62.699,-106.919C-62.239,-107.939 -62.519,-109.619 -62.839,-111.399C-63.219,-113.699 -63.639,-116.099 -62.299,-117.799C-60.979,-119.519 -58.679,-118.419 -57.319,-117.739C-57.099,-117.639 -56.819,-117.499 -56.62,-117.419C-55.76,-117.939 -55.839,-118.839 -56.799,-121.479C-57.579,-123.619 -58.559,-126.259 -56.339,-127.819C-54.839,-128.879 -53.299,-127.799 -52.38,-127.139C-52.22,-127.039 -52.079,-126.939 -51.92,-126.839C-51.14,-131.519 -49.64,-133.119 -48.48,-133.619C-48.08,-133.799 -47.74,-133.839 -47.4,-133.859L-47.4,-133.839L-47.24,-133.839C-47.1,-133.819 -46.98,-133.799 -46.86,-133.739C-46.68,-133.699 -46.52,-133.619 -46.38,-133.519C-43.96,-132.019 -43.8,-129.459 -43.74,-125.059L-43.74,-124.959C-43.4,-124.939 -42.96,-124.979 -42.64,-124.999C-41.42,-125.099 -40.02,-125.219 -39.24,-124.219C-37.2,-121.539 -40.4,-116.859 -43.9,-112.579C-43.82,-111.979 -43.54,-111.979 -42.26,-112.019C-41.08,-112.079 -39.28,-112.159 -38.32,-110.459C-38.02,-109.959 -37.76,-109.099 -38.22,-107.919C-39.32,-104.999 -44.4,-101.359 -47.82,-99.899C-47.4,-99.739 -46.88,-99.599 -46.5,-99.479C-44.8,-98.999 -43.04,-98.499 -42.7,-97.059C-42.64,-96.679 -42.62,-96.339 -42.68,-96.019C-42.68,-95.959 -42.68,-95.879 -42.7,-95.819L-42.7,-95.799C-43.08,-93.779 -45.32,-93.119 -47.94,-92.379C-51.4,-91.379 -55.719,-90.139 -57.599,-85.599C-57.799,-85.139 -58.259,-84.859 -58.739,-84.859C-58.879,-84.859 -59.04,-84.899 -59.199,-84.959C-59.819,-85.219 -60.119,-85.919 -59.859,-86.539C-57.52,-92.159 -52.36,-93.639 -48.6,-94.719C-47.08,-95.159 -45.2,-95.699 -45.1,-96.259C-45.08,-96.299 -45.08,-96.359 -45.08,-96.399C-45.44,-96.659 -46.5,-96.959 -47.16,-97.139C-48.82,-97.619 -50.4,-98.059 -50.74,-99.399C-50.86,-99.899 -50.84,-100.699 -49.92,-101.599C-49.78,-101.719 -49.64,-101.819 -49.46,-101.879C-46.4,-102.919 -41.32,-106.599 -40.5,-108.779C-40.4,-108.999 -40.38,-109.179 -40.42,-109.259C-40.62,-109.599 -41.02,-109.639 -42.16,-109.599C-43.46,-109.539 -46.18,-109.419 -46.38,-112.899C-46.4,-113.219 -46.3,-113.519 -46.1,-113.759C-40.96,-119.979 -40.82,-121.979 -41.12,-122.619C-41.4,-122.659 -42.04,-122.599 -42.46,-122.579C-43.66,-122.479 -45,-122.379 -45.78,-123.299C-46.08,-123.639 -46.36,-124.239 -46.18,-125.179C-46.24,-129.139 -46.44,-130.559 -47.58,-131.359C-47.94,-131.079 -49.04,-129.979 -49.64,-125.619C-49.66,-125.419 -49.76,-125.219 -49.88,-125.039C-50.22,-124.619 -51.16,-123.699 -52.74,-124.499C-53.079,-124.659 -53.42,-124.899 -53.78,-125.159C-54.12,-125.379 -54.799,-125.819 -54.959,-125.819C-55.579,-125.379 -55.179,-124.139 -54.52,-122.319C-53.679,-120.039 -52.42,-116.599 -55.9,-115.059C-56.639,-114.719 -57.4,-115.079 -58.379,-115.559C-58.879,-115.799 -60.099,-116.379 -60.439,-116.279C-61.059,-115.439 -60.739,-113.599 -60.419,-111.799C-59.999,-109.259 -59.499,-106.379 -61.479,-104.579C-62.499,-103.739 -63.539,-104.499 -64.099,-104.919C-65.019,-105.599 -65.279,-105.639 -65.559,-105.459C-66.119,-104.959 -67.499,-101.439 -66.819,-97.939C-66.359,-95.519 -65.579,-91.439 -62.339,-88.659L-62.339,-88.639C-61.839,-88.199 -61.779,-87.439 -62.219,-86.939L-62.219,-86.919C-67.399,-81.079 -68.899,-74.099 -69.059,-73.179L-69.059,-73.159L-69.079,-72.719L-68.939,-71.659L-68.359,-69.559L-67.899,-68.559L-67.319,-67.579L-66.619,-66.639L-65.839,-65.78L-64.919,-64.999C-64.519,-64.7 -64.079,-64.379 -63.559,-64.079L-62.819,-63.72C-62.619,-63.66 -62.359,-63.559 -62.099,-63.479L-61.639,-63.339C-61.319,-63.28 -60.939,-63.2 -60.559,-63.139C-59.879,-64.999 -58.759,-67.659 -57.9,-69.339C-59.999,-71.679 -61.019,-75.78 -58.9,-80.399C-58.879,-80.479 -58.839,-80.559 -58.799,-80.639C-58.799,-80.659 -58.799,-80.679 -58.78,-80.699C-54.219,-88.599 -49.26,-92.179 -45.5,-90.259C-41.52,-88.239 -41.28,-81.139 -44.92,-72.959L-44.92,-72.939C-44.92,-72.919 -44.94,-72.899 -44.94,-72.899C-44.94,-72.879 -44.96,-72.879 -44.96,-72.859C-46.58,-69.099 -49.38,-66.899 -52.579,-66.899L-52.88,-66.899C-53.54,-66.94 -54.059,-67.499 -54.04,-68.18C-54,-68.839 -53.42,-69.359 -52.76,-69.339C-50.52,-69.22 -48.4,-70.959 -47.16,-73.919C-47.16,-73.919 -47.16,-73.939 -47.14,-73.939L-47.12,-73.959C-47.12,-73.979 -47.1,-73.999 -47.1,-74.019C-43.9,-81.259 -44.34,-86.939 -46.6,-88.099C-48.5,-89.059 -52.439,-86.799 -56.62,-79.559C-56.62,-79.539 -56.639,-79.499 -56.66,-79.479C-58.52,-75.479 -57.479,-72.079 -55.599,-70.479C-55.14,-70.099 -55.04,-69.439 -55.339,-68.919C-56.04,-67.76 -57.219,-65.019 -58.04,-62.959C-57.319,-62.92 -56.579,-62.94 -55.799,-62.92L-54.679,-62.92C-53.02,-62.9 -51.74,-62.8 -50.52,-62.599C-49.76,-62.44 -49.08,-62.26 -48.38,-62.059L-46.84,-61.479L-45.46,-60.82L-44.22,-60.039L-43.16,-59.14L-42.22,-58.14C-42.18,-58.1 -42.14,-58.039 -42.1,-57.979L-41.44,-56.959C-41.42,-56.94 -40.86,-56.1 -39.28,-54.58L-36.7,-60.32C-36.46,-60.88 -35.84,-61.16 -35.28,-60.999C-31.8,-60.059 -25.82,-61.8 -22.98,-64.579C-21.58,-65.959 -21.06,-67.399 -21.44,-68.879C-21.58,-68.919 -22.54,-69.159 -23.06,-69.28C-24.4,-69.619 -25.78,-69.959 -26.18,-71.179C-26.42,-71.939 -26.18,-72.719 -25.48,-73.539C-25.36,-73.679 -25.22,-73.8 -25.04,-73.879C-22.46,-75.019 -17.9,-80.479 -17.04,-83.459C-16.8,-84.239 -16.94,-84.479 -16.94,-84.479C-17.16,-84.799 -17.56,-84.819 -18.7,-84.659C-19.98,-84.479 -22.68,-84.099 -23.2,-87.559C-23.24,-87.859 -23.18,-88.179 -23,-88.439C-18.28,-95.199 -18.56,-97.179 -18.82,-97.679C-19.14,-97.699 -19.76,-97.579 -20.14,-97.519C-21.34,-97.319 -22.68,-97.079 -23.54,-97.939C-23.86,-98.259 -24.2,-98.819 -24.1,-99.779C-24.5,-103.679 -24.82,-105.079 -26,-105.799C-25.94,-105.839 -25.9,-105.859 -25.86,-105.879C-25.82,-105.879 -25.76,-105.879 -25.72,-105.899C-25.04,-106.019 -24.6,-106.639 -24.74,-107.299C-24.82,-107.799 -25.18,-108.159 -25.64,-108.279C-25.5,-108.259 -25.3,-108.199 -25.1,-108.099C-22.48,-106.779 -22.1,-104.239 -21.66,-99.879C-21.64,-99.839 -21.64,-99.799 -21.64,-99.779C-21.32,-99.799 -20.86,-99.859 -20.56,-99.919C-19.34,-100.119 -17.96,-100.359 -17.1,-99.439C-14.78,-96.919 -17.72,-91.779 -20.7,-87.459C-20.56,-86.879 -20.28,-86.899 -19.02,-87.059C-17.86,-87.239 -16.06,-87.479 -14.94,-85.879C-14.4,-85.119 -14.32,-84.099 -14.68,-82.839C-15.64,-79.379 -20.24,-73.76 -23.5,-71.939C-23.18,-71.82 -22.76,-71.72 -22.48,-71.659C-21.1,-71.32 -19.54,-70.919 -19.1,-69.559C-18.48,-67.139 -19.24,-64.839 -21.28,-62.839C-24.48,-59.68 -30.56,-57.78 -34.88,-58.44L-37.62,-52.3L-37.52,-50.4L-37.6,-48.459L-37.86,-46.38L-38.3,-44.24C-38.58,-43.04 -38.88,-41.94 -39.2,-40.82C-39.32,-40.44 -39.42,-40.08 -39.48,-39.7C-39.58,-39.12 -39.6,-38.5 -39.6,-37.74L-39.6,-37.72C-39.58,-37.2 -39.5,-36.66 -39.4,-36.1C-39.26,-35.28 -39.04,-34.42 -38.72,-33.56C-38.5,-32.98 -38.28,-32.42 -38,-31.84C-37.54,-30.94 -37.02,-30.08 -36.42,-29.22C-36.32,-29.1 -36,-28.66 -35.68,-28.2C-35.64,-28.14 -35.58,-28.06 -35.54,-28C-7.78,-68.499 -3.14,-105.439 -2.42,-118.999C-2.3,-121.359 -3.6,-123.499 -5.74,-124.499C-18.18,-130.239 -51.5,-143.759 -91.819,-145.039C-91.879,-145.039 -94.799,-145.179 -97.879,-145.179C-101.179,-145.179 -103.879,-145.039 -103.919,-145.039C-138.899,-143.939 -168.858,-133.459 -183.598,-127.319C-184.218,-127.059 -184.918,-127.339 -185.178,-127.979C-185.438,-128.599 -185.158,-129.299 -184.538,-129.559C-169.638,-135.779 -139.359,-146.359 -104.019,-147.479C-104.019,-147.479 -101.239,-147.619 -97.879,-147.619C-94.739,-147.619 -91.759,-147.479 -91.719,-147.479C-50.98,-146.179 -17.3,-132.519 -4.7,-126.699C-1.66,-125.299 0.18,-122.219 0,-118.879" style="fill:white;fill-rule:nonzero;"/>
    </g>
    <g transform="matrix(5.55556,0,0,5.55556,1166.65,400.16)">
        <path d="M0,-0.42C-0.08,-0.92 -0.44,-1.28 -0.9,-1.4C-0.92,-1.4 -0.94,-1.42 -0.96,-1.4C-0.98,-1.42 -1.02,-1.42 -1.04,-1.42L-1.08,-1.42C-1.74,-1.5 -2.32,-1 -2.38,-0.34C-2.44,0.28 -2.02,0.84 -1.44,0.98C-1.38,1.02 -1.32,1.04 -1.26,1.08C-1.2,1.04 -1.16,1.02 -1.12,1C-1.08,1 -1.02,1 -0.98,0.98C-0.3,0.86 0.14,0.24 0,-0.42" style="fill:white;fill-rule:nonzero;"/>
    </g>
    <g transform="matrix(5.55556,0,0,5.55556,1166.65,400.16)">
        <path d="M0,-0.42C-0.08,-0.92 -0.44,-1.28 -0.9,-1.4C-0.92,-1.4 -0.94,-1.42 -0.96,-1.4L-0.98,-1.42L-1.08,-1.42C-1.74,-1.5 -2.32,-1 -2.38,-0.34C-2.44,0.28 -2.02,0.84 -1.44,0.98C-1.38,1.02 -1.32,1.04 -1.26,1.08C-1.2,1.04 -1.16,1.02 -1.12,1C-1.08,1 -1.02,1 -0.98,0.98C-0.3,0.86 0.14,0.24 0,-0.42" style="fill:white;fill-rule:nonzero;"/>
    </g>
    <g transform="matrix(5.55556,0,0,5.55556,559.386,495.753)">
        <path d="M0,26.077C-0.517,26.077 -0.997,25.746 -1.162,25.227C-1.366,24.586 -1.012,23.9 -0.37,23.695C1.917,22.967 3.552,20.495 3.896,17.243C4.37,12.773 2.328,6.54 -4.822,2.452C-5.406,2.118 -5.609,1.373 -5.275,0.788C-4.94,0.203 -4.198,0 -3.611,0.335C4.558,5.006 6.876,12.265 6.321,17.5C5.874,21.728 3.594,24.992 0.37,26.019C0.247,26.058 0.122,26.077 0,26.077" style="fill:white;fill-rule:nonzero;"/>
    </g>
    <g transform="matrix(5.55556,0,0,5.55556,88.2744,745.687)">
        <path d="M0,-14.967C0,-15.239 0.149,-15.561 0.446,-15.932L3.194,-20.463C3.417,-20.859 3.714,-21.058 4.085,-21.058C4.63,-21.058 4.903,-20.798 4.903,-20.277L4.903,5.274C4.903,5.819 4.593,6.091 3.974,6.091C3.355,6.091 3.046,5.819 3.046,5.274L3.046,-17.27L1.486,-14.596C1.338,-14.274 1.114,-14.113 0.817,-14.113C0.594,-14.113 0.402,-14.199 0.241,-14.373C0.08,-14.546 0,-14.744 0,-14.967" style="fill:white;fill-rule:nonzero;"/>
    </g>
    <g transform="matrix(5.55556,0,0,5.55556,164.042,732.18)">
        <path d="M0,-9.882C0,-7.883 0.476,-6.438 1.429,-5.55C2.383,-4.661 3.775,-4.217 5.608,-4.217C9.346,-4.217 11.216,-5.994 11.216,-9.549L11.216,-10.882C11.216,-12.882 10.727,-14.375 9.749,-15.362C8.771,-16.35 7.378,-16.844 5.571,-16.844C3.788,-16.844 2.414,-16.35 1.448,-15.362C0.483,-14.375 0,-12.882 0,-10.882L0,-9.882ZM-1.857,2.505C-1.857,1.887 -1.572,1.577 -1.002,1.577C-0.359,1.577 -0.037,1.862 -0.037,2.431C-0.037,3.768 0.507,4.858 1.597,5.699C2.686,6.541 4.023,6.963 5.608,6.963C9.346,6.963 11.216,4.958 11.216,0.947L11.216,-5.142C10.003,-3.386 8.071,-2.508 5.423,-2.508C0.569,-2.508 -1.857,-4.96 -1.857,-9.862L-1.857,-10.827C-1.857,-13.525 -1.183,-15.501 0.167,-16.751C1.517,-18.001 3.318,-18.627 5.571,-18.627C7.848,-18.627 9.668,-18.001 11.03,-16.751C12.392,-15.501 13.073,-13.525 13.073,-10.827L13.073,0.946C13.073,3.645 12.392,5.619 11.03,6.87C9.668,8.12 7.848,8.745 5.571,8.745C3.292,8.745 1.485,8.139 0.149,6.925C-1.188,5.712 -1.857,4.239 -1.857,2.505" style="fill:white;fill-rule:nonzero;"/>
    </g>
    <g transform="matrix(5.55556,0,0,5.55556,1419.44,671.722)">
        <path d="M0,11.883C0,15.858 1.875,17.845 5.625,17.845C9.377,17.845 11.252,15.858 11.252,11.883L11.252,10.882C11.252,8.883 10.775,7.44 9.817,6.55C8.861,5.662 7.465,5.217 5.625,5.217C1.875,5.217 0,6.995 0,10.55L0,11.883ZM-1.858,11.828L-1.858,0.056C-1.858,-2.643 -1.175,-4.618 0.187,-5.868C1.552,-7.119 3.377,-7.744 5.662,-7.744C7.948,-7.744 9.761,-7.137 11.1,-5.924C12.44,-4.711 13.108,-3.238 13.108,-1.505C13.108,-0.886 12.824,-0.577 12.254,-0.577C11.586,-0.577 11.252,-0.861 11.252,-1.431C11.252,-2.767 10.712,-3.857 9.631,-4.699C8.551,-5.54 7.216,-5.961 5.625,-5.961C1.875,-5.961 0,-3.956 0,0.054L0,6.143C1.216,4.387 3.141,3.509 5.775,3.509C10.665,3.509 13.108,5.96 13.108,10.863L13.108,11.828C13.108,14.528 12.433,16.502 11.079,17.752C9.728,19.002 7.909,19.627 5.625,19.627C3.377,19.627 1.569,19.002 0.199,17.752C-1.173,16.502 -1.858,14.528 -1.858,11.828" style="fill:white;fill-rule:nonzero;"/>
    </g>
    <g transform="matrix(5.55556,0,0,5.55556,539.322,664.161)">
        <path d="M0,-29.98C-0.18,-30.1 -0.4,-30.14 -0.6,-30.14C-0.7,-30.14 -0.82,-30.12 -0.92,-30.1C-1.02,-30.08 -1.12,-30.04 -1.2,-29.98C-1.3,-29.92 -1.38,-29.86 -1.46,-29.78C-1.5,-29.78 -1.52,-29.74 -1.54,-29.72C-5.4,-25.18 -16.34,-21.84 -25.38,-26.7C-25.96,-27.02 -26.7,-26.78 -27.02,-26.2C-27.34,-25.6 -27.12,-24.86 -26.52,-24.54C-17.36,-19.6 -5.78,-22.04 -0.4,-27.34L-0.38,-27.36C-0.26,-27.3 -0.16,-27.22 -0.06,-27.14C0.22,-26.96 0.5,-26.78 0.76,-26.58C1.02,-26.4 1.26,-26.22 1.5,-26C1.88,-25.72 2.22,-25.42 2.54,-25.12C2.82,-24.88 3.06,-24.64 3.3,-24.38L3.32,-24.36C3.62,-24.06 3.9,-23.74 4.14,-23.42C4.34,-23.18 4.54,-22.94 4.7,-22.7C4.82,-22.56 4.9,-22.42 5,-22.28C5.1,-22.14 5.18,-22 5.28,-21.86C5.46,-21.58 5.64,-21.3 5.78,-21C6.02,-20.58 6.22,-20.16 6.4,-19.74C6.78,-18.9 7.04,-18.04 7.22,-17.22C7.32,-16.8 7.38,-16.4 7.44,-16C7.48,-15.78 7.5,-15.56 7.52,-15.34L7.52,-15.32C7.54,-15 7.56,-14.66 7.56,-14.34C7.56,-13.92 7.54,-13.5 7.5,-13.08C7.16,-9.82 5.52,-7.34 3.24,-6.62C2.6,-6.42 2.24,-5.72 2.44,-5.08C2.62,-4.56 3.1,-4.24 3.62,-4.24C3.74,-4.24 3.86,-4.26 3.98,-4.3C7.2,-5.32 9.48,-8.58 9.94,-12.82C10.48,-18.04 8.16,-25.3 0,-29.98M-24.66,-20.64C-32.32,-24.68 -35.6,-21.62 -36.68,-20.1C-38.06,-18.14 -38.4,-16.96 -38.64,-14.96C-38.72,-14.28 -38.24,-13.68 -37.58,-13.6C-36.92,-13.5 -36.3,-14 -36.22,-14.66C-36.02,-16.3 -35.84,-17.06 -34.68,-18.7C-33.48,-20.42 -31.06,-20.66 -27.9,-19.44C-30.56,-17.04 -32.32,-11.9 -32.44,-7.34C-32.44,-7.24 -32.42,-7.14 -32.4,-7.04C-32.42,-6.96 -32.42,-6.88 -32.4,-6.8C-32.04,-4.2 -31.02,-1.98 -29.36,-0.22C-29.12,0.02 -28.8,0.16 -28.46,0.16C-28.16,0.16 -27.86,0.04 -27.62,-0.18C-27.14,-0.64 -27.12,-1.42 -27.58,-1.9C-28.88,-3.28 -29.7,-5.04 -29.98,-7.12C-29.98,-7.16 -30,-7.2 -30,-7.22L-30,-7.28C-29.86,-12.4 -27.38,-17.9 -25,-18.36C-24.48,-18.46 -24.1,-18.86 -24.02,-19.38C-23.94,-19.88 -24.2,-20.4 -24.66,-20.64" style="fill:white;fill-rule:nonzero;"/>
    </g>
    <g transform="matrix(5.55556,0,0,5.55556,587.1,925.383)">
        <path d="M0,-80.28L0.04,-80.42L0.1,-80.52L0,-80.28ZM31.18,-127.659C30.5,-127.659 29.96,-127.1 29.96,-126.44L29.96,44.779L29.7,44.919C0.88,24.599 -19.1,2.439 -32.96,-18.64C-32.94,-18.66 -32.92,-18.701 -32.92,-18.721C-32.72,-19.361 -31.76,-21.601 -31.12,-23.101C-30.84,-23.76 -30.6,-24.321 -30.46,-24.66C-30.34,-24.961 -30.34,-25.301 -30.46,-25.601C-30.6,-25.901 -30.84,-26.14 -31.16,-26.26C-31.44,-26.361 -31.76,-26.381 -32.2,-26.401C-32.42,-26.421 -32.66,-26.421 -32.9,-26.461C-33.18,-26.52 -33.44,-26.581 -33.66,-26.66C-33.66,-26.66 -33.68,-26.68 -33.7,-26.68C-34.12,-26.861 -34.36,-27.12 -34.46,-27.561C-34.84,-28.941 -34.26,-32.76 -26.5,-42.9C-26.16,-42.88 -25.78,-42.86 -25.36,-42.86C-24.84,-42.86 -24.26,-42.9 -23.72,-42.961C-23.42,-42.981 -23.12,-43.02 -22.82,-43.06C-23.02,-40.28 -22.72,-38 -21.94,-36.26C-24.1,-35.02 -26,-32.76 -26.78,-30.341C-28.06,-26.321 -26.48,-24.12 -24.6,-23.401C-24.06,-23.2 -23.48,-23.101 -22.86,-23.101C-20.44,-23.101 -17.58,-24.62 -16.26,-27.581C-15.62,-28.981 -15.02,-30.62 -15.06,-32.441C-9.24,-32.78 -0.88,-38.06 8.78,-47.54C11.5,-48.52 14.1,-49.02 15.56,-49.14C17.66,-49.22 19.1,-48.64 19.86,-47.42C21.28,-45.14 20.54,-40.5 18,-35.881C17.78,-35.481 17.48,-35 17.12,-34.54C18.34,-40.4 18.04,-43.82 16.24,-44.7C15.62,-45 14.38,-45.24 12.88,-43.461C11.36,-41.66 10.58,-40.28 9.56,-38.54C9.2,-37.88 8.78,-37.16 8.28,-36.34C7.76,-35.481 7.2,-34.5 6.62,-33.481C3.7,-28.341 0.06,-21.941 -5,-19.861C-6.96,-19.041 -8.98,-18.981 -11.1,-19.64L-11.14,-19.64C-11.22,-19.68 -11.3,-19.7 -11.38,-19.72C-11.44,-19.741 -11.48,-19.761 -11.54,-19.761C-11.96,-19.821 -12.32,-19.7 -12.6,-19.421C-15.3,-16.741 -18.56,-14.501 -21.82,-13.101C-22.44,-12.821 -22.72,-12.101 -22.44,-11.481C-22.24,-11.021 -21.8,-10.761 -21.32,-10.761C-21.16,-10.761 -21,-10.781 -20.84,-10.861C-17.54,-12.281 -14.22,-14.521 -11.42,-17.18C-10.38,-16.901 -9.32,-16.761 -8.3,-16.761C-6.86,-16.761 -5.44,-17.041 -4.06,-17.62C1.76,-20.001 5.64,-26.801 8.74,-32.28C9.32,-33.28 9.86,-34.24 10.38,-35.08C10.88,-35.921 11.3,-36.64 11.68,-37.32C12.66,-39.02 13.38,-40.26 14.74,-41.88C14.92,-42.1 15.08,-42.24 15.18,-42.32C15.4,-41.68 15.78,-39.6 14.52,-34.04C14.3,-33.06 13.82,-31 15.28,-30.441C15.44,-30.381 15.6,-30.361 15.76,-30.361C17.68,-30.361 19.86,-34.22 20.12,-34.7C22.52,-39.04 24.24,-45 21.94,-48.7C21.08,-50.1 19.24,-51.72 15.42,-51.56C13.46,-51.42 10.92,-50.84 8.6,-50.06C7.32,-52.22 7.62,-55.78 7.96,-59.86C8.58,-67.02 9.34,-75.96 0.98,-81.4C0.88,-81.46 0.76,-81.54 0.66,-81.6C0.56,-81.66 0.44,-81.72 0.32,-81.74C-13.66,-84.72 -21.74,-84.72 -35.78,-81.72C-37.88,-81.14 -39.54,-79.9 -41.18,-77.68C-42.08,-76.32 -42.38,-74.84 -42.56,-73.88C-48.84,-72.4 -50.86,-68.98 -51.44,-66.32C-52.6,-60.88 -50.1,-56.28 -44.76,-54C-44.14,-53.74 -43.42,-54.02 -43.16,-54.64C-42.9,-55.26 -43.18,-55.98 -43.8,-56.24C-45.82,-57.1 -50.36,-59.74 -49.04,-65.8C-48.42,-68.76 -45.74,-70.78 -41.28,-71.66C-40.84,-71.76 -40.48,-72.08 -40.34,-72.52C-40.3,-72.72 -40.24,-72.98 -40.2,-73.28C-40.04,-74.1 -39.84,-75.3 -39.18,-76.28C-37.9,-78 -36.68,-78.94 -35.2,-79.36C-21.52,-82.28 -13.98,-82.28 -0.34,-79.38L-0.36,-79.36C6.8,-74.7 6.12,-66.92 5.54,-60.06C5.16,-55.72 4.8,-51.6 6.56,-48.76C-2.94,-39.56 -11.46,-34.381 -16.3,-34.881C-16.68,-34.921 -17.08,-34.78 -17.34,-34.481C-17.6,-34.2 -17.7,-33.8 -17.62,-33.421C-17.32,-32.02 -17.56,-30.62 -18.48,-28.581C-19.54,-26.22 -22.18,-25.081 -23.72,-25.68C-25.32,-26.28 -24.76,-28.62 -24.46,-29.601C-23.86,-31.461 -22.06,-33.76 -19.82,-34.56C-19.46,-34.7 -19.18,-34.981 -19.06,-35.361C-18.94,-35.72 -19,-36.12 -19.24,-36.441C-20.28,-37.86 -20.64,-40.3 -20.32,-43.54C-20.06,-43.6 -19.78,-43.66 -19.52,-43.74L-19.14,-43.84C-14.44,-45.24 -11.04,-48.32 -9.56,-52.5C-9.56,-52.52 -9.56,-52.54 -9.54,-52.54C-8.66,-55.32 -8.48,-59.64 -12.28,-65.04C-11.28,-65.28 -10.26,-65.6 -9.26,-66.06C-6.76,-61.7 -5.94,-58.84 -6.62,-56.8C-6.84,-56.16 -6.48,-55.48 -5.84,-55.26C-5.2,-55.06 -4.52,-55.4 -4.3,-56.04C-3.32,-58.98 -4.36,-62.64 -7.74,-68.26C-8.08,-68.82 -8.78,-69.02 -9.34,-68.72C-11.1,-67.82 -12.86,-67.28 -14.6,-67.14C-15.04,-67.12 -15.44,-66.82 -15.62,-66.42C-15.8,-66 -15.74,-65.5 -15.44,-65.16C-11.96,-60.94 -10.72,-56.84 -11.86,-53.3C-13.5,-48.68 -17.56,-46.84 -19.8,-46.18L-20.16,-46.08C-20.66,-45.94 -21.16,-45.82 -21.68,-45.7C-22.42,-45.56 -23.18,-45.461 -23.96,-45.38C-25.18,-45.24 -26.38,-45.32 -26.84,-45.4C-28.82,-45.74 -30.48,-46.78 -31.56,-48.34C-32.8,-50.14 -33.16,-52.5 -32.64,-55.2C-32.1,-57.88 -30.54,-60.64 -27.98,-63.42C-25.34,-62.44 -22.86,-62.22 -19.84,-62.66C-18.14,-59.2 -17.3,-56.18 -17.34,-53.7C-17.36,-53.1 -17.42,-52.54 -17.52,-52.02C-17.66,-51.36 -17.24,-50.7 -16.58,-50.58C-15.9,-50.44 -15.28,-50.86 -15.14,-51.52C-15,-52.2 -14.92,-52.9 -14.9,-53.64C-14.84,-56.74 -15.9,-60.42 -18.08,-64.58C-18.32,-65.04 -18.84,-65.3 -19.38,-65.22C-22.68,-64.6 -25.04,-64.82 -27.84,-65.98C-28.3,-66.16 -28.84,-66.06 -29.18,-65.7C-32.4,-62.4 -34.36,-59.02 -35.02,-55.66C-35.68,-52.32 -35.18,-49.3 -33.58,-46.96C-32.48,-45.38 -30.92,-44.18 -29.1,-43.5C-35.1,-35.5 -37.64,-30.081 -36.82,-26.941C-36.52,-25.801 -35.8,-24.961 -34.74,-24.481C-34.72,-24.461 -34.68,-24.461 -34.66,-24.441C-34.58,-24.401 -34.5,-24.381 -34.42,-24.361C-34.04,-24.2 -33.7,-24.12 -33.4,-24.061L-33.36,-24.061C-33.82,-22.981 -34.26,-21.961 -34.6,-21.16C-65.139,-69.02 -64.399,-110.62 -64.379,-111.22C-64.36,-111.9 -64.879,-112.46 -65.559,-112.48C-66.279,-112.5 -66.799,-111.98 -66.819,-111.3C-66.819,-111.08 -67.379,-88.58 -55.96,-58C-45.42,-29.8 -22.26,11.259 28.3,46.919C28.74,47.219 29.26,47.379 29.78,47.379C30.2,47.379 30.62,47.299 31,47.099C31.86,46.639 32.4,45.759 32.4,44.779L32.4,-126.44C32.4,-127.1 31.86,-127.659 31.18,-127.659" style="fill:white;fill-rule:nonzero;"/>
    </g>
    <g transform="matrix(5.55556,0,0,5.55556,359.213,421.828)">
        <path d="M0,0.14C0.28,0.02 0.62,0 0.92,0.1C0.62,0 0.3,0 0,0.14" style="fill:white;fill-rule:nonzero;"/>
    </g>
    <g transform="matrix(5.55556,0,0,5.55556,663.766,413.605)">
        <path d="M0,-7.78C-0.24,-6.62 -0.68,-5.44 -1.34,-4.26C-0.34,-2.6 -0.88,-0.16 -2.88,2.12C-4.14,3.58 -5.86,4.52 -7.46,4.62L-7.76,4.62C-8.34,4.62 -8.88,4.5 -9.36,4.28C-9.4,4.32 -9.44,4.34 -9.48,4.38C-9.84,4.68 -10.18,4.96 -10.52,5.22C-10.76,5.94 -11.06,6.62 -11.34,7.3L-11.64,8C-11.84,8.46 -12.3,8.74 -12.78,8.74C-12.94,8.74 -13.1,8.72 -13.24,8.66C-13.86,8.4 -14.16,7.68 -13.9,7.06L-13.58,6.32C-13.26,5.6 -12.94,4.86 -12.74,4.14C-12.68,3.88 -12.5,3.64 -12.26,3.46C-11.86,3.2 -11.46,2.86 -11.04,2.5C-10.84,2.32 -10.6,2.14 -10.38,1.98C-10.34,1.92 -10.28,1.88 -10.22,1.84C-10.12,1.76 -10,1.7 -9.88,1.66C-9.88,1.66 -9.86,1.64 -9.84,1.64C-9.72,1.6 -9.6,1.58 -9.48,1.58C-9.26,1.58 -9.04,1.64 -8.86,1.76C-8.78,1.8 -8.72,1.84 -8.66,1.9C-8.34,2.16 -7.92,2.2 -7.62,2.18C-6.66,2.12 -5.56,1.48 -4.72,0.52C-3.56,-0.8 -2.82,-2.52 -3.62,-3.24C-4.08,-3.62 -4.18,-4.3 -3.86,-4.8C-3.12,-5.98 -2.62,-7.14 -2.38,-8.26C-2.32,-8.62 -2.42,-8.98 -2.7,-9.32C-3.12,-9.84 -3.84,-10.18 -4.52,-10.18C-5.58,-10.18 -7.66,-9.38 -7.94,-6.32C-8,-5.68 -8.46,-5.26 -9.16,-5.2C-9.8,-5.22 -10.32,-5.7 -10.36,-6.34C-10.4,-6.8 -11,-7.3 -11.54,-7.3C-12.04,-7.3 -12.4,-6.98 -12.4,-6.7C-12.4,-6.42 -12.32,-6.32 -12.02,-5.96C-11.88,-5.78 -11.72,-5.58 -11.58,-5.38C-11.24,-4.84 -11.36,-4.12 -11.88,-3.74C-12.38,-3.36 -13.1,-3.44 -13.52,-3.9C-13.74,-4.14 -13.92,-4.38 -14.1,-4.58C-15.04,-5.7 -15.32,-6.04 -16.56,-6.04C-17.96,-6.04 -19.14,-4.96 -19.14,-3.68C-19.14,-2.92 -18.94,-2.72 -17.26,-1.88C-16.9,-1.72 -16.52,-1.52 -16.12,-1.3C-15.52,-0.98 -15.3,-0.24 -15.62,0.34C-15.94,0.94 -16.68,1.16 -17.28,0.84C-17.64,0.64 -18,0.46 -18.34,0.3C-19.62,-0.34 -20.94,-1 -21.38,-2.46C-22.72,-1.4 -24.14,-0.62 -24.94,-0.3C-25.56,-0.04 -26.26,-0.34 -26.52,-0.96C-26.78,-1.58 -26.48,-2.3 -25.86,-2.54C-23.64,-3.46 -20.2,-6.18 -20.2,-7.94C-20.2,-9.52 -20.68,-10.6 -21.64,-11.1C-22.8,-11.74 -24.68,-11.48 -26.22,-10.48C-26.72,-10.16 -27.4,-10.24 -27.8,-10.7C-28.2,-11.14 -28.2,-11.82 -27.82,-12.28C-27.72,-12.4 -27.6,-12.54 -27.46,-12.66C-27.24,-12.88 -27.08,-13.04 -27.08,-13.16C-27.08,-13.3 -27.22,-13.44 -27.36,-13.46C-28.1,-11.82 -29.7,-10.74 -31.54,-10.74C-33.3,-10.74 -34.9,-11.82 -35.66,-13.4C-35.86,-13.38 -35.96,-13.28 -35.96,-13.16C-35.96,-13.04 -35.8,-12.88 -35.56,-12.66C-35.44,-12.54 -35.34,-12.42 -35.24,-12.32C-34.82,-11.86 -34.82,-11.18 -35.22,-10.7C-35.62,-10.24 -36.3,-10.14 -36.8,-10.48C-38.34,-11.48 -40.24,-11.74 -41.42,-11.1C-42.36,-10.58 -42.84,-9.52 -42.84,-7.94C-42.84,-6.18 -39.4,-3.46 -37.18,-2.54C-36.56,-2.3 -36.26,-1.58 -36.52,-0.96C-36.7,-0.48 -37.16,-0.2 -37.64,-0.2C-37.8,-0.2 -37.96,-0.22 -38.1,-0.3C-38.9,-0.62 -40.32,-1.4 -41.66,-2.44C-42.12,-1 -43.42,-0.34 -44.7,0.3C-45.04,0.46 -45.4,0.64 -45.76,0.84C-45.96,0.94 -46.16,0.98 -46.34,0.98C-46.78,0.98 -47.2,0.76 -47.419,0.34C-47.74,-0.24 -47.52,-0.98 -46.92,-1.3C-46.52,-1.52 -46.14,-1.72 -45.8,-1.88C-44.1,-2.72 -43.9,-2.92 -43.9,-3.68C-43.9,-4.98 -45.06,-6.04 -46.5,-6.04C-47.72,-6.04 -48,-5.7 -48.94,-4.58L-49.5,-3.92C-49.919,-3.44 -50.64,-3.36 -51.14,-3.74C-51.66,-4.14 -51.78,-4.84 -51.439,-5.38C-51.299,-5.58 -51.16,-5.76 -51.02,-5.94C-50.72,-6.3 -50.64,-6.4 -50.64,-6.7C-50.64,-7.02 -51.02,-7.3 -51.48,-7.3C-52.02,-7.3 -52.64,-6.8 -52.679,-6.34C-52.72,-5.7 -53.24,-5.2 -53.88,-5.2C-54.52,-5.2 -55.059,-5.68 -55.099,-6.32C-55.359,-9.38 -57.439,-10.18 -58.52,-10.18C-59.199,-10.18 -59.919,-9.84 -60.339,-9.34C-60.619,-9 -60.719,-8.64 -60.639,-8.26C-60.439,-7.26 -59.999,-6.2 -59.339,-5.1C-59.219,-4.9 -59.16,-4.68 -59.16,-4.46C-59.16,-4.36 -59.179,-4.26 -59.199,-4.16C-59.219,-4.06 -59.259,-3.98 -59.319,-3.9C-59.339,-3.84 -59.379,-3.78 -59.419,-3.74C-59.459,-3.68 -59.52,-3.62 -59.579,-3.56C-60.4,-2.84 -60.4,-1.06 -59.079,0.46C-58.239,1.42 -57.14,2.04 -56.199,2.12C-55.74,2.14 -55.38,2.04 -55.12,1.82C-55.02,1.74 -54.919,1.66 -54.819,1.62C-54.539,1.5 -54.199,1.48 -53.9,1.58C-53.799,1.62 -53.699,1.66 -53.6,1.74C-53.579,1.76 -53.559,1.78 -53.539,1.78C-53.179,2.1 -52.62,2.4 -52.1,2.68C-51.6,2.96 -51.12,3.22 -50.76,3.48C-50.539,3.64 -50.38,3.88 -50.299,4.14C-50.12,4.74 -49.86,5.38 -49.6,6C-43.3,4.52 -37.52,3.82 -32,3.82C-28.66,3.84 -25.08,4.12 -21.32,4.66C-20.66,4.76 -20.2,5.38 -20.3,6.04C-20.4,6.72 -21.02,7.16 -21.68,7.08C-25.32,6.54 -28.8,6.28 -32,6.26C-37.58,6.18 -43.52,7.02 -50.02,8.62C-50.12,8.64 -50.22,8.64 -50.32,8.64C-50.799,8.64 -51.24,8.36 -51.439,7.9L-51.74,7.18C-52,6.56 -52.28,5.92 -52.5,5.24C-52.74,5.1 -53,4.96 -53.26,4.82C-53.62,4.62 -54,4.42 -54.38,4.18C-54.88,4.44 -55.439,4.56 -56.039,4.56C-56.14,4.56 -56.26,4.56 -56.359,4.54C-57.979,4.44 -59.639,3.52 -60.919,2.06C-62.759,-0.06 -63.099,-2.82 -61.879,-4.62C-62.439,-5.7 -62.839,-6.76 -63.039,-7.78C-63.259,-8.88 -62.959,-9.98 -62.219,-10.88C-61.339,-11.94 -59.919,-12.62 -58.52,-12.62C-56.539,-12.62 -54.439,-11.46 -53.36,-9.2C-52.799,-9.54 -52.16,-9.74 -51.48,-9.74C-50.22,-9.74 -49.12,-9.06 -48.56,-8.1C-48.02,-8.34 -47.36,-8.48 -46.5,-8.48C-46.06,-8.48 -45.66,-8.42 -45.26,-8.32C-45.14,-11.4 -43.54,-12.72 -42.58,-13.24C-41.36,-13.9 -39.86,-14.06 -38.34,-13.72C-38.06,-14.96 -36.94,-15.9 -35.6,-15.9C-35.06,-15.9 -34.52,-15.74 -34.06,-15.42C-33.82,-15.26 -33.66,-15.02 -33.58,-14.76C-33.3,-13.84 -32.46,-13.18 -31.54,-13.18C-30.6,-13.18 -29.76,-13.8 -29.5,-14.72C-29.42,-15 -29.24,-15.24 -29,-15.4C-27.3,-16.52 -25.08,-15.48 -24.7,-13.72C-23.18,-14.06 -21.68,-13.9 -20.48,-13.24C-19.5,-12.72 -17.9,-11.4 -17.78,-8.32C-17.38,-8.42 -16.98,-8.48 -16.56,-8.48C-15.68,-8.48 -15.02,-8.34 -14.46,-8.1C-13.92,-9.06 -12.82,-9.74 -11.54,-9.74C-10.88,-9.74 -10.22,-9.54 -9.66,-9.2C-8.58,-11.44 -6.5,-12.62 -4.52,-12.62C-3.12,-12.62 -1.68,-11.94 -0.8,-10.88C-0.06,-9.96 0.22,-8.86 0,-7.78" style="fill:white;fill-rule:nonzero;"/>
    </g>
    <g transform="matrix(5.55556,0,0,5.55556,1158.65,635.605)">
        <path d="M0,-41.4C0.06,-41.36 0.12,-41.34 0.18,-41.3C-0.28,-40.94 -1.22,-39.66 -1.4,-35.4C-1.4,-35.18 -1.46,-34.98 -1.58,-34.8C-1.86,-34.34 -2.72,-33.32 -4.42,-34.02C-4.76,-34.16 -5.12,-34.36 -5.5,-34.58C-5.84,-34.78 -6.52,-35.16 -6.74,-35.12C-7.3,-34.62 -6.8,-33.44 -5.96,-31.66C-4.92,-29.48 -3.34,-26.16 -6.68,-24.32C-7.4,-23.92 -8.2,-24.22 -9.22,-24.6C-9.74,-24.8 -10.98,-25.26 -11.3,-25.12C-11.78,-24.36 -11.76,-22.72 -11.76,-20.8C-11.74,-17.08 -11.74,-12 -15.1,-6.36C-15.92,-5.02 -13.5,-1.28 -12.46,0.32L-12.32,0.58C-12.04,1.16 -12.28,1.9 -12.88,2.199C-13.48,2.48 -14.22,2.22 -14.52,1.64C-16.22,-0.98 -18.78,-4.96 -17.2,-7.62C-14.18,-12.66 -14.18,-17.18 -14.2,-20.78C-14.2,-23.2 -14.22,-25.1 -13.3,-26.5C-12.14,-28.3 -9.76,-27.42 -8.36,-26.88C-8.12,-26.8 -7.8,-26.68 -7.6,-26.62C-6.78,-27.2 -6.94,-28.04 -8.16,-30.62C-9.14,-32.68 -10.34,-35.22 -8.3,-36.98C-6.88,-38.18 -5.26,-37.24 -4.28,-36.68C-4.1,-36.58 -3.94,-36.48 -3.78,-36.4C-3.5,-40.22 -2.56,-42.6 -0.96,-43.5C-0.58,-43.72 -0.22,-43.78 -0.02,-43.8C0.1,-43.84 0.24,-43.82 0.36,-43.8C-0.3,-43.88 -0.88,-43.38 -0.94,-42.72C-1,-42.1 -0.58,-41.54 0,-41.4" style="fill:white;fill-rule:nonzero;"/>
    </g>
</svg>
