<?xml version="1.0" encoding="UTF-8" standalone="no"?><!DOCTYPE svg PUBLIC "-//W3C//DTD SVG 1.1//EN" "http://www.w3.org/Graphics/SVG/1.1/DTD/svg11.dtd"><svg width="100%" height="100%" viewBox="0 0 1575 1599" version="1.1" xmlns="http://www.w3.org/2000/svg" xmlns:xlink="http://www.w3.org/1999/xlink" xml:space="preserve" xmlns:serif="http://www.serif.com/" style="fill-rule:evenodd;clip-rule:evenodd;stroke-linejoin:round;stroke-miterlimit:2;"><g><path d="M0,1542l0,-85.9c0,-19.678 4.906,-34.089 14.761,-43.222c9.833,-9.111 22.972,-13.678 39.417,-13.678c16.794,-0 30.178,4.294 40.105,12.867c9.928,8.589 14.912,19.561 14.912,32.927c-0,4.7 -2.273,7.045 -6.773,7.045c-4.333,-0 -6.605,-1.9 -6.783,-5.689c-3.078,-22.756 -16.794,-34.144 -41.189,-34.144c-27.278,-0 -40.906,14.638 -40.906,43.894l0,85.9c0,29.256 13.628,43.9 40.906,43.9c13.194,0 23.35,-3.661 30.489,-10.972c7.139,-7.328 10.7,-18.3 10.7,-32.928l-0,-36.311l-40.106,-0c-1.627,-0 -2.927,-0.622 -3.927,-1.9c-0.989,-1.256 -1.489,-2.706 -1.489,-4.333c-0,-1.623 0.5,-3.073 1.489,-4.334c1,-1.261 2.3,-1.894 3.927,-1.894l47.973,-0c1.627,-0 2.983,0.633 4.066,1.894c1.084,1.261 1.623,2.711 1.623,4.334l-0,42.544c-0,19.695 -5.012,34.089 -15.045,43.222c-10.022,9.111 -23.255,13.678 -39.7,13.678c-16.622,0 -29.856,-4.567 -39.689,-13.678c-9.855,-9.133 -14.761,-23.527 -14.761,-43.222" style="fill-rule:nonzero;"/></g><g><path d="M216.442,1537.66l70.5,-0l-35.161,-115.767l-35.339,115.767Zm-30.311,53.65c-0,-0.717 0.094,-1.261 0.267,-1.628l57.944,-187.25c1.056,-3.239 3.522,-4.861 7.394,-4.861c3.889,-0 6.367,1.667 7.428,5.011l57.845,188.645c-0,-0 0.044,0.15 0.139,0.45c0.094,0.311 0.133,0.594 0.133,0.877c-0,1.289 -0.811,2.4 -2.439,3.323c-1.622,0.933 -3.428,1.394 -5.417,1.394c-2.883,0 -4.7,-1.356 -5.416,-4.067l-13.289,-43.083l-78.072,-0l-13.139,43.033c-0.889,2.745 -2.845,4.117 -5.878,4.117c-1.961,0 -3.711,-0.544 -5.228,-1.628c-1.517,-1.083 -2.272,-2.533 -2.272,-4.333" style="fill-rule:nonzero;"/></g><g><path d="M399.118,1591.31l0,-186.428c0,-3.789 2.261,-5.689 6.772,-5.689c4.511,-0 6.772,1.9 6.772,5.689l0,179.383l79.928,0c3.439,0 5.161,2.167 5.161,6.5c0,4.339 -1.722,6.506 -5.161,6.506l-86.972,-0c-4.333,-0 -6.5,-1.995 -6.5,-5.961" style="fill-rule:nonzero;"/></g><g><path d="M577.134,1591.31l0,-186.156c0,-3.967 2.167,-5.961 6.5,-5.961l96.467,-0c3.789,-0 5.689,2.089 5.689,6.233c-0,1.811 -0.545,3.384 -1.628,4.739c-1.083,1.356 -2.439,2.033 -4.061,2.033l-89.423,0l0,79.667l43.084,0c1.628,0 2.983,0.639 4.066,1.895c1.084,1.261 1.623,2.805 1.623,4.605c-0,3.984 -1.895,5.961 -5.689,5.961l-43.084,0l0,79.939l89.423,0c1.622,0 2.978,0.678 4.061,2.034c1.083,1.355 1.628,2.938 1.628,4.738c-0,4.162 -1.9,6.234 -5.689,6.234l-96.467,-0c-4.333,-0 -6.5,-1.995 -6.5,-5.961" style="fill-rule:nonzero;"/></g><g><path d="M767.625,1591.31l0,-186.428c0,-3.789 2.25,-5.689 6.772,-5.689c4.511,0 6.772,1.9 6.772,5.689l0,101.339l83.189,-104.861c0.895,-1.433 2.439,-2.167 4.606,-2.167c1.789,0 3.467,0.734 5.011,2.167c1.517,1.45 2.306,3.078 2.306,4.878c-0,1.45 -0.461,2.533 -1.356,3.25l-60.433,75.333l68.289,102.967c0.716,0.716 1.083,1.722 1.083,2.978c-0,1.805 -0.772,3.388 -2.3,4.744c-1.544,1.356 -3.306,2.028 -5.283,2.028c-2.167,-0 -3.9,-1.084 -5.15,-3.25l-65.584,-98.089l-24.378,30.355l0,64.756c0,3.967 -2.261,5.961 -6.772,5.961c-4.522,0 -6.772,-1.994 -6.772,-5.961" style="fill-rule:nonzero;"/></g><g><path d="M968.951,1542c0,29.256 13.628,43.9 40.906,43.9c13.188,0 23.35,-3.661 30.472,-10.972c7.155,-7.328 10.7,-18.3 10.7,-32.928l-0,-85.9c-0,-14.628 -3.545,-25.6 -10.7,-32.911c-7.122,-7.328 -17.284,-10.983 -30.472,-10.983c-27.278,-0 -40.906,14.638 -40.906,43.894l0,85.9Zm-13.544,0l-0,-85.9c-0,-19.678 4.905,-34.089 14.761,-43.222c9.833,-9.111 23.055,-13.678 39.689,-13.678c16.444,-0 29.661,4.567 39.683,13.678c10.022,9.133 15.033,23.544 15.033,43.222l0,85.9c0,19.695 -5.011,34.089 -15.033,43.222c-10.022,9.111 -23.239,13.678 -39.683,13.678c-16.634,0 -29.856,-4.567 -39.689,-13.678c-9.856,-9.133 -14.761,-23.527 -14.761,-43.222" style="fill-rule:nonzero;"/></g><g><path d="M1144.25,1405.15c0,-1.8 0.783,-3.25 2.3,-4.333c1.544,-1.084 3.306,-1.628 5.283,-1.628c3.089,-0 5.067,1.356 5.961,4.067l52.312,171.255l52.011,-171.255c0.728,-2.711 2.516,-4.067 5.416,-4.067c2.006,-0 3.795,0.6 5.417,1.778c1.628,1.161 2.467,2.572 2.467,4.211c-0,0.35 -0.056,0.678 -0.111,0.95c-0.078,0.267 -0.106,0.5 -0.106,0.672l-57.428,187.239c-0.922,3.228 -3.444,4.85 -7.616,4.85c-3.978,0 -6.5,-1.622 -7.584,-4.872l-58.05,-187.239c-0.161,-0.356 -0.272,-0.895 -0.272,-1.628" style="fill-rule:nonzero;"/></g><g><path d="M1356.95,1591.31l0,-186.428c0,-3.789 2.278,-5.689 6.8,-5.689c4.494,-0 6.772,1.9 6.772,5.689l0,186.428c0,3.966 -2.278,5.961 -6.772,5.961c-4.522,-0 -6.8,-1.995 -6.8,-5.961" style="fill-rule:nonzero;"/></g><g><path d="M1465.6,1542l-0,-85.9c-0,-19.506 5.122,-33.861 15.333,-43.083c10.184,-9.211 23.511,-13.817 39.956,-13.817c16.606,-0 29.772,4.294 39.417,12.867c9.666,8.589 14.489,18.939 14.489,31.033c-0,3.439 -0.539,5.783 -1.623,7.039c-1.083,1.278 -2.789,1.9 -5.15,1.9c-4.494,-0 -6.772,-1.9 -6.772,-5.689c-0.161,-3.794 -0.839,-7.356 -2.028,-10.7c-1.166,-3.344 -3.061,-6.95 -5.689,-10.839c-2.6,-3.883 -6.722,-6.961 -12.327,-9.222c-5.606,-2.25 -12.378,-3.383 -20.317,-3.383c-27.822,-0 -41.717,14.638 -41.717,43.894l0,85.9c0,29.256 14.167,43.9 42.528,43.9c6.506,0 12.139,-0.817 16.933,-2.439c4.795,-1.628 8.506,-3.483 11.106,-5.555c2.628,-2.084 4.794,-4.973 6.5,-8.684c1.733,-3.694 2.844,-6.633 3.389,-8.8c0.539,-2.166 1.083,-5.15 1.622,-8.939c0.383,-3.794 2.55,-5.688 6.506,-5.688c2.544,-0 4.333,0.633 5.416,1.894c1.084,1.272 1.623,3.711 1.623,7.311c-0,11.922 -4.9,22.228 -14.762,30.9c-9.833,8.667 -23.161,13 -39.955,13c-16.256,0 -29.395,-4.605 -39.417,-13.817c-10.05,-9.211 -15.061,-23.577 -15.061,-43.083" style="fill-rule:nonzero;"/></g><g><path d="M1497.53,1355.53c-3.572,0 -6.483,-2.911 -6.483,-6.5c-0,-3.583 2.911,-6.494 6.483,-6.494l45.344,-0c3.573,-0 6.484,2.911 6.484,6.494c-0,3.589 -2.911,6.5 -6.484,6.5l-45.344,0Z" style="fill-rule:nonzero;"/></g><g><path d="M1292.3,746.304c0,-3.572 1.65,-5.361 4.95,-5.361c3.578,-0 5.361,1.517 5.361,4.539c0,7.839 2.961,14.028 8.883,18.567c5.912,4.538 13.334,6.811 22.278,6.811c10.045,-0 17.778,-2.75 23.217,-8.256c5.422,-5.494 8.144,-13.822 8.144,-24.961l0,-3.922c0,-10.734 -2.722,-18.778 -8.144,-24.145c-5.439,-5.361 -13.111,-8.044 -23.011,-8.044l-28.272,-0c-3.978,-0 -5.978,-1.372 -5.978,-4.122c-0,-0.278 0.028,-0.895 0.1,-1.862c0.072,-0.961 0.105,-1.583 0.105,-1.855l4.061,-60.445c0.267,-3.027 1.562,-4.55 3.867,-4.55l56.245,0c2.605,0 3.916,1.65 3.916,4.956c0,3.3 -1.311,4.95 -3.916,4.95l-50.55,-0l-3.578,53.439l24.094,-0c12.489,-0 22.5,3.367 30.05,10.111c7.55,6.739 11.328,17.261 11.328,31.567l0,3.922c0,14.856 -3.817,25.756 -11.45,32.7c-7.633,6.95 -17.706,10.417 -30.228,10.417c-12.655,-0 -22.733,-3.3 -30.228,-9.9c-7.5,-6.606 -11.244,-14.784 -11.244,-24.556" style="fill-rule:nonzero;"/></g><g><path d="M502.014,148.686c-15.778,0 -30.65,-8.278 -38.878,-22.328l-39.617,-67.611c-1.894,-3.228 -0.805,-7.378 2.423,-9.266c3.222,-1.9 7.378,-0.817 9.266,2.416l39.617,67.617c6.928,11.817 20.55,17.794 33.983,14.889c28.606,-6.222 57.423,-11.483 85.667,-15.639c3.711,-0.533 7.15,2.017 7.689,5.717c0.55,3.705 -2.011,7.144 -5.711,7.683c-27.939,4.117 -56.461,9.317 -84.767,15.478c-3.228,0.7 -6.466,1.044 -9.672,1.044" style="fill-rule:nonzero;"/></g><g><path d="M760.312,75.917c-3.744,-0 -6.778,-3.034 -6.778,-6.778l0,-62.361c0,-3.745 3.034,-6.778 6.778,-6.778c3.744,0 6.778,3.033 6.778,6.778l-0,62.361c-0,3.744 -3.034,6.778 -6.778,6.778" style="fill-rule:nonzero;"/></g><g><path d="M1018.61,148.686c-3.2,0 -6.444,-0.344 -9.678,-1.044c-28.289,-6.156 -56.816,-11.361 -84.767,-15.478c-3.7,-0.539 -6.261,-3.978 -5.716,-7.683c0.55,-3.695 3.983,-6.245 7.694,-5.717c28.25,4.155 57.073,9.422 85.673,15.639c13.361,2.911 27.05,-3.061 33.977,-14.889l39.611,-67.617c1.912,-3.222 6.023,-4.328 9.278,-2.416c3.223,1.888 4.311,6.038 2.423,9.266l-39.617,67.611c-8.222,14.05 -23.1,22.328 -38.878,22.328" style="fill-rule:nonzero;"/></g><g><path d="M933.208,19.386l-22.333,73.555c-5.778,19.111 -23.556,32.111 -43.223,32.111c-1.444,0 -2.888,-0.111 -4.333,-0.222c-22.778,-2.222 -59.778,-5.889 -103,-5.444l-0.556,-0c-31.333,-0 -78.666,3.111 -102.55,5.444c-1.333,0.111 -2.777,0.222 -4.222,0.222c-19.667,0 -37.444,-13 -43.222,-32.111l-22.333,-73.555c-1.112,-3.556 1,-7.334 4.555,-8.445c3.556,-1 7.333,1 8.445,4.556l22.216,73.555c4.45,14.334 18.339,23.667 33.334,22.223c24.227,-2.223 72.555,-5.445 104.333,-5.445c43.778,-0.222 81.222,3.334 103.444,5.445c16.001,1.555 29.778,-7.889 34.112,-22.223l22.333,-73.555c1.111,-3.556 4.889,-5.556 8.444,-4.556c3.556,1.111 5.556,4.889 4.556,8.445" style="fill-rule:nonzero;"/></g><g><path d="M1304.09,333.495c-5.778,110.444 -57.556,495.994 -481.55,818.661c-1.223,1 -2.667,1.445 -4.111,1.445c-2.112,-0 -4.112,-1 -5.445,-2.667c-2.222,-3 -1.667,-7.222 1.333,-9.555c124.223,-94.556 216.217,-194.445 284.106,-291.223c-0.778,-1 -2.222,-3.111 -3.667,-5.111c-1.555,-2.222 -3.111,-4.444 -3.888,-5.333c-3.778,-5.556 -7.112,-10.889 -10.112,-16.778c-1.777,-3.778 -3.222,-7.222 -4.555,-10.778c-2,-5.667 -3.445,-11.111 -4.333,-16.444c-0.334,-2 -0.667,-4.111 -0.889,-6.111l-46.111,-13.112c-2.778,-0.777 -4.778,-3.222 -5,-6.111c-1.112,-18.778 -11,-42.111 -19.662,-54.333c-11.333,-16.222 -30.111,-24.333 -34.888,-23.889c-1.667,0.444 -2.445,1.672 -3.334,8.111c-0.555,4 -1.444,10.778 -8.111,11.667c-15.556,1.222 -25.111,-12 -33.556,-23.55c-6,-8.222 -12.111,-16.667 -18.111,-17.228c-1.444,1 -3.777,7.889 -4.777,10.889c-1.778,5.778 -3.334,10.333 -7.667,12.117c-19.445,8 -28.445,-10.45 -34.333,-22.556c-4.667,-9.783 -8.112,-16.117 -12.223,-15.228c-0.777,0.778 -1.444,4.889 -1.777,7.117c-0.334,2.444 -0.778,4.772 -1.334,6.772c-3.111,9.45 -10.222,9.783 -13.222,9.45c-1.222,-0.117 -2.333,-0.561 -3.222,-1.228c-20,-14.555 -28.667,-14.327 -31,-13.889c-1,7.778 4,14.223 19.333,29.45c4.444,2.778 5.667,6.217 6,8.773c0.667,6.666 -5,11.666 -9.889,16.116c-1.778,1.55 -4.444,3.884 -5.333,5.217c1.222,3 8.778,11.222 54.444,14.222c1.778,0.117 3.445,0.889 4.556,2.111c13.111,14.334 2.222,24.667 -3.111,29.667c-4.556,4.333 -6,6.222 -5.334,8.333c0,0 0.667,1.445 5,3.223c16.112,6.555 54.889,5.666 68.889,-1.667c0.889,-0.445 1.889,-0.667 2.889,-0.778c6.111,-0.111 10.334,1.556 12.667,5.222c4,5.889 0.667,13.112 -2.556,20.112c-1.111,2.444 -3.111,6.888 -3.333,8.888c14.222,12.889 43.439,2.334 64.439,-14.555c2.894,-2.333 7.111,-1.889 9.45,1c2.328,3 1.883,7.222 -1.006,9.555c-16.55,13.334 -37.661,23.445 -56.105,23.445c-10.556,-0 -20.222,-3.333 -27.667,-11.111c-0.333,-0.334 -0.667,-0.667 -0.889,-1.111c-4.222,-6.556 -0.444,-14.667 2.889,-21.778c0.667,-1.556 1.667,-3.667 2.333,-5.333c-19.444,7.777 -59.666,8.222 -78,0.333c-6.555,-2.889 -10.555,-6.778 -12,-11.667c-3,-10.444 4.223,-17.333 9,-21.889c5.112,-4.889 6.112,-6.111 4.223,-8.666c-29.111,-2.112 -61.556,-7.223 -64.445,-26.223c-1,-6.889 4.778,-12.105 9.889,-16.666c1.333,-1.111 3.222,-2.889 4.444,-4.223c-0.111,-0.111 -0.333,-0.222 -0.444,-0.333c-17.333,-17.333 -27,-27.889 -23.333,-43.883c0.111,-1.006 0.777,-2.445 1.666,-3.672c0.223,-0.334 0.445,-0.773 0.778,-1.112c1.111,-1.222 2.556,-2.222 4.445,-3.216c10,-3.895 23.666,0.328 41,12.216c0.222,-1.105 0.333,-2.111 0.555,-3.105c0.889,-6.222 2.556,-16.561 12.556,-18.45c14.555,-2.889 21.555,11.222 27,22.561c6.889,14.222 10.111,17.994 15.555,16.439c0.445,-1.111 1,-2.778 1.334,-4.111c2.666,-8 6.777,-21.445 18.889,-20.217c12.111,1.217 20.111,12.106 27.777,22.661c5.889,7.895 11.445,15.556 17.445,17.556c0.778,-5.667 2.555,-16.667 14.222,-19c9.889,-1.995 34.556,9.45 48.445,29.222c9.216,13.222 19.105,36.111 21.666,56.556l37.884,10.777c0.111,-1.444 0.333,-2.889 0.555,-4.333c0.556,-2.889 1.111,-5.444 1.889,-8c1.778,-5.889 3.333,-11.778 4.778,-17.889l2.222,-11.222l1.444,-10.445l0.334,-9.666l-0.556,-8.556c-13.778,-12.666 -18.555,-19.772 -19,-20.555l-3.333,-5.223l-4.222,-4.444l-4.667,-3.889l-5.444,-3.444l-6.328,-3l-7.45,-2.889c-2.889,-0.667 -6.55,-1.661 -10.222,-2.556c-5.778,-0.889 -12.217,-1.439 -20.662,-1.439l-6.111,0c-7.222,0 -14.561,0 -22,-0.555l-0.444,-0c-0.222,-0 -0.45,-0 -0.667,-0.111c-0.222,-0 -0.339,-0 -0.555,-0.117c-4.445,-0.556 -8.334,-1.111 -12.334,-1.994l-3.111,-1.006c-1.778,-0.556 -3.555,-1.106 -5.222,-1.883l-5.222,-2.45c-3.778,-2.217 -6.556,-4.223 -9.556,-6.439l-6.111,-5.223l-5.444,-5.888l-4.667,-6.339l-3.889,-6.667l-3.111,-6.883l-2.333,-7.223l-1.667,-7.116l-0.889,-8.884c-6.111,-7.672 -12.889,-13.45 -20.333,-17.222c-16,10.111 -37.445,8.222 -59.667,-5.555c-0.111,-0.111 -0.333,-0.223 -0.444,-0.334c-1,-0.555 -1.889,-1.222 -2.889,-1.889c-40.778,-36.888 -47.667,-73.444 -33.556,-90.666c12.556,-15.334 43.333,-18.889 92.445,17.111l0.333,0.333c0.333,0.222 0.667,0.556 1,0.889l-0,0.111c15,13.111 23,30.334 21.778,47.222c-0.223,3.556 -3.223,6.334 -6.778,6.334l-0.445,-0c-3.777,-0.334 -6.555,-3.556 -6.333,-7.222c0.889,-13 -5.667,-26.445 -18,-37.001c-0.111,-0.111 -0.222,-0.222 -0.222,-0.333c-0.111,0 -0.111,-0.111 -0.222,-0.111c-38.334,-27.778 -64.223,-29.444 -73.112,-18.778c-9.888,12.222 -0.777,42.223 31.556,71.556c0.222,0.111 0.889,0.555 1.667,1c0.111,-0 0.111,0.111 0.222,0.111c18.778,11.778 36.222,13.222 47.778,4.106c2,-1.55 4.555,-1.884 6.778,-0.995c7.888,3.333 15.111,8.222 21.666,14.778c4.334,-15.111 14.111,-41.222 33.889,-65.445c-17.444,-18.111 -21.889,-41.666 -24.444,-54.777c-4.556,-23.889 4.333,-49.667 12.555,-55.445c9.889,-6.778 19,-0.333 23.667,3c2.556,-5.667 1,-15 -0.778,-24.889c-2.111,-12.778 -4.444,-26.111 3,-35.555c7.334,-9.556 20.111,-3.445 27.667,0.333c1.222,0.555 2.778,1.333 3.883,1.778c4.778,-2.889 4.339,-7.889 -0.994,-22.556c-4.334,-11.889 -9.778,-26.555 2.555,-35.222c8.334,-5.889 16.889,0.111 21.995,3.778c0.889,0.555 1.672,1.111 2.555,1.666c4.334,-26 12.667,-34.889 19.111,-37.666c2.223,-1 4.112,-1.223 6,-1.334l0,0.111l0.889,0c0.778,0.112 1.445,0.223 2.111,0.556c1,0.222 1.889,0.667 2.667,1.222c13.445,8.334 14.333,22.556 14.667,47l-0,0.556c1.889,0.111 4.333,-0.111 6.111,-0.222c6.778,-0.556 14.555,-1.223 18.889,4.333c11.333,14.889 -6.445,40.889 -25.889,64.667c0.444,3.333 2,3.333 9.111,3.111c6.556,-0.334 16.556,-0.778 21.889,8.666c1.667,2.778 3.111,7.556 0.555,14.112c-6.111,16.222 -34.333,36.444 -53.333,44.555c2.333,0.889 5.222,1.667 7.333,2.333c9.445,2.667 19.223,5.445 21.112,13.445c0.333,2.111 0.444,4 0.111,5.778c-0,0.333 -0,0.777 -0.111,1.111l-0,0.111c-2.112,11.222 -14.556,14.889 -29.112,19c-19.222,5.555 -43.216,12.444 -53.661,37.667c-1.111,2.555 -3.666,4.111 -6.333,4.111c-0.778,-0 -1.672,-0.222 -2.556,-0.556c-3.444,-1.444 -5.111,-5.333 -3.666,-8.778c12.994,-31.222 41.661,-39.444 62.55,-45.444c8.444,-2.445 18.889,-5.445 19.444,-8.556c0.111,-0.222 0.111,-0.555 0.111,-0.777c-2,-1.445 -7.889,-3.112 -11.555,-4.112c-9.222,-2.666 -18,-5.111 -19.889,-12.555c-0.667,-2.778 -0.556,-7.222 4.555,-12.222c0.778,-0.667 1.556,-1.223 2.556,-1.556c17,-5.778 45.222,-26.222 49.778,-38.333c0.555,-1.222 0.666,-2.222 0.444,-2.667c-1.111,-1.889 -3.333,-2.111 -9.666,-1.889c-7.223,0.334 -22.334,1 -23.445,-18.333c-0.111,-1.778 0.445,-3.445 1.556,-4.778c28.555,-34.556 29.333,-45.667 27.666,-49.222c-1.555,-0.222 -5.111,0.111 -7.444,0.222c-6.667,0.556 -14.111,1.111 -18.445,-4c-1.666,-1.889 -3.222,-5.222 -2.222,-10.444c-0.333,-22 -1.444,-29.889 -7.778,-34.334c-2,1.556 -8.111,7.667 -11.444,31.889c-0.111,1.111 -0.667,2.222 -1.333,3.222c-1.889,2.334 -7.111,7.445 -15.889,3c-1.884,-0.889 -3.778,-2.222 -5.778,-3.666c-1.889,-1.223 -5.661,-3.667 -6.55,-3.667c-3.444,2.444 -1.222,9.333 2.439,19.444c4.672,12.667 11.667,31.778 -7.667,40.334c-4.105,1.889 -8.333,-0.111 -13.772,-2.778c-2.778,-1.333 -9.556,-4.556 -11.444,-4c-3.445,4.667 -1.667,14.889 0.111,24.889c2.333,14.111 5.111,30.111 -5.889,40.111c-5.667,4.667 -11.445,0.445 -14.556,-1.889c-5.111,-3.778 -6.555,-4 -8.111,-3c-3.111,2.778 -10.778,22.334 -7,41.778c2.556,13.444 6.889,36.111 24.889,51.556l-0,0.111c2.778,2.444 3.111,6.666 0.667,9.444l-0,0.111c-28.778,32.445 -37.112,71.223 -38,76.334l-0,0.111l-0.112,2.444l0.778,5.889l3.222,11.667l2.556,5.555l3.222,5.445l3.889,5.222l4.333,4.772l5.112,4.339c2.222,1.661 4.666,3.445 7.555,5.111l4.111,1.995c1.111,0.333 2.556,0.894 4,1.339l2.556,0.777c1.778,0.328 3.889,0.773 6,1.111c3.778,-10.333 10,-25.111 14.772,-34.444c-11.661,-13 -17.328,-35.783 -5.555,-61.444c0.116,-0.445 0.338,-0.889 0.561,-1.334c-0,-0.111 -0,-0.222 0.105,-0.333c25.339,-43.889 52.889,-63.778 73.778,-53.111c22.111,11.222 23.444,50.666 3.222,96.111l0,0.111c0,0.111 -0.111,0.222 -0.111,0.222c0,0.111 -0.111,0.111 -0.111,0.222c-9,20.889 -24.556,33.112 -42.328,33.112l-1.672,-0c-3.667,-0.228 -6.55,-3.334 -6.444,-7.117c0.222,-3.661 3.444,-6.55 7.111,-6.439c12.444,0.661 24.222,-9 31.111,-25.444c-0,-0 -0,-0.112 0.111,-0.112l0.111,-0.111c0,-0.111 0.111,-0.222 0.111,-0.333c17.778,-40.222 15.333,-71.778 2.778,-78.222c-10.556,-5.334 -32.439,7.222 -55.667,47.444c0,0.111 -0.105,0.334 -0.222,0.445c-10.333,22.222 -4.55,41.111 5.894,50c2.55,2.111 3.106,5.777 1.445,8.666c-3.895,6.439 -10.445,21.667 -15.006,33.111c4.006,0.217 8.117,0.106 12.45,0.217l6.223,0c9.216,0.111 16.327,0.667 23.105,1.783c4.222,0.884 8,1.884 11.889,3.001l8.556,3.222l7.666,3.661l6.889,4.339l5.889,4.994l5.222,5.556c0.222,0.222 0.445,0.561 0.667,0.894l3.667,5.667c0.111,0.105 3.222,4.772 12,13.217l14.333,-31.889c1.333,-3.111 4.778,-4.667 7.889,-3.773c19.333,5.223 52.555,-4.45 68.333,-19.889c7.778,-7.666 10.667,-15.666 8.556,-23.888c-0.778,-0.223 -6.111,-1.556 -9,-2.228c-7.445,-1.884 -15.111,-3.772 -17.334,-10.55c-1.333,-4.222 0,-8.556 3.889,-13.111c0.667,-0.778 1.445,-1.45 2.445,-1.889c14.333,-6.334 39.666,-36.667 44.444,-53.222c1.334,-4.334 0.556,-5.667 0.556,-5.667c-1.222,-1.778 -3.445,-1.889 -9.778,-1c-7.111,1 -22.111,3.111 -25,-16.111c-0.222,-1.667 0.111,-3.445 1.111,-4.889c26.222,-37.556 24.667,-48.556 23.222,-51.334c-1.777,-0.111 -5.222,0.556 -7.333,0.889c-6.667,1.111 -14.111,2.445 -18.889,-2.333c-1.778,-1.778 -3.667,-4.889 -3.111,-10.222c-2.222,-21.667 -4,-29.445 -10.556,-33.445c0.334,-0.222 0.556,-0.333 0.778,-0.444c0.222,-0 0.556,-0 0.778,-0.111c3.778,-0.667 6.222,-4.111 5.444,-7.778c-0.444,-2.778 -2.444,-4.778 -5,-5.444c0.778,0.111 1.889,0.444 3,1c14.556,7.333 16.667,21.444 19.112,45.666c0.111,0.222 0.111,0.445 0.111,0.556c1.777,-0.111 4.333,-0.445 6,-0.778c6.777,-1.111 14.444,-2.444 19.222,2.667c12.889,14 -3.445,42.555 -20,66.555c0.778,3.223 2.333,3.111 9.333,2.223c6.445,-1 16.445,-2.334 22.667,6.555c3,4.222 3.444,9.889 1.444,16.889c-5.333,19.222 -30.889,50.439 -49,60.556c1.778,0.661 4.111,1.216 5.667,1.555c7.667,1.883 16.333,4.111 18.778,11.667c3.444,13.444 -0.778,26.222 -12.111,37.333c-17.778,17.55 -51.556,28.106 -75.556,24.439l-15.222,34.111l0.555,10.556l-0.444,10.783l-1.445,11.55l-2.444,11.889c-1.556,6.667 -3.222,12.778 -5,19c-0.667,2.111 -1.222,4.111 -1.556,6.222c-0.555,3.222 -0.666,6.667 -0.666,10.889l-0,0.111c0.111,2.889 0.555,5.889 1.111,9c0.778,4.556 2,9.334 3.778,14.111c1.222,3.223 2.444,6.334 4,9.556c2.555,5 5.444,9.778 8.778,14.556c0.555,0.666 2.333,3.111 4.111,5.666c0.222,0.334 0.555,0.778 0.777,1.111c154.223,-224.994 180.001,-430.217 184.001,-505.55c0.666,-13.111 -6.556,-25 -18.445,-30.556c-69.111,-31.889 -254.222,-107 -478.217,-114.111c-0.333,0 -16.556,-0.778 -33.667,-0.778c-18.333,0 -33.333,0.778 -33.555,0.778c-194.334,6.111 -360.773,64.334 -442.662,98.445c-3.444,1.444 -7.333,-0.111 -8.777,-3.667c-1.445,-3.444 0.111,-7.333 3.555,-8.778c82.778,-34.555 250.995,-93.333 447.328,-99.555c0,-0 15.445,-0.778 34.111,-0.778c17.445,-0 34,0.778 34.223,0.778c226.328,7.222 413.439,83.111 483.439,115.444c16.889,7.778 27.111,24.889 26.111,43.445" style="fill-rule:nonzero;"/></g><g><path d="M1166.65,397.827c-0.444,-2.778 -2.444,-4.778 -5,-5.445c-0.111,0 -0.222,-0.111 -0.333,0c-0.111,-0.111 -0.334,-0.111 -0.445,-0.111l-0.222,0c-3.667,-0.444 -6.889,2.333 -7.222,6c-0.334,3.445 2,6.556 5.222,7.333c0.333,0.223 0.667,0.334 1,0.556c0.333,-0.222 0.556,-0.333 0.778,-0.444c0.222,-0 0.555,-0 0.778,-0.112c3.777,-0.666 6.222,-4.111 5.444,-7.777" style="fill-rule:nonzero;"/></g><g><path d="M1166.65,397.827c-0.444,-2.778 -2.444,-4.778 -5,-5.445c-0.111,0 -0.222,-0.111 -0.333,0l-0.111,-0.111l-0.556,0c-3.667,-0.444 -6.889,2.333 -7.222,6c-0.334,3.445 2,6.556 5.222,7.333c0.333,0.223 0.667,0.334 1,0.556c0.333,-0.222 0.556,-0.333 0.778,-0.444c0.222,-0 0.555,-0 0.778,-0.112c3.777,-0.666 6.222,-4.111 5.444,-7.777" style="fill-rule:nonzero;"/></g><g><path d="M559.386,640.625c-2.872,0 -5.539,-1.839 -6.456,-4.722c-1.133,-3.561 0.834,-7.372 4.4,-8.511c12.706,-4.044 21.789,-17.778 23.7,-35.844c2.634,-24.834 -8.711,-59.462 -48.433,-82.173c-3.244,-1.855 -4.372,-5.994 -2.517,-9.244c1.862,-3.25 5.984,-4.378 9.245,-2.517c45.383,25.95 58.261,66.278 55.178,95.361c-2.484,23.489 -15.15,41.623 -33.061,47.328c-0.684,0.217 -1.378,0.322 -2.056,0.322" style="fill-rule:nonzero;"/></g><g><path d="M88.274,662.537c0,-1.511 0.828,-3.3 2.478,-5.361l15.267,-25.172c1.239,-2.2 2.889,-3.306 4.95,-3.306c3.028,0 4.544,1.444 4.544,4.339l0,141.95c0,3.028 -1.722,4.539 -5.161,4.539c-3.439,-0 -5.155,-1.511 -5.155,-4.539l-0,-125.245l-8.667,14.856c-0.822,1.789 -2.067,2.683 -3.717,2.683c-1.239,0 -2.305,-0.477 -3.2,-1.444c-0.894,-0.961 -1.339,-2.061 -1.339,-3.3" style="fill-rule:nonzero;"/></g><g><path d="M164.042,677.28c0,11.106 2.644,19.133 7.939,24.067c5.3,4.939 13.033,7.405 23.217,7.405c20.766,0 31.155,-9.872 31.155,-29.622l0,-7.406c0,-11.111 -2.717,-19.405 -8.15,-24.889c-5.433,-5.488 -13.172,-8.233 -23.211,-8.233c-9.906,0 -17.539,2.745 -22.906,8.233c-5.361,5.484 -8.044,13.778 -8.044,24.889l0,5.556Zm-10.317,68.817c0,-3.434 1.584,-5.156 4.75,-5.156c3.573,0 5.361,1.583 5.361,4.745c0,7.427 3.023,13.483 9.078,18.155c6.05,4.678 13.478,7.022 22.284,7.022c20.766,0 31.155,-11.139 31.155,-33.422l0,-33.828c-6.739,9.756 -17.472,14.634 -32.183,14.634c-26.967,-0 -40.445,-13.623 -40.445,-40.856l0,-5.361c0,-14.989 3.745,-25.967 11.245,-32.911c7.5,-6.945 17.505,-10.422 30.022,-10.422c12.65,-0 22.761,3.477 30.328,10.422c7.566,6.944 11.35,17.922 11.35,32.911l-0,65.406c-0,14.994 -3.784,25.961 -11.35,32.911c-7.567,6.944 -17.678,10.416 -30.328,10.416c-12.661,0 -22.7,-3.366 -30.122,-10.111c-7.428,-6.739 -11.145,-14.922 -11.145,-24.555" style="fill-rule:nonzero;"/></g><g><path d="M1419.44,737.739c0,22.083 10.417,33.122 31.25,33.122c20.844,-0 31.261,-11.039 31.261,-33.122l0,-5.561c0,-11.106 -2.65,-19.123 -7.972,-24.067c-5.311,-4.933 -13.067,-7.406 -23.289,-7.406c-20.833,0 -31.25,9.878 -31.25,29.628l0,7.406Zm-10.322,-0.306l-0,-65.4c-0,-14.994 3.794,-25.967 11.361,-32.911c7.583,-6.95 17.722,-10.422 30.417,-10.422c12.7,-0 22.772,3.372 30.211,10.111c7.444,6.739 11.155,14.922 11.155,24.55c0,3.439 -1.577,5.155 -4.744,5.155c-3.711,0 -5.567,-1.577 -5.567,-4.744c0,-7.422 -3,-13.478 -9.005,-18.156c-6,-4.672 -13.417,-7.011 -22.256,-7.011c-20.833,0 -31.25,11.139 -31.25,33.417l0,33.828c6.756,-9.756 17.45,-14.634 32.083,-14.634c27.167,0 40.739,13.617 40.739,40.856l0,5.361c0,15 -3.75,25.967 -11.272,32.911c-7.506,6.945 -17.611,10.417 -30.3,10.417c-12.489,-0 -22.533,-3.472 -30.144,-10.417c-7.623,-6.944 -11.428,-17.911 -11.428,-32.911" style="fill-rule:nonzero;"/></g><g><path d="M539.322,497.605c-1,-0.666 -2.222,-0.889 -3.333,-0.889c-0.556,0 -1.223,0.112 -1.778,0.223c-0.556,0.111 -1.111,0.333 -1.556,0.666c-0.555,0.334 -1,0.667 -1.444,1.111c-0.222,0 -0.333,0.223 -0.445,0.334c-21.444,25.222 -82.222,43.778 -132.444,16.778c-3.222,-1.778 -7.333,-0.445 -9.111,2.777c-1.778,3.334 -0.556,7.445 2.778,9.223c50.888,27.444 115.222,13.888 145.111,-15.556l0.111,-0.111c0.667,0.333 1.222,0.778 1.778,1.222c1.555,1 3.111,2 4.555,3.111c1.445,1 2.778,2 4.111,3.222c2.111,1.556 4,3.223 5.778,4.889c1.556,1.334 2.889,2.667 4.222,4.111l0.111,0.112c1.667,1.666 3.223,3.444 4.556,5.222c1.111,1.333 2.222,2.666 3.111,4c0.667,0.778 1.111,1.555 1.667,2.333c0.555,0.778 1,1.556 1.555,2.333c1,1.556 2,3.112 2.778,4.778c1.333,2.334 2.445,4.667 3.445,7c2.111,4.667 3.555,9.445 4.555,14c0.556,2.334 0.889,4.556 1.222,6.778c0.223,1.222 0.334,2.444 0.445,3.667l-0,0.111c0.111,1.778 0.222,3.666 0.222,5.444c0,2.334 -0.111,4.667 -0.333,7c-1.889,18.111 -11,31.889 -23.667,35.889c-3.556,1.111 -5.556,5 -4.444,8.556c1,2.889 3.666,4.666 6.555,4.666c0.667,0 1.333,-0.111 2,-0.333c17.889,-5.667 30.556,-23.778 33.111,-47.333c3,-29 -9.889,-69.334 -55.222,-95.334m-137,51.889c-42.556,-22.444 -60.778,-5.444 -66.778,3c-7.667,10.889 -9.556,17.445 -10.889,28.556c-0.444,3.778 2.222,7.111 5.889,7.555c3.667,0.556 7.111,-2.222 7.556,-5.889c1.111,-9.111 2.111,-13.333 8.555,-22.444c6.667,-9.556 20.111,-10.889 37.667,-4.111c-14.778,13.333 -24.556,41.889 -25.222,67.222c-0,0.556 0.111,1.111 0.222,1.667c-0.111,0.444 -0.111,0.889 -0,1.333c2,14.445 7.667,26.778 16.889,36.556c1.333,1.333 3.111,2.111 5,2.111c1.666,-0 3.333,-0.667 4.666,-1.889c2.667,-2.556 2.778,-6.889 0.223,-9.556c-7.223,-7.666 -11.778,-17.444 -13.334,-29c0,-0.222 -0.111,-0.444 -0.111,-0.555l0,-0.333c0.778,-28.445 14.556,-59.001 27.778,-61.556c2.889,-0.556 5,-2.778 5.444,-5.667c0.445,-2.778 -1,-5.666 -3.555,-7" style="fill-rule:nonzero;"/></g><g><path d="M587.1,479.383l0.222,-0.778l0.334,-0.556l-0.556,1.334Zm173.222,-263.217c-3.777,-0 -6.777,3.105 -6.777,6.772l-0,951.217l-1.445,0.778c-160.111,-112.889 -271.111,-236 -348.111,-353.106c0.111,-0.111 0.222,-0.339 0.222,-0.45c1.111,-3.555 6.444,-16 10,-24.333c1.556,-3.661 2.889,-6.778 3.667,-8.661c0.666,-1.672 0.666,-3.561 -0,-5.228c-0.778,-1.667 -2.111,-2.994 -3.889,-3.661c-1.556,-0.561 -3.334,-0.672 -5.778,-0.783c-1.222,-0.111 -2.556,-0.111 -3.889,-0.334c-1.555,-0.327 -3,-0.666 -4.222,-1.105c-0,-0 -0.111,-0.111 -0.222,-0.111c-2.334,-1.006 -3.667,-2.445 -4.223,-4.895c-2.111,-7.666 1.112,-28.883 44.223,-85.217c1.889,0.112 4,0.223 6.333,0.223c2.889,-0 6.111,-0.223 9.111,-0.561c1.667,-0.112 3.333,-0.328 5,-0.55c-1.111,15.444 0.556,28.111 4.889,37.777c-12,6.889 -22.556,19.445 -26.889,32.884c-7.111,22.333 1.667,34.561 12.111,38.555c3,1.117 6.222,1.667 9.667,1.667c13.444,0 29.333,-8.439 36.667,-24.889c3.555,-7.778 6.888,-16.883 6.666,-27c32.334,-1.883 78.778,-31.217 132.445,-83.883c15.111,-5.445 29.555,-8.223 37.667,-8.889c11.666,-0.445 19.666,2.778 23.888,9.555c7.889,12.667 3.778,38.445 -10.333,64.106c-1.222,2.222 -2.889,4.894 -4.889,7.45c6.778,-32.556 5.111,-51.556 -4.889,-56.445c-3.444,-1.666 -10.333,-3 -18.666,6.884c-8.445,10.005 -12.778,17.672 -18.445,27.339c-2,3.666 -4.333,7.666 -7.111,12.222c-2.889,4.772 -6,10.222 -9.222,15.883c-16.222,28.556 -36.445,64.111 -64.556,75.667c-10.889,4.556 -22.111,4.889 -33.889,1.228l-0.222,-0c-0.444,-0.222 -0.889,-0.334 -1.333,-0.445c-0.334,-0.116 -0.556,-0.227 -0.889,-0.227c-2.333,-0.334 -4.333,0.338 -5.889,1.888c-15,14.889 -33.111,27.334 -51.222,35.112c-3.445,1.555 -5,5.555 -3.445,9c1.111,2.555 3.556,4 6.222,4c0.889,-0 1.778,-0.111 2.667,-0.556c18.333,-7.889 36.778,-20.333 52.334,-35.106c5.777,1.55 11.666,2.328 17.333,2.328c8,0 15.889,-1.555 23.555,-4.772c32.334,-13.228 53.889,-51.006 71.112,-81.444c3.222,-5.556 6.222,-10.889 9.111,-15.556c2.777,-4.672 5.111,-8.667 7.222,-12.444c5.444,-9.445 9.444,-16.334 17,-25.334c1,-1.222 1.889,-2 2.444,-2.444c1.223,3.555 3.334,15.111 -3.666,46c-1.222,5.444 -3.889,16.889 4.222,19.994c0.889,0.334 1.778,0.445 2.667,0.445c10.666,-0 22.777,-21.439 24.222,-24.106c13.333,-24.111 22.889,-57.222 10.111,-77.778c-4.778,-7.778 -15,-16.778 -36.222,-15.889c-10.889,0.778 -25,4 -37.889,8.334c-7.111,-12 -5.445,-31.778 -3.556,-54.445c3.445,-39.778 7.667,-89.444 -38.778,-119.667c-0.555,-0.333 -1.222,-0.777 -1.777,-1.111c-0.556,-0.333 -1.223,-0.666 -1.889,-0.777c-77.667,-16.556 -122.556,-16.556 -200.556,0.111c-11.667,3.222 -20.889,10.111 -30,22.444c-5,7.556 -6.667,15.778 -7.667,21.111c-34.889,8.222 -46.111,27.222 -49.333,42c-6.444,30.223 7.444,55.778 37.111,68.445c3.445,1.444 7.445,-0.111 8.889,-3.556c1.444,-3.444 -0.111,-7.444 -3.556,-8.889c-11.222,-4.777 -36.444,-19.444 -29.111,-53.111c3.445,-16.444 18.334,-27.667 43.111,-32.555c2.445,-0.556 4.445,-2.334 5.223,-4.778c0.222,-1.111 0.555,-2.556 0.777,-4.222c0.889,-4.556 2,-11.223 5.667,-16.667c7.111,-9.556 13.889,-14.778 22.111,-17.111c76,-16.222 117.889,-16.222 193.667,-0.111l-0.111,0.111c39.778,25.889 36,69.111 32.778,107.222c-2.111,24.111 -4.111,47 5.666,62.778c-52.777,51.111 -100.111,79.883 -127,77.106c-2.111,-0.223 -4.333,0.561 -5.777,2.222c-1.445,1.561 -2,3.783 -1.556,5.889c1.667,7.783 0.333,15.561 -4.778,26.889c-5.889,13.116 -20.555,19.444 -29.111,16.116c-8.889,-3.333 -5.778,-16.333 -4.111,-21.783c3.333,-10.333 13.333,-23.106 25.778,-27.55c2,-0.778 3.555,-2.339 4.222,-4.45c0.667,-1.995 0.333,-4.217 -1,-6c-5.778,-7.884 -7.778,-21.439 -6,-39.439c1.444,-0.333 3,-0.667 4.444,-1.111l2.112,-0.556c26.111,-7.778 45,-24.889 53.222,-48.111c-0,-0.111 -0,-0.222 0.111,-0.222c4.889,-15.445 5.889,-39.445 -15.222,-69.445c5.555,-1.333 11.222,-3.111 16.778,-5.666c13.888,24.222 18.444,40.111 14.666,51.444c-1.222,3.556 0.778,7.334 4.334,8.556c3.555,1.111 7.333,-0.778 8.555,-4.334c5.445,-16.333 -0.333,-36.666 -19.111,-67.889c-1.889,-3.111 -5.778,-4.222 -8.889,-2.555c-9.778,5 -19.556,8 -29.222,8.778c-2.445,0.111 -4.667,1.777 -5.667,4c-1,2.333 -0.667,5.111 1,7c19.334,23.444 26.222,46.222 19.889,65.889c-9.111,25.666 -31.667,35.889 -44.111,39.555l-2,0.556c-2.778,0.778 -5.556,1.444 -8.445,2.111c-4.111,0.778 -8.333,1.328 -12.666,1.778c-6.778,0.777 -13.445,0.333 -16,-0.111c-11,-1.889 -20.222,-7.667 -26.222,-16.334c-6.889,-10 -8.889,-23.111 -6,-38.111c3,-14.889 11.666,-30.222 25.888,-45.667c14.667,5.445 28.445,6.667 45.223,4.223c9.444,19.222 14.111,36 13.889,49.777c-0.112,3.334 -0.445,6.445 -1,9.334c-0.778,3.666 1.555,7.333 5.222,8c3.778,0.778 7.222,-1.556 8,-5.222c0.778,-3.778 1.222,-7.667 1.333,-11.778c0.333,-17.222 -5.555,-37.667 -17.667,-60.778c-1.333,-2.556 -4.222,-4 -7.222,-3.556c-18.333,3.445 -31.444,2.223 -47,-4.222c-2.555,-1 -5.555,-0.444 -7.444,1.556c-17.889,18.333 -28.778,37.111 -32.445,55.778c-3.666,18.555 -0.889,35.333 8,48.333c6.111,8.778 14.778,15.444 24.889,19.222c-33.333,44.445 -47.444,74.55 -42.889,91.995c1.667,6.333 5.667,11 11.556,13.666c0.111,0.111 0.333,0.111 0.444,0.223c0.445,0.222 0.889,0.333 1.334,0.444c2.111,0.894 4,1.339 5.666,1.667l0.223,-0c-2.556,6 -5,11.666 -6.889,16.116c-169.662,-265.889 -165.551,-497 -165.439,-500.333c0.105,-3.778 -2.778,-6.889 -6.556,-7c-4,-0.112 -6.889,2.777 -7,6.555c0,1.222 -3.111,126.222 60.328,296.112c58.555,156.666 187.222,384.772 468.111,582.883c2.445,1.667 5.334,2.556 8.223,2.556c2.333,-0 4.666,-0.445 6.777,-1.556c4.778,-2.555 7.778,-7.444 7.778,-12.889l0,-951.217c0,-3.667 -3,-6.772 -6.778,-6.772" style="fill-rule:nonzero;"/></g><g><path d="M359.213,422.606c1.556,-0.667 3.444,-0.778 5.111,-0.222c-1.667,-0.556 -3.444,-0.556 -5.111,0.222" style="fill-rule:nonzero;"/></g><g><path d="M663.766,370.383c-1.333,6.444 -3.778,13 -7.444,19.555c5.555,9.223 2.555,22.778 -8.556,35.445c-7,8.111 -16.556,13.333 -25.444,13.889l-1.667,-0c-3.222,-0 -6.222,-0.667 -8.889,-1.889c-0.222,0.222 -0.444,0.333 -0.667,0.555c-2,1.667 -3.889,3.223 -5.777,4.667c-1.334,4 -3,7.778 -4.556,11.556l-1.667,3.888c-1.111,2.556 -3.666,4.112 -6.333,4.112c-0.889,-0 -1.778,-0.112 -2.556,-0.445c-3.444,-1.444 -5.111,-5.444 -3.666,-8.889l1.777,-4.111c1.778,-4 3.556,-8.111 4.667,-12.111c0.333,-1.444 1.334,-2.778 2.667,-3.778c2.222,-1.444 4.444,-3.333 6.778,-5.333c1.111,-1 2.444,-2 3.666,-2.889c0.223,-0.333 0.556,-0.556 0.889,-0.778c0.556,-0.444 1.222,-0.778 1.889,-1c0,0 0.111,-0.111 0.222,-0.111c0.667,-0.222 1.334,-0.333 2,-0.333c1.223,-0 2.445,0.333 3.445,1c0.444,0.222 0.778,0.444 1.111,0.778c1.778,1.444 4.111,1.666 5.778,1.555c5.333,-0.333 11.444,-3.889 16.111,-9.222c6.444,-7.333 10.555,-16.889 6.111,-20.889c-2.556,-2.111 -3.111,-5.889 -1.333,-8.667c4.111,-6.555 6.888,-13 8.222,-19.222c0.333,-2 -0.222,-4 -1.778,-5.889c-2.333,-2.889 -6.333,-4.778 -10.111,-4.778c-5.889,0 -17.445,4.445 -19,21.445c-0.333,3.555 -2.889,5.889 -6.778,6.222c-3.555,-0.111 -6.444,-2.778 -6.667,-6.333c-0.222,-2.556 -3.555,-5.334 -6.555,-5.334c-2.778,0 -4.778,1.778 -4.778,3.334c0,1.555 0.445,2.111 2.111,4.111c0.778,1 1.667,2.111 2.445,3.222c1.889,3 1.222,7 -1.667,9.111c-2.778,2.111 -6.778,1.667 -9.111,-0.889c-1.222,-1.333 -2.222,-2.666 -3.222,-3.777c-5.223,-6.223 -6.778,-8.112 -13.667,-8.112c-7.778,0 -14.333,6 -14.333,13.112c-0,4.222 1.111,5.333 10.444,10c2,0.888 4.111,2 6.333,3.222c3.334,1.778 4.556,5.889 2.778,9.111c-1.778,3.333 -5.889,4.555 -9.222,2.778c-2,-1.111 -4,-2.111 -5.889,-3c-7.111,-3.556 -14.444,-7.223 -16.889,-15.334c-7.444,5.889 -15.333,10.223 -19.778,12c-3.444,1.445 -7.333,-0.222 -8.777,-3.666c-1.445,-3.445 0.222,-7.445 3.666,-8.778c12.334,-5.111 31.445,-20.222 31.445,-30c-0,-8.778 -2.667,-14.778 -8,-17.556c-6.445,-3.555 -16.889,-2.111 -25.445,3.445c-2.778,1.778 -6.555,1.333 -8.778,-1.222c-2.222,-2.445 -2.222,-6.223 -0.111,-8.778c0.556,-0.667 1.223,-1.445 2,-2.111c1.223,-1.223 2.111,-2.112 2.111,-2.778c0,-0.778 -0.777,-1.556 -1.555,-1.667c-4.111,9.111 -13,15.111 -23.222,15.111c-9.778,0 -18.667,-6 -22.889,-14.778c-1.111,0.112 -1.667,0.667 -1.667,1.334c0,0.666 0.889,1.555 2.222,2.778c0.667,0.666 1.223,1.333 1.778,1.889c2.333,2.555 2.333,6.333 0.111,9c-2.222,2.555 -6,3.111 -8.778,1.222c-8.555,-5.556 -19.111,-7 -25.666,-3.445c-5.223,2.889 -7.889,8.778 -7.889,17.556c-0,9.778 19.111,24.889 31.444,30c3.445,1.333 5.111,5.333 3.667,8.778c-1,2.666 -3.556,4.222 -6.222,4.222c-0.889,-0 -1.778,-0.111 -2.556,-0.556c-4.444,-1.777 -12.333,-6.111 -19.778,-11.889c-2.555,8 -9.777,11.667 -16.889,15.223c-1.888,0.889 -3.888,1.889 -5.888,3c-1.112,0.555 -2.223,0.777 -3.223,0.777c-2.444,0 -4.777,-1.222 -5.994,-3.555c-1.783,-3.222 -0.561,-7.333 2.772,-9.111c2.222,-1.222 4.333,-2.334 6.222,-3.222c9.445,-4.667 10.556,-5.778 10.556,-10c-0,-7.223 -6.445,-13.112 -14.445,-13.112c-6.777,0 -8.333,1.889 -13.555,8.112l-3.111,3.666c-2.328,2.667 -6.334,3.111 -9.111,1c-2.889,-2.222 -3.556,-6.111 -1.661,-9.111c0.777,-1.111 1.55,-2.111 2.327,-3.111c1.667,-2 2.111,-2.556 2.111,-4.222c0,-1.778 -2.111,-3.334 -4.666,-3.334c-3,0 -6.445,2.778 -6.661,5.334c-0.228,3.555 -3.117,6.333 -6.673,6.333c-3.555,0 -6.55,-2.667 -6.772,-6.222c-1.444,-17 -13,-21.445 -19.005,-21.445c-3.773,0 -7.773,1.889 -10.106,4.667c-1.555,1.889 -2.111,3.889 -1.667,6c1.112,5.556 3.556,11.445 7.223,17.556c0.666,1.111 0.994,2.333 0.994,3.555c0,0.556 -0.105,1.111 -0.217,1.667c-0.111,0.555 -0.333,1 -0.666,1.444c-0.111,0.334 -0.334,0.667 -0.556,0.889c-0.222,0.334 -0.561,0.667 -0.889,1c-4.561,4 -4.561,13.889 2.778,22.334c4.667,5.333 10.772,8.777 16,9.222c2.55,0.111 4.55,-0.445 5.995,-1.667c0.555,-0.444 1.116,-0.889 1.672,-1.111c1.555,-0.667 3.444,-0.778 5.105,-0.222c0.561,0.222 1.117,0.444 1.667,0.889c0.117,0.111 0.228,0.222 0.339,0.222c2,1.778 5.105,3.444 7.994,5c2.778,1.555 5.445,3 7.445,4.444c1.228,0.889 2.111,2.223 2.561,3.667c0.994,3.333 2.439,6.889 3.883,10.333c35,-8.222 67.111,-12.111 97.778,-12.111c18.556,0.111 38.445,1.667 59.333,4.667c3.667,0.555 6.223,4 5.667,7.667c-0.555,3.777 -4,6.222 -7.667,5.777c-20.222,-3 -39.555,-4.444 -57.333,-4.555c-31,-0.445 -64,4.222 -100.111,13.111c-0.556,0.111 -1.111,0.111 -1.667,0.111c-2.661,0 -5.111,-1.556 -6.216,-4.111l-1.673,-4c-1.444,-3.445 -3,-7 -4.222,-10.778c-1.333,-0.778 -2.778,-1.555 -4.222,-2.333c-2,-1.111 -4.111,-2.222 -6.222,-3.556c-2.778,1.445 -5.884,2.111 -9.217,2.111c-0.561,0 -1.228,0 -1.778,-0.111c-9,-0.555 -18.222,-5.666 -25.333,-13.778c-10.222,-11.777 -12.111,-27.111 -5.333,-37.111c-3.112,-6 -5.334,-11.889 -6.445,-17.555c-1.222,-6.111 0.444,-12.222 4.556,-17.222c4.889,-5.889 12.777,-9.667 20.55,-9.667c11.005,-0 22.672,6.444 28.666,19c3.117,-1.889 6.667,-3 10.445,-3c7,-0 13.111,3.778 16.222,9.111c3,-1.333 6.667,-2.111 11.444,-2.111c2.445,-0 4.667,0.333 6.889,0.889c0.667,-17.111 9.556,-24.445 14.889,-27.334c6.778,-3.666 15.111,-4.555 23.556,-2.666c1.555,-6.889 7.778,-12.111 15.222,-12.111c3,-0 6,0.888 8.556,2.666c1.333,0.889 2.222,2.222 2.666,3.667c1.556,5.111 6.223,8.778 11.334,8.778c5.222,-0 9.889,-3.445 11.333,-8.556c0.444,-1.555 1.444,-2.889 2.778,-3.778c9.444,-6.222 21.778,-0.444 23.889,9.334c8.444,-1.889 16.777,-1 23.444,2.666c5.445,2.889 14.333,10.223 15,27.334c2.222,-0.556 4.445,-0.889 6.778,-0.889c4.889,-0 8.555,0.778 11.667,2.111c3,-5.333 9.111,-9.111 16.222,-9.111c3.667,-0 7.333,1.111 10.444,3c6,-12.445 17.556,-19 28.556,-19c7.778,-0 15.778,3.778 20.667,9.667c4.111,5.111 5.666,11.222 4.444,17.222" style="fill-rule:nonzero;"/></g><g><path d="M1158.65,405.605c0.333,0.222 0.667,0.333 1,0.555c-2.556,2 -7.778,9.111 -8.778,32.778c0,1.222 -0.333,2.334 -1,3.334c-1.555,2.555 -6.333,8.222 -15.778,4.333c-1.888,-0.778 -3.888,-1.889 -6,-3.111c-1.888,-1.111 -5.666,-3.222 -6.888,-3c-3.112,2.778 -0.334,9.333 4.333,19.222c5.778,12.111 14.555,30.556 -4,40.778c-4,2.222 -8.445,0.555 -14.111,-1.556c-2.889,-1.111 -9.778,-3.666 -11.556,-2.889c-2.666,4.223 -2.555,13.334 -2.555,24c0.111,20.667 0.111,48.889 -18.556,80.223c-4.556,7.444 8.889,28.222 14.667,37.111l0.778,1.444c1.555,3.222 0.222,7.334 -3.112,8.995c-3.333,1.561 -7.444,0.116 -9.111,-3.106c-9.444,-14.555 -23.666,-36.667 -14.889,-51.444c16.778,-28 16.778,-53.112 16.667,-73.112c0,-13.444 -0.111,-24 5,-31.777c6.445,-10 19.667,-5.111 27.445,-2.111c1.333,0.444 3.111,1.111 4.222,1.444c4.555,-3.222 3.666,-7.889 -3.111,-22.222c-5.445,-11.445 -12.111,-25.556 -0.778,-35.334c7.889,-6.666 16.889,-1.444 22.333,1.667c1,0.556 1.889,1.111 2.778,1.556c1.556,-21.223 6.778,-34.445 15.667,-39.445c2.111,-1.222 4.111,-1.555 5.222,-1.667c0.667,-0.222 1.444,-0.111 2.111,0c-3.667,-0.444 -6.889,2.334 -7.222,6c-0.334,3.445 2,6.556 5.222,7.334" style="fill-rule:nonzero;"/></g></svg>