<?xml version="1.0" encoding="UTF-8" standalone="no"?>
<!DOCTYPE svg PUBLIC "-//W3C//DTD SVG 1.1//EN" "http://www.w3.org/Graphics/SVG/1.1/DTD/svg11.dtd">
<svg width="100%" height="100%" viewBox="0 0 693 418" version="1.1" xmlns="http://www.w3.org/2000/svg" xmlns:xlink="http://www.w3.org/1999/xlink" xml:space="preserve" xmlns:serif="http://www.serif.com/" style="fill-rule:evenodd;clip-rule:evenodd;stroke-linejoin:round;stroke-miterlimit:2;">
    <g transform="matrix(1,0,0,1,0,-1905.56)">
        <g id="butiga.agency-logo-for-web-light-and-dark" serif:id="butiga.agency logo for web light and dark" transform="matrix(0.676061,0,0,0.40726,0,1905.56)">
            <rect x="0" y="0" width="1024" height="1024" style="fill:none;"/>
            <g transform="matrix(1.49191,0,0,2.4766,-123.717,-770.158)">
                <path d="M120.879,481.166L120.879,358.883L153.839,358.883L153.839,405.456L154.316,405.456C155.511,402.351 157.262,399.495 159.571,396.888C161.879,394.28 164.745,392.19 168.169,390.618C171.592,389.046 175.573,388.26 180.11,388.26C186.161,388.26 191.923,389.872 197.396,393.096C202.869,396.32 207.328,401.396 210.771,408.322C214.214,415.248 215.936,424.244 215.936,435.31C215.936,445.898 214.294,454.676 211.01,461.642C207.726,468.608 203.347,473.802 197.874,477.226C192.401,480.649 186.4,482.36 179.872,482.36C175.573,482.36 171.741,481.654 168.378,480.241C165.014,478.828 162.148,476.897 159.78,474.449C157.411,472.001 155.59,469.225 154.316,466.12L153.6,466.12L153.6,481.166L120.879,481.166ZM153.122,435.31C153.122,439.768 153.709,443.619 154.884,446.864C156.058,450.108 157.73,452.616 159.899,454.387C162.069,456.158 164.666,457.044 167.691,457.044C170.716,457.044 173.294,456.178 175.423,454.447C177.553,452.715 179.185,450.227 180.319,446.983C181.454,443.739 182.021,439.848 182.021,435.31C182.021,430.772 181.454,426.881 180.319,423.637C179.185,420.393 177.553,417.905 175.423,416.173C173.294,414.442 170.716,413.576 167.691,413.576C164.666,413.576 162.069,414.442 159.899,416.173C157.73,417.905 156.058,420.393 154.884,423.637C153.709,426.881 153.122,430.772 153.122,435.31Z" style="fill:rgb(61,38,250);fill-rule:nonzero;"/>
                <path d="M289.258,441.042L289.258,389.454L322.217,389.454L322.217,481.166L290.93,481.166L290.93,463.731L289.974,463.731C287.984,469.583 284.501,474.151 279.525,477.435C274.55,480.718 268.639,482.36 261.792,482.36C255.383,482.36 249.781,480.888 244.984,477.942C240.187,474.996 236.466,470.936 233.818,465.761C231.171,460.587 229.828,454.656 229.788,447.968L229.788,389.454L262.747,389.454L262.747,441.042C262.787,445.58 263.951,449.143 266.24,451.73C268.529,454.317 271.743,455.611 275.883,455.611C278.63,455.611 281.008,455.024 283.018,453.85C285.029,452.675 286.581,451.003 287.676,448.834C288.77,446.665 289.298,444.067 289.258,441.042Z" style="fill:rgb(61,38,250);fill-rule:nonzero;"/>
                <path d="M393.629,389.454L393.629,413.337L333.203,413.337L333.203,389.454L393.629,389.454ZM344.906,367.481L377.866,367.481L377.866,451.67C377.866,452.944 378.084,454.009 378.522,454.865C378.96,455.72 379.637,456.357 380.552,456.775C381.468,457.193 382.642,457.402 384.075,457.402C385.07,457.402 386.235,457.283 387.568,457.044C388.902,456.805 389.887,456.606 390.524,456.447L395.3,479.614C393.828,480.052 391.728,480.589 389.001,481.226C386.275,481.863 383.04,482.281 379.299,482.48C371.735,482.878 365.386,482.092 360.252,480.121C355.117,478.151 351.255,475.036 348.668,470.777C346.081,466.518 344.827,461.184 344.906,454.775L344.906,367.481Z" style="fill:rgb(61,38,250);fill-rule:nonzero;"/>
                <path d="M407.003,481.166L407.003,389.454L439.963,389.454L439.963,481.166L407.003,481.166ZM423.543,379.9C419.045,379.9 415.203,378.428 412.019,375.482C408.834,372.536 407.242,368.994 407.242,364.854C407.242,360.714 408.834,357.171 412.019,354.226C415.203,351.28 419.025,349.807 423.483,349.807C427.981,349.807 431.812,351.28 434.977,354.226C438.141,357.171 439.724,360.714 439.724,364.854C439.724,368.994 438.141,372.536 434.977,375.482C431.812,378.428 428.001,379.9 423.543,379.9Z" style="fill:rgb(61,38,250);fill-rule:nonzero;"/>
                <path d="M500.865,517.469C491.67,517.469 483.799,516.166 477.251,513.558C470.703,510.951 465.627,507.368 462.025,502.811C458.422,498.253 456.402,493.028 455.964,487.137L487.729,487.137C488.048,489.088 488.844,490.66 490.118,491.854C491.392,493.048 493.034,493.914 495.044,494.451C497.054,494.989 499.313,495.258 501.821,495.258C506.08,495.258 509.613,494.223 512.419,492.153C515.225,490.083 516.628,486.341 516.628,480.927L516.628,465.403L515.673,465.403C514.479,468.508 512.648,471.145 510.18,473.315C507.712,475.484 504.746,477.136 501.283,478.27C497.82,479.405 494.019,479.972 489.879,479.972C483.351,479.972 477.35,478.46 471.877,475.434C466.404,472.409 462.025,467.612 458.741,461.044C455.457,454.477 453.815,445.898 453.815,435.31C453.815,424.244 455.537,415.248 458.98,408.322C462.423,401.396 466.881,396.32 472.355,393.096C477.828,389.872 483.59,388.26 489.64,388.26C494.178,388.26 498.159,389.046 501.582,390.618C505.005,392.19 507.871,394.28 510.18,396.888C512.489,399.495 514.24,402.351 515.434,405.456L516.151,405.456L516.151,389.454L549.11,389.454L549.11,480.927C549.11,488.69 547.11,495.287 543.109,500.721C539.109,506.154 533.486,510.304 526.242,513.17C518.997,516.036 510.538,517.469 500.865,517.469ZM502.06,456.566C505.085,456.566 507.682,455.72 509.852,454.029C512.021,452.337 513.693,449.909 514.867,446.744C516.041,443.58 516.628,439.768 516.628,435.31C516.628,430.772 516.041,426.881 514.867,423.637C513.693,420.393 512.021,417.905 509.852,416.173C507.682,414.442 505.085,413.576 502.06,413.576C499.034,413.576 496.457,414.442 494.327,416.173C492.198,417.905 490.566,420.393 489.431,423.637C488.297,426.881 487.729,430.772 487.729,435.31C487.729,439.848 488.297,443.699 489.431,446.864C490.566,450.028 492.198,452.436 494.327,454.088C496.457,455.74 499.034,456.566 502.06,456.566Z" style="fill:rgb(61,38,250);fill-rule:nonzero;"/>
                <path d="M591.384,482.599C585.532,482.599 580.367,481.634 575.889,479.703C571.411,477.773 567.898,474.837 565.351,470.896C562.803,466.956 561.529,461.94 561.529,455.85C561.529,450.834 562.385,446.545 564.097,442.983C565.809,439.42 568.197,436.504 571.262,434.235C574.327,431.966 577.9,430.235 581.98,429.041C586.06,427.846 590.468,427.07 595.205,426.712C600.34,426.314 604.47,425.826 607.595,425.249C610.719,424.672 612.978,423.856 614.372,422.801C615.765,421.746 616.461,420.343 616.461,418.592L616.461,418.353C616.461,415.964 615.546,414.133 613.715,412.86C611.884,411.586 609.535,410.949 606.669,410.949C603.524,410.949 600.967,411.636 598.997,413.009C597.026,414.382 595.842,416.482 595.444,419.308L565.112,419.308C565.51,413.735 567.291,408.59 570.456,403.873C573.62,399.156 578.248,395.375 584.338,392.529C590.428,389.683 598.031,388.26 607.147,388.26C613.715,388.26 619.606,389.026 624.821,390.558C630.035,392.091 634.473,394.221 638.136,396.947C641.798,399.674 644.594,402.858 646.525,406.501C648.455,410.143 649.421,414.094 649.421,418.353L649.421,481.166L618.611,481.166L618.611,468.269L617.894,468.269C616.063,471.693 613.844,474.459 611.237,476.569C608.63,478.678 605.664,480.211 602.34,481.166C599.016,482.122 595.364,482.599 591.384,482.599ZM602.131,461.821C604.639,461.821 606.998,461.303 609.207,460.268C611.416,459.233 613.217,457.741 614.61,455.79C616.004,453.84 616.7,451.471 616.7,448.685L616.7,441.042C615.824,441.4 614.899,441.739 613.924,442.057C612.948,442.376 611.914,442.674 610.819,442.953C609.724,443.231 608.57,443.49 607.356,443.729C606.142,443.968 604.878,444.187 603.564,444.386C601.017,444.784 598.937,445.431 597.325,446.326C595.713,447.222 594.518,448.317 593.742,449.61C592.966,450.904 592.578,452.347 592.578,453.939C592.578,456.487 593.474,458.437 595.265,459.791C597.056,461.144 599.345,461.821 602.131,461.821Z" style="fill:rgb(61,38,250);fill-rule:nonzero;"/>
                <path d="M146.912,650.739C141.061,650.739 135.896,649.774 131.418,647.843C126.94,645.912 123.427,642.977 120.879,639.036C118.332,635.095 117.058,630.08 117.058,623.989C117.058,618.974 117.914,614.685 119.626,611.122C121.337,607.56 123.726,604.644 126.791,602.375C129.856,600.106 133.428,598.374 137.508,597.18C141.588,595.986 145.997,595.21 150.734,594.852C155.869,594.454 159.999,593.966 163.123,593.389C166.248,592.812 168.507,591.996 169.9,590.941C171.294,589.886 171.99,588.483 171.99,586.731L171.99,586.492C171.99,584.104 171.075,582.273 169.244,580.999C167.412,579.725 165.064,579.088 162.198,579.088C159.053,579.088 156.496,579.775 154.525,581.148C152.555,582.522 151.371,584.621 150.973,587.448L120.641,587.448C121.039,581.875 122.82,576.73 125.985,572.013C129.149,567.296 133.777,563.514 139.867,560.668C145.957,557.822 153.56,556.399 162.676,556.399C169.244,556.399 175.135,557.165 180.349,558.698C185.564,560.231 190.002,562.36 193.664,565.087C197.326,567.814 200.123,570.998 202.053,574.64C203.984,578.282 204.949,582.233 204.949,586.492L204.949,649.306L174.14,649.306L174.14,636.409L173.423,636.409C171.592,639.832 169.373,642.599 166.766,644.708C164.158,646.818 161.193,648.351 157.869,649.306C154.545,650.261 150.893,650.739 146.912,650.739ZM157.66,629.96C160.168,629.96 162.526,629.443 164.736,628.408C166.945,627.373 168.746,625.88 170.139,623.93C171.532,621.979 172.229,619.611 172.229,616.824L172.229,609.182C171.353,609.54 170.428,609.878 169.452,610.197C168.477,610.515 167.442,610.814 166.348,611.092C165.253,611.371 164.099,611.63 162.885,611.869C161.67,612.107 160.407,612.326 159.093,612.525C156.545,612.923 154.466,613.57 152.853,614.466C151.241,615.362 150.047,616.456 149.271,617.75C148.495,619.044 148.107,620.486 148.107,622.079C148.107,624.626 149.002,626.577 150.794,627.93C152.585,629.284 154.874,629.96 157.66,629.96Z" style="fill:rgb(61,38,250);fill-rule:nonzero;"/>
                <path d="M264.897,685.609C255.702,685.609 247.83,684.305 241.282,681.698C234.734,679.091 229.659,675.508 226.056,670.95C222.454,666.393 220.434,661.168 219.996,655.277L251.761,655.277C252.079,657.227 252.875,658.8 254.149,659.994C255.423,661.188 257.065,662.054 259.075,662.591C261.085,663.128 263.344,663.397 265.852,663.397C270.111,663.397 273.644,662.362 276.45,660.292C279.257,658.222 280.66,654.481 280.66,649.067L280.66,633.543L279.705,633.543C278.51,636.648 276.679,639.285 274.211,641.454C271.743,643.624 268.778,645.276 265.315,646.41C261.852,647.544 258.05,648.112 253.91,648.112C247.382,648.112 241.382,646.599 235.908,643.574C230.435,640.549 226.056,635.752 222.772,629.184C219.488,622.616 217.846,614.038 217.846,603.45C217.846,592.384 219.568,583.388 223.011,576.461C226.454,569.535 230.913,564.46 236.386,561.236C241.859,558.011 247.621,556.399 253.672,556.399C258.209,556.399 262.19,557.185 265.613,558.758C269.037,560.33 271.903,562.42 274.211,565.027C276.52,567.634 278.272,570.49 279.466,573.595L280.182,573.595L280.182,557.593L313.141,557.593L313.141,649.067C313.141,656.829 311.141,663.427 307.141,668.86C303.14,674.294 297.518,678.444 290.273,681.31C283.028,684.176 274.57,685.609 264.897,685.609ZM266.091,624.706C269.116,624.706 271.714,623.86 273.883,622.168C276.052,620.477 277.724,618.048 278.898,614.884C280.073,611.719 280.66,607.908 280.66,603.45C280.66,598.912 280.073,595.021 278.898,591.777C277.724,588.532 276.052,586.045 273.883,584.313C271.714,582.581 269.116,581.716 266.091,581.716C263.066,581.716 260.488,582.581 258.359,584.313C256.229,586.045 254.597,588.532 253.463,591.777C252.328,595.021 251.761,598.912 251.761,603.45C251.761,607.987 252.328,611.839 253.463,615.003C254.597,618.168 256.229,620.576 258.359,622.228C260.488,623.88 263.066,624.706 266.091,624.706Z" style="fill:rgb(61,38,250);fill-rule:nonzero;"/>
                <path d="M373.805,650.978C364.013,650.978 355.584,649.097 348.519,645.335C341.453,641.574 336.02,636.16 332.218,629.094C328.417,622.029 326.516,613.56 326.516,603.688C326.516,594.215 328.427,585.935 332.248,578.85C336.069,571.764 341.463,566.251 348.429,562.31C355.395,558.37 363.615,556.399 373.089,556.399C380.015,556.399 386.284,557.474 391.897,559.623C397.51,561.773 402.306,564.888 406.287,568.968C410.267,573.048 413.332,577.994 415.482,583.805C417.632,589.617 418.706,596.165 418.706,603.45L418.706,611.092L336.786,611.092L336.786,592.941L388.374,592.941C388.334,590.314 387.668,587.995 386.374,585.985C385.08,583.975 383.349,582.402 381.179,581.268C379.01,580.133 376.552,579.566 373.805,579.566C371.138,579.566 368.69,580.133 366.461,581.268C364.232,582.402 362.451,583.965 361.117,585.955C359.784,587.945 359.077,590.274 358.998,592.941L358.998,612.525C358.998,615.471 359.615,618.098 360.849,620.407C362.083,622.716 363.854,624.527 366.163,625.84C368.471,627.154 371.258,627.811 374.522,627.811C376.791,627.811 378.871,627.492 380.761,626.855C382.652,626.219 384.274,625.293 385.628,624.079C386.981,622.865 387.976,621.402 388.613,619.69L418.706,619.69C417.671,626.059 415.223,631.582 411.362,636.26C407.501,640.937 402.396,644.559 396.047,647.127C389.698,649.694 382.284,650.978 373.805,650.978Z" style="fill:rgb(61,38,250);fill-rule:nonzero;"/>
                <path d="M465.04,597.718L465.04,649.306L432.081,649.306L432.081,557.593L463.368,557.593L463.368,575.028L464.324,575.028C466.314,569.217 469.827,564.659 474.862,561.355C479.898,558.051 485.779,556.399 492.506,556.399C498.995,556.399 504.637,557.882 509.434,560.847C514.23,563.813 517.952,567.883 520.599,573.058C523.246,578.233 524.55,584.144 524.51,590.791L524.51,649.306L491.551,649.306L491.551,597.718C491.591,593.18 490.446,589.617 488.118,587.03C485.789,584.442 482.555,583.149 478.415,583.149C475.708,583.149 473.35,583.736 471.339,584.91C469.329,586.084 467.787,587.756 466.712,589.926C465.637,592.095 465.08,594.692 465.04,597.718Z" style="fill:rgb(61,38,250);fill-rule:nonzero;"/>
                <path d="M584.935,650.978C574.984,650.978 566.465,648.997 559.38,645.037C552.294,641.076 546.861,635.543 543.079,628.438C539.298,621.332 537.407,613.083 537.407,603.688C537.407,594.294 539.298,586.045 543.079,578.939C546.861,571.834 552.294,566.301 559.38,562.34C566.465,558.38 574.984,556.399 584.935,556.399C593.931,556.399 601.723,558.021 608.311,561.265C614.899,564.51 620.004,569.087 623.626,574.998C627.249,580.91 629.08,587.846 629.12,595.807L598.549,595.807C598.111,590.99 596.728,587.318 594.399,584.791C592.07,582.263 589.075,580.999 585.413,580.999C582.547,580.999 580.039,581.825 577.89,583.477C575.74,585.129 574.068,587.617 572.874,590.941C571.68,594.264 571.083,598.434 571.083,603.45C571.083,608.465 571.68,612.635 572.874,615.959C574.068,619.282 575.74,621.77 577.89,623.422C580.039,625.074 582.547,625.9 585.413,625.9C587.841,625.9 589.991,625.333 591.861,624.198C593.732,623.064 595.255,621.392 596.429,619.183C597.603,616.974 598.31,614.277 598.549,611.092L629.12,611.092C629,619.173 627.149,626.209 623.567,632.199C619.984,638.19 614.919,642.818 608.371,646.082C601.823,649.346 594.011,650.978 584.935,650.978Z" style="fill:rgb(61,38,250);fill-rule:nonzero;"/>
                <path d="M662.795,683.698C659.014,683.698 655.411,683.409 651.988,682.832C648.565,682.255 645.559,681.469 642.972,680.474L650.137,657.068C652.844,658.023 655.322,658.64 657.571,658.919C659.82,659.198 661.75,659.038 663.363,658.441C664.975,657.844 666.139,656.71 666.855,655.038L667.572,653.366L635.329,557.593L669.721,557.593L684.529,621.123L685.485,621.123L700.531,557.593L735.162,557.593L701.725,656.949C700.053,662.004 697.635,666.552 694.471,670.592C691.306,674.632 687.156,677.827 682.021,680.175C676.887,682.524 670.478,683.698 662.795,683.698Z" style="fill:rgb(61,38,250);fill-rule:nonzero;"/>
            </g>
        </g>
    </g>
</svg>
