<?xml version="1.0" encoding="UTF-8" standalone="no"?><!DOCTYPE svg PUBLIC "-//W3C//DTD SVG 1.1//EN" "http://www.w3.org/Graphics/SVG/1.1/DTD/svg11.dtd"><svg width="100%" height="100%" viewBox="0 0 347 209" version="1.1" xmlns="http://www.w3.org/2000/svg" xmlns:xlink="http://www.w3.org/1999/xlink" xml:space="preserve" xmlns:serif="http://www.serif.com/" style="fill-rule:evenodd;clip-rule:evenodd;stroke-linejoin:round;stroke-miterlimit:2;"><rect id="butiga.agency-logo-for-web-light-and-dark" serif:id="butiga.agency logo for web light and dark" x="0" y="0" width="346.143" height="208.517" style="fill:none;"/><g><path d="M19.141,85.83l-0,-61.669l16.621,0l0,23.487l0.241,0c0.602,-1.565 1.486,-3.006 2.65,-4.321c1.164,-1.314 2.61,-2.368 4.336,-3.161c1.726,-0.793 3.734,-1.19 6.022,-1.19c3.052,0 5.958,0.813 8.718,2.439c2.76,1.626 5.008,4.186 6.745,7.679c1.736,3.493 2.604,8.03 2.604,13.61c0,5.34 -0.828,9.767 -2.484,13.28c-1.656,3.513 -3.864,6.132 -6.624,7.859c-2.761,1.726 -5.787,2.589 -9.079,2.589c-2.168,0 -4.1,-0.356 -5.797,-1.069c-1.696,-0.712 -3.141,-1.686 -4.336,-2.92c-1.194,-1.235 -2.112,-2.635 -2.755,-4.201l-0.361,-0l-0,7.588l-16.501,0Zm16.26,-23.126c-0,2.249 0.296,4.191 0.888,5.827c0.592,1.636 1.436,2.901 2.53,3.794c1.094,0.893 2.404,1.34 3.929,1.34c1.526,0 2.826,-0.437 3.9,-1.31c1.074,-0.873 1.897,-2.128 2.469,-3.764c0.572,-1.636 0.858,-3.598 0.858,-5.887c0,-2.288 -0.286,-4.25 -0.858,-5.886c-0.572,-1.637 -1.395,-2.891 -2.469,-3.764c-1.074,-0.874 -2.374,-1.31 -3.9,-1.31c-1.525,-0 -2.835,0.436 -3.929,1.31c-1.094,0.873 -1.938,2.127 -2.53,3.764c-0.592,1.636 -0.888,3.598 -0.888,5.886Z" style="fill:#ff652f;fill-rule:nonzero;"/><path d="M104.056,65.595l-0,-26.016l16.621,-0l0,46.251l-15.778,0l-0,-8.792l-0.482,-0c-1.004,2.95 -2.76,5.254 -5.27,6.91c-2.509,1.656 -5.49,2.484 -8.943,2.484c-3.232,0 -6.057,-0.742 -8.476,-2.228c-2.419,-1.485 -4.296,-3.533 -5.631,-6.143c-1.335,-2.609 -2.013,-5.6 -2.033,-8.973l0,-29.509l16.622,-0l0,26.016c0.02,2.289 0.607,4.085 1.762,5.39c1.154,1.305 2.775,1.957 4.863,1.957c1.385,0 2.584,-0.296 3.598,-0.888c1.014,-0.592 1.797,-1.435 2.349,-2.529c0.552,-1.094 0.818,-2.404 0.798,-3.93Z" style="fill:#ff652f;fill-rule:nonzero;"/><path d="M156.691,39.579l-0,12.044l-30.473,0l-0,-12.044l30.473,-0Zm-24.571,-11.082l16.621,0l0,42.458c0,0.642 0.111,1.179 0.332,1.611c0.22,0.432 0.562,0.753 1.023,0.964c0.462,0.21 1.054,0.316 1.777,0.316c0.502,-0 1.089,-0.061 1.762,-0.181c0.672,-0.12 1.169,-0.221 1.49,-0.301l2.409,11.683c-0.743,0.221 -1.802,0.492 -3.177,0.813c-1.375,0.321 -3.006,0.532 -4.893,0.633c-3.814,0.2 -7.016,-0.196 -9.606,-1.19c-2.589,-0.993 -4.536,-2.564 -5.841,-4.712c-1.305,-2.148 -1.937,-4.838 -1.897,-8.07l-0,-44.024Z" style="fill:#ff652f;fill-rule:nonzero;"/><path d="M163.436,85.83l-0,-46.251l16.622,-0l-0,46.251l-16.622,0Zm8.341,-51.069c-2.269,-0 -4.206,-0.743 -5.812,-2.229c-1.606,-1.485 -2.409,-3.272 -2.409,-5.359c0,-2.088 0.803,-3.875 2.409,-5.36c1.606,-1.486 3.533,-2.229 5.782,-2.229c2.268,0 4.2,0.743 5.796,2.229c1.596,1.485 2.394,3.272 2.394,5.36c0,2.087 -0.798,3.874 -2.394,5.359c-1.596,1.486 -3.518,2.229 -5.766,2.229Z" style="fill:#ff652f;fill-rule:nonzero;"/><path d="M210.772,104.138c-4.638,0 -8.607,-0.657 -11.91,-1.972c-3.302,-1.315 -5.861,-3.122 -7.678,-5.42c-1.817,-2.299 -2.836,-4.934 -3.056,-7.905l16.019,0c0.161,0.984 0.562,1.777 1.204,2.379c0.643,0.602 1.471,1.039 2.485,1.31c1.013,0.271 2.153,0.407 3.417,0.407c2.148,-0 3.93,-0.522 5.345,-1.566c1.415,-1.044 2.123,-2.931 2.123,-5.661l0,-7.829l-0.482,-0c-0.602,1.565 -1.525,2.895 -2.77,3.989c-1.245,1.095 -2.74,1.928 -4.487,2.5c-1.746,0.572 -3.663,0.858 -5.751,0.858c-3.292,-0 -6.318,-0.763 -9.079,-2.289c-2.76,-1.525 -4.968,-3.944 -6.624,-7.257c-1.656,-3.312 -2.484,-7.638 -2.484,-12.978c-0,-5.58 0.868,-10.117 2.604,-13.61c1.737,-3.493 3.985,-6.053 6.745,-7.679c2.76,-1.626 5.666,-2.439 8.718,-2.439c2.288,0 4.296,0.397 6.022,1.19c1.726,0.793 3.172,1.847 4.336,3.161c1.164,1.315 2.048,2.756 2.65,4.321l0.361,0l0,-8.069l16.622,-0l-0,46.131c-0,3.914 -1.009,7.242 -3.026,9.982c-2.018,2.74 -4.853,4.833 -8.507,6.278c-3.653,1.445 -7.919,2.168 -12.797,2.168Zm0.602,-30.714c1.525,0 2.835,-0.426 3.929,-1.28c1.094,-0.853 1.938,-2.077 2.53,-3.673c0.592,-1.596 0.888,-3.518 0.888,-5.767c0,-2.288 -0.296,-4.25 -0.888,-5.886c-0.592,-1.637 -1.436,-2.891 -2.53,-3.764c-1.094,-0.874 -2.404,-1.31 -3.929,-1.31c-1.526,-0 -2.826,0.436 -3.9,1.31c-1.074,0.873 -1.897,2.127 -2.469,3.764c-0.572,1.636 -0.858,3.598 -0.858,5.886c0,2.289 0.286,4.231 0.858,5.827c0.572,1.596 1.395,2.81 2.469,3.643c1.074,0.834 2.374,1.25 3.9,1.25Z" style="fill:#ff652f;fill-rule:nonzero;"/><path d="M256.421,86.553c-2.951,-0 -5.556,-0.487 -7.814,-1.461c-2.258,-0.973 -4.03,-2.454 -5.315,-4.441c-1.285,-1.987 -1.927,-4.517 -1.927,-7.588c0,-2.53 0.432,-4.693 1.295,-6.489c0.863,-1.797 2.068,-3.267 3.613,-4.412c1.546,-1.144 3.348,-2.017 5.405,-2.619c2.058,-0.603 4.281,-0.994 6.67,-1.175c2.59,-0.2 4.672,-0.446 6.248,-0.737c1.576,-0.292 2.715,-0.703 3.418,-1.235c0.703,-0.532 1.054,-1.24 1.054,-2.123l-0,-0.12c-0,-1.205 -0.462,-2.128 -1.385,-2.771c-0.924,-0.642 -2.108,-0.963 -3.553,-0.963c-1.586,-0 -2.876,0.346 -3.87,1.039c-0.993,0.692 -1.591,1.751 -1.791,3.176l-15.297,0c0.201,-2.81 1.099,-5.405 2.695,-7.783c1.596,-2.379 3.929,-4.286 7.001,-5.722c3.071,-1.435 6.905,-2.153 11.502,-2.153c3.313,0 6.284,0.387 8.914,1.16c2.629,0.772 4.868,1.846 6.714,3.222c1.847,1.375 3.258,2.981 4.231,4.817c0.974,1.837 1.461,3.83 1.461,5.978l-0,31.677l-15.538,0l-0,-6.504l-0.361,0c-0.924,1.726 -2.043,3.122 -3.358,4.186c-1.315,1.063 -2.81,1.836 -4.487,2.318c-1.676,0.482 -3.518,0.723 -5.525,0.723Zm5.42,-10.479c1.265,-0 2.454,-0.261 3.568,-0.783c1.114,-0.522 2.023,-1.275 2.725,-2.258c0.703,-0.984 1.054,-2.178 1.054,-3.584l0,-3.854c-0.441,0.181 -0.908,0.351 -1.4,0.512c-0.492,0.161 -1.014,0.311 -1.566,0.452c-0.552,0.14 -1.134,0.271 -1.746,0.391c-0.612,0.121 -1.25,0.231 -1.912,0.331c-1.285,0.201 -2.334,0.527 -3.147,0.979c-0.813,0.452 -1.415,1.004 -1.807,1.656c-0.391,0.653 -0.587,1.38 -0.587,2.183c0,1.285 0.452,2.269 1.355,2.951c0.904,0.683 2.058,1.024 3.463,1.024Z" style="fill:#ff652f;fill-rule:nonzero;"/><path d="M32.269,171.347c-2.951,0 -5.555,-0.486 -7.814,-1.46c-2.258,-0.974 -4.03,-2.454 -5.314,-4.441c-1.285,-1.988 -1.928,-4.517 -1.928,-7.589c0,-2.529 0.432,-4.692 1.295,-6.489c0.863,-1.796 2.068,-3.267 3.614,-4.411c1.545,-1.144 3.347,-2.018 5.405,-2.62c2.057,-0.602 4.281,-0.993 6.669,-1.174c2.59,-0.201 4.673,-0.447 6.249,-0.738c1.575,-0.291 2.715,-0.702 3.417,-1.234c0.703,-0.532 1.054,-1.24 1.054,-2.123l0,-0.121c0,-1.204 -0.461,-2.128 -1.385,-2.77c-0.923,-0.642 -2.108,-0.964 -3.553,-0.964c-1.586,0 -2.876,0.347 -3.869,1.039c-0.994,0.693 -1.591,1.752 -1.792,3.177l-15.297,0c0.201,-2.81 1.099,-5.405 2.695,-7.784c1.596,-2.379 3.93,-4.286 7.001,-5.721c3.072,-1.435 6.906,-2.153 11.503,-2.153c3.312,-0 6.283,0.386 8.913,1.159c2.63,0.773 4.868,1.847 6.715,3.222c1.847,1.375 3.257,2.981 4.23,4.818c0.974,1.837 1.461,3.829 1.461,5.977l-0,31.678l-15.538,-0l0,-6.504l-0.361,-0c-0.924,1.726 -2.043,3.121 -3.358,4.185c-1.314,1.064 -2.81,1.837 -4.486,2.319c-1.676,0.482 -3.518,0.722 -5.526,0.722Zm5.42,-10.478c1.265,-0 2.455,-0.261 3.569,-0.783c1.114,-0.522 2.022,-1.275 2.725,-2.259c0.702,-0.983 1.054,-2.178 1.054,-3.583l-0,-3.854c-0.442,0.18 -0.909,0.351 -1.401,0.512c-0.491,0.16 -1.013,0.311 -1.565,0.451c-0.552,0.141 -1.135,0.271 -1.747,0.392c-0.612,0.12 -1.249,0.231 -1.912,0.331c-1.285,0.201 -2.334,0.527 -3.147,0.979c-0.813,0.451 -1.415,1.003 -1.806,1.656c-0.392,0.652 -0.587,1.38 -0.587,2.183c-0,1.285 0.451,2.268 1.355,2.951c0.903,0.682 2.057,1.024 3.462,1.024Z" style="fill:#ff652f;fill-rule:nonzero;"/><path d="M91.77,188.933c-4.637,-0 -8.607,-0.658 -11.909,-1.973c-3.302,-1.315 -5.862,-3.121 -7.679,-5.42c-1.816,-2.298 -2.835,-4.933 -3.056,-7.904l16.019,-0c0.161,0.984 0.563,1.777 1.205,2.379c0.642,0.602 1.47,1.039 2.484,1.31c1.014,0.271 2.153,0.406 3.418,0.406c2.148,0 3.929,-0.522 5.345,-1.566c1.415,-1.044 2.123,-2.931 2.123,-5.661l-0,-7.829l-0.482,0c-0.602,1.566 -1.526,2.896 -2.77,3.99c-1.245,1.094 -2.741,1.927 -4.487,2.499c-1.747,0.572 -3.664,0.859 -5.751,0.859c-3.293,-0 -6.319,-0.763 -9.079,-2.289c-2.76,-1.526 -4.969,-3.945 -6.625,-7.257c-1.656,-3.312 -2.484,-7.638 -2.484,-12.978c0,-5.581 0.868,-10.118 2.605,-13.611c1.736,-3.493 3.984,-6.052 6.745,-7.678c2.76,-1.626 5.666,-2.439 8.717,-2.439c2.289,-0 4.296,0.396 6.022,1.189c1.727,0.793 3.172,1.847 4.337,3.162c1.164,1.315 2.047,2.755 2.649,4.321l0.362,0l-0,-8.07l16.621,0l0,46.131c0,3.915 -1.008,7.242 -3.026,9.982c-2.017,2.741 -4.853,4.833 -8.506,6.279c-3.654,1.445 -7.92,2.168 -12.798,2.168Zm0.602,-30.714c1.526,-0 2.836,-0.427 3.93,-1.28c1.094,-0.853 1.937,-2.078 2.529,-3.674c0.592,-1.596 0.889,-3.518 0.889,-5.766c-0,-2.289 -0.297,-4.251 -0.889,-5.887c-0.592,-1.636 -1.435,-2.891 -2.529,-3.764c-1.094,-0.873 -2.404,-1.31 -3.93,-1.31c-1.525,0 -2.825,0.437 -3.899,1.31c-1.074,0.873 -1.897,2.128 -2.469,3.764c-0.572,1.636 -0.859,3.598 -0.859,5.887c0,2.288 0.287,4.231 0.859,5.827c0.572,1.595 1.395,2.81 2.469,3.643c1.074,0.833 2.374,1.25 3.899,1.25Z" style="fill:#ff652f;fill-rule:nonzero;"/><path d="M146.694,171.468c-4.938,-0 -9.189,-0.949 -12.752,-2.846c-3.564,-1.897 -6.304,-4.627 -8.221,-8.19c-1.917,-3.563 -2.876,-7.834 -2.876,-12.813c0,-4.777 0.964,-8.953 2.891,-12.526c1.927,-3.573 4.647,-6.354 8.16,-8.341c3.513,-1.987 7.659,-2.981 12.437,-2.981c3.492,-0 6.654,0.542 9.485,1.626c2.83,1.084 5.249,2.655 7.257,4.712c2.007,2.058 3.553,4.552 4.637,7.483c1.084,2.931 1.626,6.233 1.626,9.907l-0,3.854l-41.313,0l-0,-9.154l26.016,0c-0.02,-1.325 -0.356,-2.494 -1.009,-3.508c-0.652,-1.013 -1.525,-1.806 -2.619,-2.379c-1.094,-0.572 -2.334,-0.858 -3.719,-0.858c-1.345,0 -2.58,0.286 -3.704,0.858c-1.124,0.573 -2.022,1.36 -2.695,2.364c-0.672,1.004 -1.029,2.178 -1.069,3.523l0,9.877c0,1.485 0.311,2.81 0.934,3.975c0.622,1.164 1.515,2.077 2.68,2.74c1.164,0.662 2.569,0.994 4.215,0.994c1.144,-0 2.193,-0.161 3.147,-0.482c0.953,-0.321 1.771,-0.788 2.454,-1.4c0.683,-0.613 1.184,-1.35 1.506,-2.214l15.176,0c-0.522,3.212 -1.757,5.998 -3.704,8.356c-1.947,2.359 -4.522,4.186 -7.724,5.481c-3.201,1.294 -6.94,1.942 -11.216,1.942Z" style="fill:#ff652f;fill-rule:nonzero;"/><path d="M192.705,144.608l-0,26.017l-16.622,-0l-0,-46.252l15.778,0l0,8.793l0.482,-0c1.004,-2.931 2.776,-5.23 5.315,-6.896c2.539,-1.666 5.505,-2.499 8.898,-2.499c3.272,-0 6.118,0.748 8.537,2.243c2.419,1.496 4.296,3.548 5.631,6.158c1.334,2.61 1.992,5.591 1.972,8.943l-0,29.51l-16.622,-0l0,-26.017c0.02,-2.288 -0.557,-4.085 -1.731,-5.39c-1.175,-1.305 -2.806,-1.957 -4.893,-1.957c-1.365,-0 -2.555,0.296 -3.569,0.888c-1.013,0.592 -1.791,1.436 -2.333,2.53c-0.542,1.094 -0.823,2.404 -0.843,3.929Z" style="fill:#ff652f;fill-rule:nonzero;"/><path d="M253.169,171.468c-5.019,-0 -9.315,-0.999 -12.888,-2.996c-3.573,-1.998 -6.313,-4.788 -8.22,-8.371c-1.908,-3.584 -2.861,-7.744 -2.861,-12.482c-0,-4.737 0.953,-8.898 2.861,-12.481c1.907,-3.583 4.647,-6.374 8.22,-8.371c3.573,-1.997 7.869,-2.996 12.888,-2.996c4.537,-0 8.466,0.818 11.789,2.454c3.322,1.636 5.897,3.945 7.723,6.926c1.827,2.981 2.75,6.479 2.771,10.494l-15.418,-0c-0.22,-2.429 -0.918,-4.281 -2.092,-5.556c-1.175,-1.275 -2.685,-1.912 -4.532,-1.912c-1.446,-0 -2.71,0.416 -3.794,1.25c-1.084,0.833 -1.927,2.087 -2.53,3.764c-0.602,1.676 -0.903,3.779 -0.903,6.308c-0,2.529 0.301,4.632 0.903,6.308c0.603,1.677 1.446,2.931 2.53,3.764c1.084,0.833 2.348,1.25 3.794,1.25c1.224,-0 2.308,-0.286 3.252,-0.858c0.943,-0.572 1.711,-1.415 2.303,-2.53c0.593,-1.114 0.949,-2.474 1.069,-4.08l15.418,0c-0.061,4.075 -0.994,7.624 -2.801,10.645c-1.807,3.021 -4.361,5.355 -7.663,7.001c-3.303,1.646 -7.242,2.469 -11.819,2.469Z" style="fill:#ff652f;fill-rule:nonzero;"/><path d="M292.435,187.969c-1.908,0 -3.724,-0.145 -5.451,-0.437c-1.726,-0.291 -3.242,-0.687 -4.547,-1.189l3.614,-11.804c1.365,0.482 2.615,0.793 3.749,0.934c1.134,0.14 2.108,0.06 2.921,-0.241c0.813,-0.301 1.4,-0.873 1.761,-1.717l0.362,-0.843l-16.261,-48.299l17.345,0l7.467,32.039l0.482,0l7.588,-32.039l17.465,0l-16.863,50.106c-0.843,2.55 -2.062,4.843 -3.658,6.881c-1.596,2.037 -3.689,3.648 -6.278,4.833c-2.59,1.184 -5.822,1.776 -9.696,1.776Z" style="fill:#ff652f;fill-rule:nonzero;"/></g></svg>