<!DOCTYPE svg PUBLIC "-//W3C//DTD SVG 1.1//EN" "http://www.w3.org/Graphics/SVG/1.1/DTD/svg11.dtd">
<!-- Uploaded to: SVG Repo, www.svgrepo.com, Transformed by: SVG Repo Mixer Tools -->
<svg fill="#3795bd" height="800px" width="800px" version="1.1" id="Capa_1" xmlns="http://www.w3.org/2000/svg" xmlns:xlink="http://www.w3.org/1999/xlink" viewBox="0 0 489 489" xml:space="preserve">
<g id="SVGRepo_bgCarrier" stroke-width="0"/>
<g id="SVGRepo_tracerCarrier" stroke-linecap="round" stroke-linejoin="round"/>
<g id="SVGRepo_iconCarrier"> <g> <path d="M112.8,229.15c3,0,5.5,2.5,5.5,5.5v19.8c0,3-2.5,5.5-5.5,5.5H78.4c-3,0-5.5-2.5-5.5-5.5v-19.8c0-3,2.5-5.5,5.5-5.5 L112.8,229.15L112.8,229.15z M0,110.85v267.3c0,6.1,5,11.1,11.1,11.1h338.8c-1.1-2.6-1.7-5.5-1.7-8.5v-20.1c0-2.1,0.4-4.1,1-6h-267 c0.5-2.4,0.7-5,0.7-7.5c0-22.7-18.4-41-41-41c-2.5,0-4.9,0.2-7.2,0.7v-124.6c2.3,0.4,4.7,0.6,7.2,0.6c22.7,0,41-18.4,41-41 c0-2.6-0.3-5.1-0.7-7.5h267v-0.1c-0.2-0.8-0.5-1.7-0.6-2.6c-0.2-1.1-0.3-2.2-0.3-3.4l0,0v-20.1c0-3,0.6-5.9,1.7-8.5l0,0H11.1 C5,99.75,0,104.75,0,110.85z M480.5,352.25H370c-4.7,0-8.5,3.8-8.5,8.5v20.1c0,4.7,3.8,8.5,8.5,8.5h110.5c4.7,0,8.5-3.8,8.5-8.5 v-20.1C489,356.05,485.2,352.25,480.5,352.25z M480.5,301.75H370c-4.7,0-8.5,3.8-8.5,8.5v20.1c0,4.7,3.8,8.5,8.5,8.5h110.5 c4.7,0,8.5-3.8,8.5-8.5v-20.1C489,305.55,485.2,301.75,480.5,301.75z M480.5,251.25H370c-4.7,0-8.5,3.8-8.5,8.5v20.1 c0,4.7,3.8,8.5,8.5,8.5h110.5c4.7,0,8.5-3.8,8.5-8.5v-20.1C489,255.05,485.2,251.25,480.5,251.25z M480.5,200.75H370 c-4.7,0-8.5,3.8-8.5,8.5v20.1c0,4.7,3.8,8.5,8.5,8.5h110.5c4.7,0,8.5-3.8,8.5-8.5v-20.1C489,204.55,485.2,200.75,480.5,200.75z M480.5,150.25H370c-4.7,0-8.5,3.8-8.5,8.5v20.1c0,4.7,3.8,8.5,8.5,8.5h110.5c4.7,0,8.5-3.8,8.5-8.5v-20.1 C489,154.05,485.2,150.25,480.5,150.25z M480.5,99.75H370c-4.7,0-8.5,3.8-8.5,8.5v20.1c0,4.7,3.8,8.5,8.5,8.5h110.5 c4.7,0,8.5-3.8,8.5-8.5v-20.1C489,103.55,485.2,99.75,480.5,99.75z M233.8,155.75c48.9,0,88.5,39.8,88.5,88.8s-39.6,88.8-88.5,88.8 s-88.5-39.8-88.5-88.8C145.3,195.55,184.9,155.75,233.8,155.75z M232,195.05c-7.5,1.2-14.5,3.8-20.6,8.5 c-7.6,5.9-12.6,13.8-15.5,22.9l-0.4,1.1h-10.7c-1.7,0-3.1,1.4-3.1,3.1v6.9c0,1.7,1.4,3.1,3.1,3.1h8.4c0,1.9,0,3.7,0,5.6h-8.4 c-1.7,0-3.1,1.4-3.1,3.1v6.9c0,1.7,1.4,3.1,3.1,3.1h10.1c0.8,2.5,1.4,5,2.4,7.4c5.1,12.4,13.7,21.3,26.7,25.5 c10.7,3.5,21.5,3.4,32.3,0.4c2.8-0.8,5.6-1.8,8.2-3s3.2-3.2,2.2-5.7c-1.1-2.8-2.3-5.5-3.5-8.2c-1.1-2.4-2.5-3.1-5.1-2.5 c-3.3,0.8-6.6,1.8-10,2.5c-6.5,1.3-12.9,1.5-19.3-0.5c-8-2.5-12.3-8.3-14.9-15.9h21.7c1.7,0,3.1-1.4,3.1-3.1v-6.9 c0-1.7-1.4-3.1-3.1-3.1h-23.8c0-1.9,0-3.8,0-5.6h23.8c1.7,0,3.1-1.4,3.1-3.1v-6.9c0-1.7-1.4-3.1-3.1-3.1h-20.8c0-0.1,0-0.2,0-0.2 c2.5-5.7,6.1-10.3,12.1-12.6c6.9-2.8,14-2.7,21.2-1.2c3.4,0.7,6.7,1.7,10.1,2.5c2.5,0.6,3.9-0.2,5-2.5c1.2-2.7,2.4-5.4,3.5-8.1 c1.1-2.6,0.4-4.4-2-5.8c-0.6-0.4-1.2-0.6-1.9-0.9C253,194.75,242.7,193.35,232,195.05z"/> </g> </g>
</svg>