<?xml version="1.0" encoding="UTF-8" standalone="no"?>
<!DOCTYPE svg PUBLIC "-//W3C//DTD SVG 1.1//EN" "http://www.w3.org/Graphics/SVG/1.1/DTD/svg11.dtd">
<svg width="100%" height="100%" viewBox="0 0 199 59" version="1.1" xmlns="http://www.w3.org/2000/svg" xmlns:xlink="http://www.w3.org/1999/xlink" xml:space="preserve" xmlns:serif="http://www.serif.com/" style="fill-rule:evenodd;clip-rule:evenodd;stroke-linejoin:round;stroke-miterlimit:2;">
    <path d="M0,0L0,58.992L40.627,58.992L40.627,0L0,0ZM34.751,53.053L5.855,53.053L5.855,5.943L34.751,5.943L34.751,53.053Z" style="fill:rgb(251,212,44);fill-rule:nonzero;"/>
    <path d="M64.838,20.568L64.781,20.568C61.54,15.289 58.268,10.626 54.968,5.932L52.45,5.932L52.45,26.465L55.229,26.465L55.229,11.739L55.257,11.739C58.53,17.049 61.8,21.743 65.101,26.465L67.619,26.465L67.619,5.932L64.838,5.932L64.838,20.568ZM84.899,26.465L78.443,5.932L75.55,5.932L68.544,26.465L71.554,26.465L73.321,20.862L79.427,20.862L81.02,26.465L84.899,26.465ZM74.217,18.338C75.028,15.639 75.839,13.15 76.562,9.978L76.621,9.978C77.432,13.149 78.155,15.639 78.908,18.338L74.217,18.338ZM88.169,26.465L91.643,26.465L91.643,8.69L96.97,8.69L96.97,5.932L82.844,5.932L82.844,8.69L88.17,8.69L88.17,26.465L88.169,26.465ZM101.542,5.932L98.098,5.932L98.098,26.465L101.542,26.465L101.542,5.932ZM112.255,26.815C117.553,26.815 120.853,22.035 120.853,15.904C120.853,10.155 117.204,5.578 112.255,5.578C107.304,5.578 103.655,10.155 103.655,15.904C103.655,22.036 106.955,26.815 112.255,26.815ZM112.255,8.513C115.7,8.513 117.146,12.12 117.146,15.905C117.146,19.835 115.874,23.883 112.255,23.883C108.636,23.883 107.363,19.836 107.363,15.905C107.363,12.12 108.81,8.513 112.255,8.513ZM125.742,11.739L125.774,11.739C129.044,17.049 132.314,21.743 135.615,26.465L138.133,26.465L138.133,5.932L135.354,5.932L135.354,20.568L135.296,20.568C132.055,15.289 128.783,10.626 125.483,5.932L122.965,5.932L122.965,26.465L125.742,26.465L125.742,11.739ZM143.833,20.862L149.943,20.862L151.535,26.465L155.413,26.465L148.959,5.932L146.064,5.932L139.057,26.465L142.071,26.465L143.833,20.862ZM147.079,9.978L147.136,9.978C147.945,13.149 148.669,15.639 149.424,18.338L144.731,18.338C145.544,15.639 146.352,13.149 147.079,9.978ZM166.732,23.706L159.872,23.706L159.872,5.932L156.426,5.932L156.426,26.465L166.732,26.465L166.732,23.706ZM62.006,49.949C61.281,50.331 60.501,50.449 59.575,50.449C56.594,50.449 53.699,47.573 53.699,42.705C53.699,38.042 56.217,35.078 59.923,35.078C61.255,35.078 62.702,35.576 63.628,36.162L64.756,33.729C63.599,32.847 61.717,32.144 59.835,32.144C53.757,32.144 49.993,37.043 49.993,42.645C49.993,48.688 53.757,53.382 59.718,53.382C61.687,53.382 63.627,52.857 65.481,52.12L65.481,43.641L62.006,43.641L62.006,49.949ZM72.107,43.643L77.782,43.643L77.782,40.887L72.107,40.887L72.107,35.255L77.898,35.255L77.898,32.498L68.635,32.498L68.635,53.031L78.94,53.031L78.94,50.271L72.107,50.271L72.107,43.643ZM88.609,32.145C83.658,32.145 80.012,36.721 80.012,42.471C80.012,48.601 83.311,53.383 88.609,53.383C93.906,53.383 97.205,48.601 97.205,42.471C97.205,36.721 93.558,32.145 88.609,32.145ZM88.609,50.449C84.989,50.449 83.716,46.401 83.716,42.47C83.716,38.685 85.163,35.077 88.609,35.077C92.053,35.077 93.5,38.684 93.5,42.47C93.5,46.401 92.228,50.449 88.609,50.449ZM110.406,49.949C109.683,50.331 108.9,50.449 107.974,50.449C104.992,50.449 102.097,47.573 102.097,42.705C102.097,38.042 104.616,35.078 108.323,35.078C109.654,35.078 111.102,35.576 112.025,36.162L113.155,33.729C111.998,32.847 110.115,32.144 108.232,32.144C102.156,32.144 98.393,37.043 98.393,42.645C98.393,48.688 102.156,53.382 108.12,53.382C110.086,53.382 112.025,52.857 113.88,52.12L113.88,43.641L110.406,43.641L110.406,49.949ZM128.759,38.424C128.759,34.432 126.355,32.498 122.478,32.498L117.064,32.498L117.064,53.031L120.537,53.031L120.537,45.287L122.1,45.287L125.371,53.031L129.336,53.031L125.257,44.523C127.483,43.321 128.759,40.887 128.759,38.424ZM121.985,42.646C121.636,42.676 120.824,42.706 120.536,42.735L120.536,35.256L122.073,35.256C124.125,35.256 125.282,36.456 125.282,38.569C125.282,41.325 123.635,42.559 121.985,42.646ZM136.401,32.498L129.394,53.031L132.403,53.031L134.17,47.427L140.278,47.427L141.874,53.031L145.75,53.031L139.294,32.498L136.401,32.498ZM135.07,44.907C135.88,42.206 136.69,39.713 137.414,36.546L137.473,36.546C138.282,39.713 139.006,42.206 139.76,44.907L135.07,44.907ZM171.167,40.388L163.958,40.388L163.958,32.498L160.513,32.498L160.513,53.031L163.958,53.031L163.958,43.144L171.167,43.144L171.167,53.031L174.639,53.031L174.639,32.554L171.167,32.554L171.167,40.388ZM177.967,53.029L181.411,53.029L181.411,32.498L177.967,32.498L177.967,53.029ZM193.57,50.449C190.212,50.449 187.374,47.573 187.374,42.705C187.374,38.042 189.953,35.078 193.483,35.078C194.815,35.078 196.205,35.693 197.045,36.221L198.144,33.73C196.957,32.908 195.28,32.145 193.484,32.145C187.434,32.145 183.699,37.044 183.699,42.646C183.699,48.689 187.463,53.383 193.428,53.383C195.106,53.383 196.958,52.708 198,51.976L197.046,49.423C196.148,50.009 194.902,50.449 193.57,50.449ZM152.262,32.498L146.852,32.498L146.852,53.031L150.326,53.031L150.326,45.287L151.887,45.287C156.029,45.287 158.545,41.882 158.545,38.424C158.544,34.432 156.144,32.498 152.262,32.498ZM151.771,42.646C151.424,42.673 150.586,42.701 150.325,42.728L150.325,35.255L151.886,35.255C153.914,35.255 155.072,36.455 155.072,38.568C155.071,41.325 153.421,42.559 151.771,42.646Z" style="fill:white;fill-rule:nonzero;"/>
</svg>
