<?xml version="1.0" encoding="UTF-8" standalone="no"?><!DOCTYPE svg PUBLIC "-//W3C//DTD SVG 1.1//EN" "http://www.w3.org/Graphics/SVG/1.1/DTD/svg11.dtd"><svg width="100%" height="100%" viewBox="0 0 250 100" version="1.1" xmlns="http://www.w3.org/2000/svg" xmlns:xlink="http://www.w3.org/1999/xlink" xml:space="preserve" xmlns:serif="http://www.serif.com/" style="fill-rule:evenodd;clip-rule:evenodd;stroke-linejoin:round;stroke-miterlimit:2;"><g id="Symbols"><g id="r20-header-logo"><g id="sury"><path id="suriken" d="M92.383,61.618l-14.195,-0.416l-2.614,-0.34l2.088,1.613l10.331,9.799l-13.605,-4.095l-2.434,-1.01l1.6,2.101l7.458,12.155l-12.088,-7.497l-2.092,-1.609l1.005,2.448l4.072,13.678l-9.745,-10.386l-1.606,-2.097l0.34,2.623l0.414,14.274l-6.74,-12.568l-1.009,-2.444l-0.349,2.624l-3.276,13.896l-3.274,-13.896l-0.346,-2.626l-1.01,2.446l-6.742,12.568l0.414,-14.274l0.34,-2.626l-1.604,2.1l-9.745,10.386l4.073,-13.678l1.002,-2.448l-2.09,1.609l-12.087,7.497l7.455,-12.155l1.602,-2.101l-2.436,1.01l-13.603,4.095l10.329,-9.799l2.088,-1.613l-2.614,0.34l-14.193,0.416l12.499,-6.777l2.433,-1.017l-2.609,-0.349l-13.82,-3.292l13.82,-3.294l2.609,-0.351l-2.433,-1.014l-12.499,-6.777l14.193,0.418l2.614,0.34l-2.088,-1.616l-10.329,-9.799l13.603,4.098l2.436,1.01l-1.602,-2.104l-7.455,-12.154l12.087,7.497l2.09,1.609l-1.002,-2.446l-4.073,-13.682l9.745,10.388l1.604,2.099l-0.34,-2.628l-0.414,-14.274l6.742,12.571l1.01,2.446l0.346,-2.626l3.274,-13.894l3.276,13.894l0.349,2.626l1.009,-2.446l6.74,-12.571l-0.414,14.274l-0.34,2.628l1.606,-2.099l9.745,-10.388l-4.072,13.682l-1.005,2.446l2.092,-1.609l12.088,-7.497l-7.458,12.154l-1.6,2.104l2.434,-1.01l13.605,-4.098l-10.331,9.799l-2.088,1.616l2.614,-0.34l14.195,-0.418l-12.501,6.777l-2.432,1.014l2.611,0.351l13.817,3.294l-13.817,3.292l-2.611,0.349l2.432,1.017l12.501,6.777Zm-42.447,3.291c8.084,0 14.649,-6.59 14.649,-14.728c0,-8.125 -6.565,-14.728 -14.649,-14.728c-8.098,0 -14.646,6.603 -14.646,14.728c0,8.138 6.548,14.728 14.646,14.728Z" style="fill:#e4002b;"/></g><path id="rijeka2020txt" d="M144.474,52.461c7.796,0 11.181,5.416 11.181,12.644c0,6.01 -2.408,13.166 -11.372,13.166c-7.39,0 -11.253,-4.746 -11.253,-12.665c-0,-7.658 3.599,-13.145 11.444,-13.145Zm47.492,0c7.82,0 11.181,5.416 11.181,12.644l-0.008,0.566c-0.149,5.884 -2.681,12.6 -11.364,12.6c-7.391,0 -11.254,-4.746 -11.254,-12.665c-0,-7.658 3.601,-13.145 11.445,-13.145Zm24.384,13.999c3.651,0 5.476,2.238 5.476,5.148l-0,0.326l-7.084,2.76c0.696,0.543 1.652,0.717 2.695,0.717c1.324,0 2.89,-0.326 3.846,-0.608l0.194,2.432c-1.346,0.501 -2.91,0.784 -4.453,0.784c-3.651,0 -6.476,-1.436 -6.476,-5.672c0,-3.607 2.347,-5.887 5.802,-5.887Zm10.149,0.302l0,6.28c0,1.782 0.694,2.282 2.194,2.282c0.89,0 2.064,-0.305 2.998,-1.217l0,-7.345l3.02,0l0,10.995l-3.02,0l0,-1.282c-1.064,0.933 -2.52,1.543 -4.02,1.543l-0.32,-0.006c-1.689,-0.07 -3.894,-0.741 -3.894,-3.905l0,-7.345l3.042,-0Zm-106.152,-14.299c5.101,-0 8.678,3.028 8.678,7.346c0,5.749 -5.961,11.519 -11.373,14.239l12.517,-0l0,3.745l-19.169,-0l0,-3.745l0.579,-0.254c5.213,-2.361 12.94,-7.921 12.94,-13.461c0,-2.697 -2.337,-4.007 -4.864,-4.007c-2.146,-0 -4.602,1.002 -6.247,2.195l-2.218,-3.149c2.386,-1.765 5.365,-2.909 9.157,-2.909Zm47.515,-0c5.101,-0 8.678,3.028 8.678,7.346c0,5.749 -5.961,11.519 -11.373,14.239l12.517,-0l0,3.745l-19.169,-0l0,-3.745l0.579,-0.254c5.213,-2.361 12.94,-7.921 12.94,-13.461c0,-2.697 -2.337,-4.007 -4.864,-4.007c-2.146,-0 -4.601,1.002 -6.246,2.195l-2.217,-3.149c2.384,-1.765 5.364,-2.909 9.155,-2.909Zm39.754,22.057l0,3.237l-3.216,0l0,-3.237l3.216,-0Zm-58.398,-16.237l-7.152,15.86c0.691,0.192 1.454,0.262 2.384,0.262c4.84,-0 6.652,-3.552 6.652,-9.111c0,-2.861 -0.454,-5.389 -1.884,-7.011Zm47.491,-0l-7.152,15.86c0.692,0.192 1.455,0.262 2.384,0.262c4.864,-0 6.652,-3.552 6.652,-9.111c0,-2.861 -0.453,-5.389 -1.884,-7.011Zm19.62,10.739c-1.478,0 -2.586,1.044 -2.586,3.238c0,0.196 0,0.37 0.021,0.542l4.586,-1.998c0,-1.173 -0.783,-1.782 -2.021,-1.782Zm-72.094,-12.672c-4.815,-0 -6.652,3.555 -6.652,8.921c0,3.293 0.501,5.772 1.907,7.347l7.153,-15.933c-0.691,-0.239 -1.502,-0.335 -2.408,-0.335Zm47.516,-0c-4.817,-0 -6.652,3.555 -6.652,8.921c0,3.293 0.477,5.772 1.907,7.347l7.153,-15.933c-0.691,-0.239 -1.503,-0.335 -2.408,-0.335Zm-33.044,-35.348l0,18.079c0,5.128 -3.219,7.274 -7.51,7.274c-2.86,-0 -5.293,-0.427 -7.391,-1.454l1.288,-3.793c1.502,0.691 3.218,1.311 4.982,1.311c2.766,-0 4.316,-1.121 4.316,-3.839l-0,-17.578l4.315,-0Zm-35.595,-0c6.389,-0 8.488,3.29 8.488,7.511c-0,3.483 -1.646,5.751 -4.602,6.967l5.388,10.423l-5.054,-0l-4.673,-9.374l-5.675,0.692l-0,8.682l-4.291,-0l-0,-24.901l10.419,-0Zm104.282,-0l7.223,24.901l-4.626,-0l-1.715,-6.059l-11.111,-0l-1.645,6.059l-4.41,-0l6.937,-24.901l9.347,-0Zm-86.519,-0.002l-0,24.902l-4.315,-0l-0,-24.902l4.315,-0Zm41.673,-0l-0,3.746l-13.781,-0l-0,4.674l13.4,-0l-0,3.747l-13.4,-0l-0,8.967l14.544,-0l-0,3.744l-18.882,-0l-0,-24.878l18.119,-0Zm9.775,-0l-0,11.64l10.729,-11.64l5.436,-0l-10.229,10.758l10.538,14.12l-5.365,-0l-8.081,-11.02l-3.028,3.173l-0,7.847l-4.315,-0l-0,-24.878l4.315,-0Zm31.732,3.769l-2.718,-0l-3.147,11.331l9.036,-0l-3.171,-11.331Zm-101.253,-0l-5.769,-0l-0,8.538l4.649,-0.499c4.029,-0.455 5.364,-1.526 5.364,-4.246c-0,-2.457 -1.144,-3.793 -4.244,-3.793Z"/></g></g></svg>