<?xml version="1.0" encoding="UTF-8" standalone="no"?>
<!DOCTYPE svg PUBLIC "-//W3C//DTD SVG 1.1//EN" "http://www.w3.org/Graphics/SVG/1.1/DTD/svg11.dtd">
<svg width="100%" height="100%" viewBox="0 0 250 100" version="1.1" xmlns="http://www.w3.org/2000/svg" xmlns:xlink="http://www.w3.org/1999/xlink" xml:space="preserve" xmlns:serif="http://www.serif.com/" style="fill-rule:evenodd;clip-rule:evenodd;stroke-linejoin:round;stroke-miterlimit:2;">
    <g id="Symbols">
        <g id="r20-header-logo">
            <g id="sury">
                <path id="suriken" d="M92.383,61.618L78.188,61.202L75.574,60.862L77.662,62.475L87.993,72.274L74.388,68.179L71.954,67.169L73.554,69.27L81.012,81.425L68.924,73.928L66.832,72.319L67.837,74.767L71.909,88.445L62.164,78.059L60.558,75.962L60.898,78.585L61.312,92.859L54.572,80.291L53.563,77.847L53.214,80.471L49.938,94.367L46.664,80.471L46.318,77.845L45.308,80.291L38.566,92.859L38.98,78.585L39.32,75.959L37.716,78.059L27.971,88.445L32.044,74.767L33.046,72.319L30.956,73.928L18.869,81.425L26.324,69.27L27.926,67.169L25.49,68.179L11.887,72.274L22.216,62.475L24.304,60.862L21.69,61.202L7.497,61.618L19.996,54.841L22.429,53.824L19.82,53.475L6,50.183L19.82,46.889L22.429,46.538L19.996,45.524L7.497,38.747L21.69,39.165L24.304,39.505L22.216,37.889L11.887,28.09L25.49,32.188L27.926,33.198L26.324,31.094L18.869,18.94L30.956,26.437L33.046,28.046L32.044,25.6L27.971,11.918L37.716,22.306L39.32,24.405L38.98,21.777L38.566,7.503L45.308,20.074L46.318,22.52L46.664,19.894L49.938,6L53.214,19.894L53.563,22.52L54.572,20.074L61.312,7.503L60.898,21.777L60.558,24.405L62.164,22.306L71.909,11.918L67.837,25.6L66.832,28.046L68.924,26.437L81.012,18.94L73.554,31.094L71.954,33.198L74.388,32.188L87.993,28.09L77.662,37.889L75.574,39.505L78.188,39.165L92.383,38.747L79.882,45.524L77.45,46.538L80.061,46.889L93.878,50.183L80.061,53.475L77.45,53.824L79.882,54.841L92.383,61.618ZM49.936,64.909C58.02,64.909 64.585,58.319 64.585,50.181C64.585,42.056 58.02,35.453 49.936,35.453C41.838,35.453 35.29,42.056 35.29,50.181C35.29,58.319 41.838,64.909 49.936,64.909Z" style="fill:rgb(228,0,43);"/>
            </g>
            <path id="rijeka2020txt" d="M144.474,52.461C152.27,52.461 155.655,57.877 155.655,65.105C155.655,71.115 153.247,78.271 144.283,78.271C136.893,78.271 133.03,73.525 133.03,65.606C133.03,57.948 136.629,52.461 144.474,52.461ZM191.966,52.461C199.786,52.461 203.147,57.877 203.147,65.105L203.139,65.671C202.99,71.555 200.458,78.271 191.775,78.271C184.384,78.271 180.521,73.525 180.521,65.606C180.521,57.948 184.122,52.461 191.966,52.461ZM216.35,66.46C220.001,66.46 221.826,68.698 221.826,71.608L221.826,71.934L214.742,74.694C215.438,75.237 216.394,75.411 217.437,75.411C218.761,75.411 220.327,75.085 221.283,74.803L221.477,77.235C220.131,77.736 218.567,78.019 217.024,78.019C213.373,78.019 210.548,76.583 210.548,72.347C210.548,68.74 212.895,66.46 216.35,66.46ZM226.499,66.762L226.499,73.042C226.499,74.824 227.193,75.324 228.693,75.324C229.583,75.324 230.757,75.019 231.691,74.107L231.691,66.762L234.711,66.762L234.711,77.757L231.691,77.757L231.691,76.475C230.627,77.408 229.171,78.018 227.671,78.018L227.351,78.012C225.662,77.942 223.457,77.271 223.457,74.107L223.457,66.762L226.499,66.762ZM120.347,52.463C125.448,52.463 129.025,55.491 129.025,59.809C129.025,65.558 123.064,71.328 117.652,74.048L130.169,74.048L130.169,77.793L111,77.793L111,74.048L111.579,73.794C116.792,71.433 124.519,65.873 124.519,60.333C124.519,57.636 122.182,56.326 119.655,56.326C117.509,56.326 115.053,57.328 113.408,58.521L111.19,55.372C113.576,53.607 116.555,52.463 120.347,52.463ZM167.862,52.463C172.963,52.463 176.54,55.491 176.54,59.809C176.54,65.558 170.579,71.328 165.167,74.048L177.684,74.048L177.684,77.793L158.515,77.793L158.515,74.048L159.094,73.794C164.307,71.433 172.034,65.873 172.034,60.333C172.034,57.636 169.697,56.326 167.17,56.326C165.024,56.326 162.569,57.328 160.924,58.521L158.707,55.372C161.091,53.607 164.071,52.463 167.862,52.463ZM207.616,74.52L207.616,77.757L204.4,77.757L204.4,74.52L207.616,74.52ZM149.218,58.283L142.066,74.143C142.757,74.335 143.52,74.405 144.45,74.405C149.29,74.405 151.102,70.853 151.102,65.294C151.102,62.433 150.648,59.905 149.218,58.283ZM196.709,58.283L189.557,74.143C190.249,74.335 191.012,74.405 191.941,74.405C196.805,74.405 198.593,70.853 198.593,65.294C198.593,62.433 198.14,59.905 196.709,58.283ZM216.329,69.022C214.851,69.022 213.743,70.066 213.743,72.26C213.743,72.456 213.743,72.63 213.764,72.802L218.35,70.804C218.35,69.631 217.567,69.022 216.329,69.022ZM144.235,56.35C139.42,56.35 137.583,59.905 137.583,65.271C137.583,68.564 138.084,71.043 139.49,72.618L146.643,56.685C145.952,56.446 145.141,56.35 144.235,56.35ZM191.751,56.35C186.934,56.35 185.099,59.905 185.099,65.271C185.099,68.564 185.576,71.043 187.006,72.618L194.159,56.685C193.468,56.446 192.656,56.35 191.751,56.35ZM158.707,21.002L158.707,39.081C158.707,44.209 155.488,46.355 151.197,46.355C148.337,46.355 145.904,45.928 143.806,44.901L145.094,41.108C146.596,41.799 148.312,42.419 150.076,42.419C152.842,42.419 154.392,41.298 154.392,38.58L154.392,21.002L158.707,21.002ZM123.112,21.002C129.501,21.002 131.6,24.292 131.6,28.513C131.6,31.996 129.954,34.264 126.998,35.48L132.386,45.903L127.332,45.903L122.659,36.529L116.984,37.221L116.984,45.903L112.693,45.903L112.693,21.002L123.112,21.002ZM227.394,21.002L234.617,45.903L229.991,45.903L228.276,39.844L217.165,39.844L215.52,45.903L211.11,45.903L218.047,21.002L227.394,21.002ZM140.875,21L140.875,45.902L136.56,45.902L136.56,21L140.875,21ZM182.548,21L182.548,24.746L168.767,24.746L168.767,29.42L182.167,29.42L182.167,33.167L168.767,33.167L168.767,42.134L183.311,42.134L183.311,45.878L164.429,45.878L164.429,21L182.548,21ZM192.323,21L192.323,32.64L203.052,21L208.488,21L198.259,31.758L208.797,45.878L203.432,45.878L195.351,34.858L192.323,38.031L192.323,45.878L188.008,45.878L188.008,21L192.323,21ZM224.055,24.769L221.337,24.769L218.19,36.1L227.226,36.1L224.055,24.769ZM122.802,24.769L117.033,24.769L117.033,33.307L121.682,32.808C125.711,32.353 127.046,31.282 127.046,28.562C127.046,26.105 125.902,24.769 122.802,24.769Z" style="fill:white;"/>
        </g>
    </g>
</svg>
