<?xml version="1.0" encoding="UTF-8" standalone="no"?>
<!DOCTYPE svg PUBLIC "-//W3C//DTD SVG 1.1//EN" "http://www.w3.org/Graphics/SVG/1.1/DTD/svg11.dtd">
<svg width="100%" height="100%" viewBox="0 0 720 325" version="1.1" xmlns="http://www.w3.org/2000/svg" xmlns:xlink="http://www.w3.org/1999/xlink" xml:space="preserve" xmlns:serif="http://www.serif.com/" style="fill-rule:evenodd;clip-rule:evenodd;stroke-linejoin:round;stroke-miterlimit:2;">
    <rect id="Artboard1" x="0" y="0" width="720" height="325" style="fill:none;"/>
    <g id="Artboard11" serif:id="Artboard1">
        <g transform="matrix(2.60853,0,0,2.60853,-7465.58,-3337.67)">
            <g transform="matrix(0.311356,0,0,0.311356,2701.58,1174.25)">
                <g opacity="0.5">
                    <g transform="matrix(1,0,0,1,599.826,447.392)">
                        <path d="M0,-0.001C0,11.718 9.49,21.207 21.208,21.207C32.926,21.207 42.417,11.718 42.417,-0.001C42.417,-11.719 32.926,-21.209 21.208,-21.209C9.49,-21.209 0,-11.719 0,-0.001M56.363,-0.001C56.363,19.368 40.577,35.153 21.208,35.153C1.84,35.153 -13.946,19.368 -13.946,-0.001C-13.946,-19.37 1.84,-35.154 21.208,-35.154C40.577,-35.154 56.363,-19.37 56.363,-0.001" style="fill:rgb(213,213,213);fill-rule:nonzero;"/>
                    </g>
                </g>
            </g>
            <g transform="matrix(0.311356,0,0,0.311356,2701.58,1174.25)">
                <g opacity="0.2">
                    <g transform="matrix(1,0,0,1,604.544,369.192)">
                        <path d="M0,-0.001C0,9.111 7.379,16.49 16.491,16.49C25.602,16.49 32.982,9.111 32.982,-0.001C32.982,-9.112 25.602,-16.492 16.491,-16.492C7.379,-16.492 0,-9.112 0,-0.001M43.825,-0.001C43.825,15.059 31.551,27.333 16.491,27.333C1.43,27.333 -10.844,15.059 -10.844,-0.001C-10.844,-15.062 1.43,-27.334 16.491,-27.334C31.551,-27.334 43.825,-15.062 43.825,-0.001" style="fill:rgb(213,213,213);fill-rule:nonzero;"/>
                    </g>
                </g>
            </g>
            <g transform="matrix(0.311356,0,0,0.311356,2701.58,1174.25)">
                <g opacity="0.5">
                    <g transform="matrix(1,0,0,1,642.243,628.99)">
                        <path d="M0,0.002C0,-11.717 -9.49,-21.207 -21.209,-21.207C-32.926,-21.207 -42.417,-11.717 -42.417,0.002C-42.417,11.719 -32.926,21.21 -21.209,21.21C-9.49,21.21 0,11.719 0,0.002M-56.363,0.002C-56.363,-19.367 -40.577,-35.152 -21.209,-35.152C-1.84,-35.152 13.946,-19.367 13.946,0.002C13.946,19.371 -1.84,35.154 -21.209,35.154C-40.577,35.154 -56.363,19.371 -56.363,0.002" style="fill:rgb(213,213,213);fill-rule:nonzero;"/>
                    </g>
                </g>
            </g>
            <g transform="matrix(0.311356,0,0,0.311356,2701.58,1174.25)">
                <g opacity="0.2">
                    <g transform="matrix(1,0,0,1,637.526,707.191)">
                        <path d="M0,0.002C0,-9.11 -7.379,-16.489 -16.491,-16.489C-25.602,-16.489 -32.982,-9.11 -32.982,0.002C-32.982,9.113 -25.602,16.493 -16.491,16.493C-7.379,16.493 0,9.113 0,0.002M-43.825,0.002C-43.825,-15.059 -31.551,-27.333 -16.491,-27.333C-1.43,-27.333 10.844,-15.059 10.844,0.002C10.844,15.062 -1.43,27.335 -16.491,27.335C-31.551,27.335 -43.825,15.062 -43.825,0.002" style="fill:rgb(213,213,213);fill-rule:nonzero;"/>
                    </g>
                </g>
            </g>
            <g transform="matrix(0.311356,0,0,0.311356,2887.44,1341.82)">
                <path d="M0,-0.003C0,13.31 10.78,24.089 24.092,24.089C37.403,24.089 48.185,13.31 48.185,-0.003C48.185,-13.314 37.403,-24.095 24.092,-24.095C10.78,-24.095 0,-13.314 0,-0.003M64.027,-0.003C64.027,21.999 46.095,39.932 24.092,39.932C2.09,39.932 -15.842,21.999 -15.842,-0.003C-15.842,-22.005 2.09,-39.935 24.092,-39.935C46.095,-39.935 64.027,-22.005 64.027,-0.003" style="fill:rgb(213,213,213);fill-rule:nonzero;"/>
            </g>
            <g transform="matrix(0.311356,0,0,0.311356,2916.29,1334.59)">
                <path d="M0,46.423L28.712,46.423L28.712,61.715L-15.403,61.715L-15.403,-15.292L0,-15.292L0,46.423Z" style="fill:rgb(213,213,213);fill-rule:nonzero;"/>
            </g>
            <g transform="matrix(0.311356,0,0,0.311356,2934.47,1334.59)">
                <path d="M0,46.423L28.712,46.423L28.712,61.715L-15.403,61.715L-15.403,-15.292L0,-15.292L0,46.423Z" style="fill:rgb(213,213,213);fill-rule:nonzero;"/>
            </g>
            <g transform="matrix(-0.311356,0,0,0.311356,3208.78,648.24)">
                <rect x="788.805" y="2189.1" width="51.375" height="15.401" style="fill:rgb(213,213,213);"/>
            </g>
            <g transform="matrix(0.311356,0,0,0.311356,2701.58,667.455)">
                <rect x="788.806" y="2158.24" width="35.329" height="15.401" style="fill:rgb(213,213,213);"/>
            </g>
            <g transform="matrix(0.311356,0,0,0.311356,2701.58,686.671)">
                <rect x="788.806" y="2127.39" width="51.045" height="15.402" style="fill:rgb(213,213,213);"/>
            </g>
            <g transform="matrix(0.311356,0,0,0.311356,2972.08,1349.05)">
                <path d="M0,-46.426L0,15.291L-15.403,15.291L-15.403,-61.827L14.74,-61.827C27.502,-61.827 37.844,-51.377 37.844,-38.615C37.844,-29.264 32.343,-21.234 24.312,-17.603L46.42,15.401L28.324,15.401L8.8,-15.512L8.8,-30.913L14.74,-30.913C19.032,-30.913 22.442,-34.325 22.442,-38.615C22.442,-42.905 19.032,-46.426 14.74,-46.426L0,-46.426Z" style="fill:rgb(213,213,213);fill-rule:nonzero;"/>
            </g>
            <g transform="matrix(0.311356,0,0,0.311356,3015.33,1353.84)">
                <path d="M0,-77.118L0,-61.717L-21.342,-61.717L-21.342,0L-36.743,0L-36.743,-61.717L-58.196,-61.717L-58.196,-77.118L0,-77.118Z" style="fill:rgb(213,213,213);fill-rule:nonzero;"/>
            </g>
            <g transform="matrix(0.311356,0,0,0.311356,3053.66,1348.12)">
                <path d="M0,-40.042C-14.963,-49.724 -37.515,-40.703 -37.515,-20.02C-37.515,1.651 -13.642,10.342 0.879,-0.659L10.78,10.672C3.851,16.393 -5.062,19.912 -14.742,19.912C-36.744,19.912 -54.676,1.98 -54.676,-20.02C-54.676,-42.022 -36.744,-59.954 -14.742,-59.954C-5.501,-59.954 3.079,-56.764 9.901,-51.484L0,-40.042Z" style="fill:rgb(213,213,213);fill-rule:nonzero;"/>
            </g>
            <g transform="matrix(0.311356,0,0,0.311356,3075.13,1353.84)">
                <path d="M0,-77.008L15.401,-77.008L15.401,0L0,0L0,-32.123L-28.494,-32.123L-28.494,0L-43.895,0L-43.895,-77.008L-28.494,-77.008L-28.494,-47.524L0,-47.524L0,-77.008Z" style="fill:rgb(213,213,213);fill-rule:nonzero;"/>
            </g>
            <g transform="matrix(0.311356,0,0,0.311356,3102.67,1329.83)">
                <path d="M0,77.118L-43.345,32.123L-43.345,77.118L-58.746,77.118L-58.746,0L-53.906,0L-11.332,43.124L-11.332,0L4.07,0L4.07,77.118L0,77.118Z" style="fill:rgb(213,213,213);fill-rule:nonzero;"/>
            </g>
            <g transform="matrix(0.311356,0,0,0.311356,2701.58,667.422)">
                <rect x="1306.58" y="2127.49" width="15.403" height="77.008" style="fill:rgb(213,213,213);"/>
            </g>
            <g transform="matrix(0.311356,0,0,0.311356,3133.64,1348.12)">
                <path d="M0,-40.042C-14.963,-49.724 -37.515,-40.703 -37.515,-20.02C-37.515,1.651 -13.642,10.342 0.879,-0.659L10.78,10.672C3.851,16.393 -5.062,19.912 -14.742,19.912C-36.744,19.912 -54.676,1.98 -54.676,-20.02C-54.676,-42.022 -36.744,-59.954 -14.742,-59.954C-5.501,-59.954 3.078,-56.764 9.901,-51.484L0,-40.042Z" style="fill:rgb(213,213,213);fill-rule:nonzero;"/>
            </g>
            <g transform="matrix(0.311356,0,0,0.311356,2867.8,1349.05)">
                <path d="M0,-46.426L0,15.291L-15.403,15.291L-15.403,-61.827L14.74,-61.827C27.502,-61.827 37.844,-51.377 37.844,-38.615C37.844,-29.264 32.343,-21.234 24.312,-17.603L46.42,15.401L28.324,15.401L8.8,-15.512L8.8,-30.913L14.74,-30.913C19.032,-30.913 22.442,-34.325 22.442,-38.615C22.442,-42.905 19.032,-46.426 14.74,-46.426L0,-46.426Z" style="fill:rgb(213,213,213);fill-rule:nonzero;"/>
            </g>
            <g transform="matrix(-0.311356,0,0,0.311356,3351.58,648.24)">
                <rect x="1018.13" y="2189.1" width="51.375" height="15.401" style="fill:rgb(213,213,213);"/>
            </g>
            <g transform="matrix(0.311356,0,0,0.311356,2701.58,667.455)">
                <rect x="1018.13" y="2158.24" width="35.329" height="15.401" style="fill:rgb(213,213,213);"/>
            </g>
            <g transform="matrix(0.311356,0,0,0.311356,2701.58,686.671)">
                <rect x="1018.13" y="2127.39" width="51.045" height="15.402" style="fill:rgb(213,213,213);"/>
            </g>
        </g>
    </g>
</svg>
