<?xml version="1.0" encoding="UTF-8" standalone="no"?>
<!DOCTYPE svg PUBLIC "-//W3C//DTD SVG 1.1//EN" "http://www.w3.org/Graphics/SVG/1.1/DTD/svg11.dtd">
<svg width="100%" height="100%" viewBox="0 0 256 74" version="1.1" xmlns="http://www.w3.org/2000/svg" xmlns:xlink="http://www.w3.org/1999/xlink" xml:space="preserve" xmlns:serif="http://www.serif.com/" style="fill-rule:evenodd;clip-rule:evenodd;stroke-linejoin:round;stroke-miterlimit:2;">
    <g>
        <rect x="225.936" y="23.328" width="3.456" height="3.528" style="fill:white;"/>
        <rect x="235.368" y="23.328" width="3.456" height="3.528" style="fill:white;"/>
        <path d="M182.304,47.088L177.84,38.375C179.783,37.729 181.44,35.928 181.44,33.12C181.44,29.808 179.064,27 174.96,27L167.112,27L167.112,47.088L171,47.088L171,39.024L173.809,39.024L177.769,47.088L182.304,47.088ZM177.552,33.12C177.552,34.704 176.4,35.784 174.743,35.784L171,35.784L171,30.456L174.744,30.456C176.4,30.456 177.552,31.608 177.552,33.12Z" style="fill:white;"/>
        <path d="M241.2,47.088L233.856,27L230.832,27L223.488,47.088L227.592,47.088L228.816,43.488L235.944,43.488L237.096,47.088L241.2,47.088ZM234.864,40.176L229.896,40.176L232.416,32.904L234.864,40.176Z" style="fill:white;"/>
        <path d="M100.008,40.176L100.008,27L96.12,27L96.12,40.031C96.12,42.336 94.68,43.703 92.592,43.703C90.504,43.703 89.136,42.336 89.136,40.031L89.136,27L85.248,27L85.248,40.176C85.248,44.424 88.488,47.233 92.592,47.233C96.696,47.233 100.008,44.424 100.008,40.176Z" style="fill:white;"/>
        <path d="M119.952,47.088L119.952,27L115.992,27L115.992,39.24L108.072,27L104.544,27L104.544,47.088L108.504,47.088L108.504,34.704L116.424,47.088L119.952,47.088Z" style="fill:white;"/>
        <rect x="124.632" y="27" width="3.96" height="20.088" style="fill:white;"/>
        <path d="M147.384,27L143.28,27L139.248,40.031L135.216,27L131.184,27L137.808,47.088L140.688,47.088L147.384,27Z" style="fill:white;"/>
        <path d="M163.152,47.016L163.152,43.561L153.864,43.561L153.864,38.664L161.784,38.664L161.784,35.208L153.864,35.208L153.864,30.456L163.152,30.456L163.152,27L149.976,27L149.976,47.016L163.152,47.016Z" style="fill:white;"/>
        <path d="M198.648,41.111C198.648,39.384 198.144,37.871 197.064,36.863C196.272,36.071 195.12,35.567 193.248,35.351L190.872,34.991C190.08,34.847 189.433,34.559 189,34.199C188.641,33.839 188.425,33.263 188.425,32.759C188.425,31.391 189.433,30.239 191.521,30.239C192.889,30.239 194.401,30.383 195.625,31.607L198.146,29.159C196.417,27.503 194.402,26.783 191.666,26.783C187.347,26.783 184.683,29.303 184.683,32.903C184.683,34.559 185.115,35.855 186.122,36.863C186.986,37.728 188.282,38.232 190.011,38.519L192.387,38.878C193.323,39.023 193.826,39.167 194.187,39.526C194.619,39.958 194.834,40.534 194.834,41.255C194.834,42.839 193.538,43.702 191.234,43.702C189.434,43.702 187.706,43.27 186.41,42.048L183.89,44.568C185.833,46.584 188.138,47.232 191.234,47.232C195.408,47.232 198.648,45 198.648,41.111Z" style="fill:white;"/>
        <rect x="202.464" y="27" width="3.888" height="20.088" style="fill:white;"/>
        <path d="M224.136,30.456L224.136,27L209.736,27L209.736,30.456L214.992,30.456L214.992,47.016L218.88,47.016L218.88,30.456L224.136,30.456Z" style="fill:white;"/>
        <path d="M255.024,30.456L255.024,27L240.624,27L240.624,30.456L245.88,30.456L245.88,47.088L249.768,47.088L249.768,30.456L255.024,30.456Z" style="fill:white;"/>
        <path d="M99.792,63.648C99.792,60.623 100.08,57.888 97.776,55.656C96.48,54.287 94.608,53.711 92.52,53.711L85.248,53.711L85.248,73.801L92.52,73.801C94.608,73.801 96.48,73.225 97.776,71.856C100.08,69.623 99.792,66.672 99.792,63.648ZM95.904,63.648C95.904,66.744 95.76,68.183 95.04,69.048C94.392,69.839 93.456,70.271 92.16,70.271L89.208,70.271L89.208,57.24L92.16,57.24C93.456,57.24 94.392,57.672 95.04,58.465C95.76,59.328 95.904,60.623 95.904,63.648Z" style="fill:white;"/>
        <path d="M119.16,73.801L114.696,65.16C116.64,64.439 118.368,62.711 118.368,59.904C118.368,56.519 115.92,53.711 111.816,53.711L103.968,53.711L103.968,73.801L107.856,73.801L107.856,65.809L110.736,65.809L114.624,73.801L119.16,73.801ZM114.408,59.904C114.408,61.416 113.328,62.496 111.6,62.496L107.856,62.496L107.856,57.24L111.6,57.24C113.328,57.24 114.408,58.32 114.408,59.904Z" style="fill:white;"/>
        <path d="M135.792,73.801L135.792,70.271L126.432,70.271L126.432,65.447L134.352,65.447L134.352,61.92L126.432,61.92L126.432,57.24L135.792,57.24L135.792,53.711L122.544,53.711L122.544,73.801L135.792,73.801Z" style="fill:white;"/>
        <path d="M152.711,67.896C152.711,66.095 152.207,64.656 151.128,63.648C150.264,62.855 149.111,62.351 147.312,62.064L144.936,61.703C144.144,61.633 143.496,61.271 143.064,60.912C142.632,60.553 142.488,59.976 142.488,59.473C142.488,58.104 143.496,56.952 145.584,56.952C146.881,56.952 148.465,57.169 149.688,58.321L152.208,55.872C150.48,54.218 148.465,53.569 145.729,53.569C141.336,53.569 138.745,56.089 138.745,59.616C138.745,61.345 139.178,62.641 140.113,63.577C141.05,64.44 142.345,65.016 144.073,65.233L146.449,65.592C147.386,65.737 147.817,65.951 148.249,66.313C148.682,66.672 148.825,67.249 148.825,67.969C148.825,69.623 147.601,70.489 145.298,70.489C143.426,70.489 141.697,70.057 140.474,68.76L137.953,71.28C139.897,73.296 142.201,73.944 145.225,73.944C149.472,73.943 152.711,71.783 152.711,67.896Z" style="fill:white;"/>
        <path d="M171.072,63.648C171.072,60.623 171.288,57.888 169.056,55.656C167.76,54.287 165.816,53.711 163.728,53.711L156.528,53.711L156.528,73.801L163.728,73.801C165.816,73.801 167.76,73.225 169.056,71.856C171.288,69.623 171.072,66.672 171.072,63.648ZM167.184,63.648C167.184,66.744 167.039,68.183 166.32,69.048C165.673,69.839 164.736,70.271 163.368,70.271L160.416,70.271L160.416,57.24L163.368,57.24C164.736,57.24 165.673,57.672 166.32,58.465C167.04,59.328 167.184,60.623 167.184,63.648Z" style="fill:white;"/>
        <path d="M188.424,73.801L188.424,70.271L179.136,70.271L179.136,65.447L187.056,65.447L187.056,61.92L179.136,61.92L179.136,57.24L188.424,57.24L188.424,53.711L175.248,53.711L175.248,73.801L188.424,73.801Z" style="fill:white;"/>
        <path d="M207.792,73.801L207.792,53.711L203.832,53.711L203.832,66.023L195.912,53.711L192.384,53.711L192.384,73.801L196.344,73.801L196.344,61.488L204.264,73.801L207.792,73.801Z" style="fill:white;"/>
        <path d="M99.648,3.672L99.648,0.216L85.248,0.216L85.248,3.672L90.504,3.672L90.504,20.232L94.392,20.232L94.392,3.672L99.648,3.672Z" style="fill:white;"/>
        <path d="M116.496,20.232L116.496,16.776L107.136,16.776L107.136,11.88L115.056,11.88L115.056,8.424L107.136,8.424L107.136,3.672L116.496,3.672L116.496,0.216L103.248,0.216L103.248,20.232L116.496,20.232Z" style="fill:white;"/>
        <path d="M134.711,14.112L130.751,14.112C130.319,15.696 129.312,16.92 127.367,16.92C126.287,16.92 125.423,16.56 124.847,15.912C124.055,15.048 123.839,14.112 123.839,10.224C123.839,6.336 124.055,5.4 124.847,4.536C125.423,3.888 126.287,3.528 127.367,3.528C129.311,3.528 130.319,4.752 130.751,6.336L134.711,6.336C133.992,2.16 131.04,0 127.296,0C125.136,0 123.336,0.792 121.896,2.232C119.88,4.248 119.952,6.768 119.952,10.224C119.952,13.68 119.88,16.2 121.896,18.216C123.336,19.656 125.136,20.448 127.296,20.448C131.04,20.448 133.992,18.288 134.711,14.112Z" style="fill:white;"/>
        <path d="M153,20.232L153,0.216L149.112,0.216L149.112,8.424L142.272,8.424L142.272,0.216L138.384,0.216L138.384,20.232L142.272,20.232L142.272,11.88L149.112,11.88L149.112,20.232L153,20.232Z" style="fill:white;"/>
        <path d="M173.375,20.232L173.375,0.216L169.488,0.216L169.488,12.456L161.496,0.216L158.04,0.216L158.04,20.232L161.928,20.232L161.928,7.92L169.919,20.232L173.375,20.232Z" style="fill:white;"/>
        <rect x="178.416" y="0.216" width="3.888" height="20.016" style="fill:white;"/>
        <path d="M200.304,14.328C200.304,12.6 199.8,11.088 198.72,10.08C197.928,9.288 196.776,8.784 194.904,8.568L192.528,8.208C191.736,8.064 191.088,7.776 190.656,7.416C190.297,6.984 190.08,6.48 190.08,5.977C190.08,4.609 191.088,3.457 193.177,3.457C194.544,3.457 196.057,3.601 197.281,4.825L199.802,2.377C198.072,0.72 196.056,0 193.32,0C189,0 186.336,2.52 186.336,6.12C186.336,7.776 186.769,9.072 187.776,10.08C188.64,10.944 189.936,11.448 191.664,11.736L194.04,12.096C194.977,12.24 195.48,12.384 195.841,12.744C196.273,13.176 196.488,13.752 196.488,14.472C196.488,16.056 195.192,16.92 192.888,16.92C191.087,16.92 189.36,16.488 188.064,15.264L185.543,17.784C187.487,19.8 189.791,20.448 192.888,20.448C197.064,20.448 200.304,18.216 200.304,14.328Z" style="fill:white;"/>
        <path d="M218.448,14.112L214.488,14.112C214.129,15.696 213.049,16.92 211.104,16.92C210.024,16.92 209.16,16.56 208.583,15.912C207.863,15.048 207.647,14.112 207.647,10.224C207.647,6.336 207.863,5.4 208.583,4.536C209.159,3.888 210.023,3.528 211.104,3.528C213.048,3.528 214.128,4.752 214.488,6.336L218.448,6.336C217.728,2.16 214.848,0 211.104,0C208.872,0 207.072,0.792 205.632,2.232C203.615,4.248 203.688,6.768 203.688,10.224C203.688,13.68 203.616,16.2 205.632,18.216C207.071,19.656 208.871,20.448 211.104,20.448C214.776,20.448 217.728,18.288 218.448,14.112Z" style="fill:white;"/>
        <path d="M236.736,20.232L236.736,0.216L232.848,0.216L232.848,8.424L226.08,8.424L226.08,0.216L222.12,0.216L222.12,20.232L226.08,20.232L226.08,11.88L232.848,11.88L232.848,20.232L236.736,20.232Z" style="fill:white;"/>
        <path d="M255.096,20.232L255.096,16.776L245.736,16.776L245.736,11.88L253.656,11.88L253.656,8.424L245.736,8.424L245.736,3.672L255.096,3.672L255.096,0.216L241.848,0.216L241.848,20.232L255.096,20.232Z" style="fill:white;"/>
        <path d="M4.464,29.232L24.552,29.232L24.552,52.633L49.104,52.633L49.104,29.232L69.12,29.232L69.12,49.752L49.536,69.336L24.048,69.336L4.464,49.752L4.464,29.232ZM66.96,31.464L51.336,31.464L51.336,54.863L22.32,54.863L22.32,31.464L6.696,31.464L6.696,48.889L24.984,67.104L48.672,67.104L66.888,48.889L66.96,31.464ZM66.528,24.768L48.672,6.912L24.984,6.912L7.128,24.768L29.016,24.768L29.016,48.168L44.64,48.168L44.64,24.768L66.528,24.768ZM69.12,27L46.872,27L46.872,50.4L26.784,50.4L26.784,27L4.464,27L4.464,24.264L24.048,4.68L49.536,4.68L69.12,24.264L69.12,27ZM0,22.536L0,51.48L22.32,73.8L51.336,73.8L73.584,51.48L73.584,22.536L51.336,0.216L22.32,0.216L0,22.536ZM2.232,23.4L2.232,50.615L23.184,71.568L50.4,71.568L71.352,50.615L71.352,23.4L50.4,2.448L23.184,2.448L2.232,23.4Z" style="fill:white;"/>
    </g>
</svg>
